%TF.GenerationSoftware,KiCad,Pcbnew,7.0.5*%
%TF.CreationDate,2023-09-16T15:22:35-07:00*%
%TF.ProjectId,PulseCounterI2C,50756c73-6543-46f7-956e-746572493243,rev?*%
%TF.SameCoordinates,Original*%
%TF.FileFunction,Paste,Top*%
%TF.FilePolarity,Positive*%
%FSLAX46Y46*%
G04 Gerber Fmt 4.6, Leading zero omitted, Abs format (unit mm)*
G04 Created by KiCad (PCBNEW 7.0.5) date 2023-09-16 15:22:35*
%MOMM*%
%LPD*%
G01*
G04 APERTURE LIST*
G04 Aperture macros list*
%AMRoundRect*
0 Rectangle with rounded corners*
0 $1 Rounding radius*
0 $2 $3 $4 $5 $6 $7 $8 $9 X,Y pos of 4 corners*
0 Add a 4 corners polygon primitive as box body*
4,1,4,$2,$3,$4,$5,$6,$7,$8,$9,$2,$3,0*
0 Add four circle primitives for the rounded corners*
1,1,$1+$1,$2,$3*
1,1,$1+$1,$4,$5*
1,1,$1+$1,$6,$7*
1,1,$1+$1,$8,$9*
0 Add four rect primitives between the rounded corners*
20,1,$1+$1,$2,$3,$4,$5,0*
20,1,$1+$1,$4,$5,$6,$7,0*
20,1,$1+$1,$6,$7,$8,$9,0*
20,1,$1+$1,$8,$9,$2,$3,0*%
G04 Aperture macros list end*
%ADD10RoundRect,0.250000X0.450000X-0.262500X0.450000X0.262500X-0.450000X0.262500X-0.450000X-0.262500X0*%
%ADD11RoundRect,0.150000X0.587500X0.150000X-0.587500X0.150000X-0.587500X-0.150000X0.587500X-0.150000X0*%
%ADD12RoundRect,0.150000X-0.587500X-0.150000X0.587500X-0.150000X0.587500X0.150000X-0.587500X0.150000X0*%
%ADD13RoundRect,0.250000X-0.475000X0.250000X-0.475000X-0.250000X0.475000X-0.250000X0.475000X0.250000X0*%
%ADD14RoundRect,0.243750X0.243750X0.456250X-0.243750X0.456250X-0.243750X-0.456250X0.243750X-0.456250X0*%
%ADD15RoundRect,0.250000X-0.262500X-0.450000X0.262500X-0.450000X0.262500X0.450000X-0.262500X0.450000X0*%
%ADD16RoundRect,0.150000X-0.512500X-0.150000X0.512500X-0.150000X0.512500X0.150000X-0.512500X0.150000X0*%
%ADD17RoundRect,0.250000X0.250000X0.475000X-0.250000X0.475000X-0.250000X-0.475000X0.250000X-0.475000X0*%
%ADD18RoundRect,0.150000X-0.725000X-0.150000X0.725000X-0.150000X0.725000X0.150000X-0.725000X0.150000X0*%
%ADD19RoundRect,0.250000X-0.250000X-0.475000X0.250000X-0.475000X0.250000X0.475000X-0.250000X0.475000X0*%
%ADD20RoundRect,0.250000X0.262500X0.450000X-0.262500X0.450000X-0.262500X-0.450000X0.262500X-0.450000X0*%
%ADD21RoundRect,0.225000X-0.375000X0.225000X-0.375000X-0.225000X0.375000X-0.225000X0.375000X0.225000X0*%
%ADD22RoundRect,0.150000X0.512500X0.150000X-0.512500X0.150000X-0.512500X-0.150000X0.512500X-0.150000X0*%
%ADD23RoundRect,0.250000X-0.450000X0.262500X-0.450000X-0.262500X0.450000X-0.262500X0.450000X0.262500X0*%
G04 APERTURE END LIST*
D10*
%TO.C,R10*%
X130000000Y-87912500D03*
X130000000Y-86087500D03*
%TD*%
D11*
%TO.C,Q3*%
X131875000Y-94950000D03*
X131875000Y-93050000D03*
X130000000Y-94000000D03*
%TD*%
D12*
%TO.C,Q2*%
X149000000Y-73100000D03*
X149000000Y-75000000D03*
X150875000Y-74050000D03*
%TD*%
D13*
%TO.C,C2*%
X145000000Y-93050000D03*
X145000000Y-94950000D03*
%TD*%
D14*
%TO.C,D4*%
X134937500Y-89000000D03*
X133062500Y-89000000D03*
%TD*%
D15*
%TO.C,R4*%
X144087500Y-78000000D03*
X145912500Y-78000000D03*
%TD*%
D16*
%TO.C,D1*%
X147862500Y-91850000D03*
X147862500Y-93750000D03*
X150137500Y-92800000D03*
%TD*%
D17*
%TO.C,C4*%
X157175000Y-86680000D03*
X155275000Y-86680000D03*
%TD*%
D10*
%TO.C,R6*%
X146000000Y-74912500D03*
X146000000Y-73087500D03*
%TD*%
D18*
%TO.C,U1*%
X138850000Y-83190000D03*
X138850000Y-84460000D03*
X138850000Y-85730000D03*
X138850000Y-87000000D03*
X144000000Y-87000000D03*
X144000000Y-85730000D03*
X144000000Y-84460000D03*
X144000000Y-83190000D03*
%TD*%
D19*
%TO.C,C1*%
X147050000Y-83495000D03*
X148950000Y-83495000D03*
%TD*%
D20*
%TO.C,R13*%
X160100000Y-78900000D03*
X158275000Y-78900000D03*
%TD*%
D21*
%TO.C,D5*%
X135000000Y-92350000D03*
X135000000Y-95650000D03*
%TD*%
D22*
%TO.C,D3*%
X152000000Y-70000000D03*
X152000000Y-68100000D03*
X149725000Y-69050000D03*
%TD*%
D12*
%TO.C,Q1*%
X141000000Y-73000000D03*
X141000000Y-74900000D03*
X142875000Y-73950000D03*
%TD*%
D22*
%TO.C,D2*%
X147137500Y-69950000D03*
X147137500Y-68050000D03*
X144862500Y-69000000D03*
%TD*%
D23*
%TO.C,R8*%
X137000000Y-69087500D03*
X137000000Y-70912500D03*
%TD*%
D16*
%TO.C,U2*%
X155000000Y-82000000D03*
X155000000Y-82950000D03*
X155000000Y-83900000D03*
X157275000Y-83900000D03*
X157275000Y-82000000D03*
%TD*%
D23*
%TO.C,R9*%
X137000000Y-73087500D03*
X137000000Y-74912500D03*
%TD*%
D13*
%TO.C,C3*%
X142000000Y-93100000D03*
X142000000Y-95000000D03*
%TD*%
D20*
%TO.C,R5*%
X150912500Y-78000000D03*
X149087500Y-78000000D03*
%TD*%
D10*
%TO.C,R11*%
X139000000Y-94912500D03*
X139000000Y-93087500D03*
%TD*%
D20*
%TO.C,R12*%
X156100000Y-78900000D03*
X154275000Y-78900000D03*
%TD*%
D16*
%TO.C,D6*%
X140000000Y-68050000D03*
X140000000Y-69950000D03*
X142275000Y-69000000D03*
%TD*%
D20*
%TO.C,R1*%
X134912500Y-85495000D03*
X133087500Y-85495000D03*
%TD*%
D15*
%TO.C,R2*%
X153087500Y-92050000D03*
X154912500Y-92050000D03*
%TD*%
D20*
%TO.C,R3*%
X154912500Y-95000000D03*
X153087500Y-95000000D03*
%TD*%
D10*
%TO.C,R7*%
X154000000Y-74912500D03*
X154000000Y-73087500D03*
%TD*%
M02*
