M48
; DRILL file {KiCad 7.0.5} date Sat Sep 16 15:22:37 2023
; FORMAT={-:-/ absolute / inch / decimal}
; #@! TF.CreationDate,2023-09-16T15:22:37-07:00
; #@! TF.GenerationSoftware,Kicad,Pcbnew,7.0.5
; #@! TF.FileFunction,Plated,1,2,PTH
FMAT,2
INCH
; #@! TA.AperFunction,Plated,PTH,ViaDrill
T1C0.0118
; #@! TA.AperFunction,Plated,PTH,ComponentDrill
T2C0.0394
; #@! TA.AperFunction,Plated,PTH,ComponentDrill
T3C0.0598
; #@! TA.AperFunction,Plated,PTH,ComponentDrill
T4C0.1260
%
G90
G05
T1
X5.0394Y-3.622
X5.0394Y-3.7795
X5.0591Y-3.3071
X5.2559Y-2.8937
X5.2756Y-3.189
X5.315Y-3.563
X5.4528Y-2.7165
X5.4724Y-2.6181
X5.4921Y-2.9528
X5.5315Y-2.815
X5.5512Y-3.0315
X5.5512Y-3.5039
X5.5709Y-3.5827
X5.6496Y-2.6181
X5.6496Y-3.7402
X5.6693Y-3.1693
X5.6693Y-3.2283
X5.6693Y-3.5827
X5.689Y-2.9528
X5.7087Y-2.7559
X5.748Y-3.5827
X5.7677Y-2.6181
X5.8071Y-3.0709
X5.8268Y-2.5984
X5.8465Y-2.7165
X5.8661Y-2.9921
X5.8661Y-3.2283
X5.8858Y-2.6575
X5.9252Y-2.7756
X5.9252Y-3.2382
X5.9941Y-3.5531
X6.0039Y-2.9134
X6.0039Y-3.3465
X6.0138Y-3.2776
X6.0236Y-3.1102
X6.0335Y-3.4055
X6.063Y-2.9921
X6.1024Y-3.1693
X6.1919Y-3.3661
T2
X5.6Y-2.5
X5.7Y-2.5
X5.8Y-2.5
X5.9Y-2.5
X6.0Y-2.5
T3
X5.3Y-4.0
X5.5Y-4.0
X5.8Y-4.0
X6.0Y-4.0
X6.2Y-4.0
T4
X5.0Y-2.5
X5.0Y-4.0
X6.5Y-2.5
X6.5Y-4.0
T0
M30
