%TF.GenerationSoftware,KiCad,Pcbnew,7.0.5*%
%TF.CreationDate,2023-09-16T15:22:35-07:00*%
%TF.ProjectId,PulseCounterI2C,50756c73-6543-46f7-956e-746572493243,rev?*%
%TF.SameCoordinates,Original*%
%TF.FileFunction,Legend,Top*%
%TF.FilePolarity,Positive*%
%FSLAX46Y46*%
G04 Gerber Fmt 4.6, Leading zero omitted, Abs format (unit mm)*
G04 Created by KiCad (PCBNEW 7.0.5) date 2023-09-16 15:22:35*
%MOMM*%
%LPD*%
G01*
G04 APERTURE LIST*
%ADD10C,0.150000*%
%ADD11C,0.120000*%
G04 APERTURE END LIST*
D10*
X142917438Y-102639411D02*
X142869819Y-102734649D01*
X142869819Y-102734649D02*
X142869819Y-102877506D01*
X142869819Y-102877506D02*
X142917438Y-103020363D01*
X142917438Y-103020363D02*
X143012676Y-103115601D01*
X143012676Y-103115601D02*
X143107914Y-103163220D01*
X143107914Y-103163220D02*
X143298390Y-103210839D01*
X143298390Y-103210839D02*
X143441247Y-103210839D01*
X143441247Y-103210839D02*
X143631723Y-103163220D01*
X143631723Y-103163220D02*
X143726961Y-103115601D01*
X143726961Y-103115601D02*
X143822200Y-103020363D01*
X143822200Y-103020363D02*
X143869819Y-102877506D01*
X143869819Y-102877506D02*
X143869819Y-102782268D01*
X143869819Y-102782268D02*
X143822200Y-102639411D01*
X143822200Y-102639411D02*
X143774580Y-102591792D01*
X143774580Y-102591792D02*
X143441247Y-102591792D01*
X143441247Y-102591792D02*
X143441247Y-102782268D01*
X143869819Y-102163220D02*
X142869819Y-102163220D01*
X142869819Y-102163220D02*
X143869819Y-101591792D01*
X143869819Y-101591792D02*
X142869819Y-101591792D01*
X143869819Y-101115601D02*
X142869819Y-101115601D01*
X142869819Y-101115601D02*
X142869819Y-100877506D01*
X142869819Y-100877506D02*
X142917438Y-100734649D01*
X142917438Y-100734649D02*
X143012676Y-100639411D01*
X143012676Y-100639411D02*
X143107914Y-100591792D01*
X143107914Y-100591792D02*
X143298390Y-100544173D01*
X143298390Y-100544173D02*
X143441247Y-100544173D01*
X143441247Y-100544173D02*
X143631723Y-100591792D01*
X143631723Y-100591792D02*
X143726961Y-100639411D01*
X143726961Y-100639411D02*
X143822200Y-100734649D01*
X143822200Y-100734649D02*
X143869819Y-100877506D01*
X143869819Y-100877506D02*
X143869819Y-101115601D01*
X130988866Y-102663220D02*
X130988866Y-101901316D01*
X131369819Y-102282268D02*
X130607914Y-102282268D01*
X130369819Y-101567982D02*
X131369819Y-101234649D01*
X131369819Y-101234649D02*
X130369819Y-100901316D01*
X144822200Y-61210839D02*
X144869819Y-61067982D01*
X144869819Y-61067982D02*
X144869819Y-60829887D01*
X144869819Y-60829887D02*
X144822200Y-60734649D01*
X144822200Y-60734649D02*
X144774580Y-60687030D01*
X144774580Y-60687030D02*
X144679342Y-60639411D01*
X144679342Y-60639411D02*
X144584104Y-60639411D01*
X144584104Y-60639411D02*
X144488866Y-60687030D01*
X144488866Y-60687030D02*
X144441247Y-60734649D01*
X144441247Y-60734649D02*
X144393628Y-60829887D01*
X144393628Y-60829887D02*
X144346009Y-61020363D01*
X144346009Y-61020363D02*
X144298390Y-61115601D01*
X144298390Y-61115601D02*
X144250771Y-61163220D01*
X144250771Y-61163220D02*
X144155533Y-61210839D01*
X144155533Y-61210839D02*
X144060295Y-61210839D01*
X144060295Y-61210839D02*
X143965057Y-61163220D01*
X143965057Y-61163220D02*
X143917438Y-61115601D01*
X143917438Y-61115601D02*
X143869819Y-61020363D01*
X143869819Y-61020363D02*
X143869819Y-60782268D01*
X143869819Y-60782268D02*
X143917438Y-60639411D01*
X144774580Y-59639411D02*
X144822200Y-59687030D01*
X144822200Y-59687030D02*
X144869819Y-59829887D01*
X144869819Y-59829887D02*
X144869819Y-59925125D01*
X144869819Y-59925125D02*
X144822200Y-60067982D01*
X144822200Y-60067982D02*
X144726961Y-60163220D01*
X144726961Y-60163220D02*
X144631723Y-60210839D01*
X144631723Y-60210839D02*
X144441247Y-60258458D01*
X144441247Y-60258458D02*
X144298390Y-60258458D01*
X144298390Y-60258458D02*
X144107914Y-60210839D01*
X144107914Y-60210839D02*
X144012676Y-60163220D01*
X144012676Y-60163220D02*
X143917438Y-60067982D01*
X143917438Y-60067982D02*
X143869819Y-59925125D01*
X143869819Y-59925125D02*
X143869819Y-59829887D01*
X143869819Y-59829887D02*
X143917438Y-59687030D01*
X143917438Y-59687030D02*
X143965057Y-59639411D01*
X144869819Y-58734649D02*
X144869819Y-59210839D01*
X144869819Y-59210839D02*
X143869819Y-59210839D01*
X151917438Y-60639411D02*
X151869819Y-60734649D01*
X151869819Y-60734649D02*
X151869819Y-60877506D01*
X151869819Y-60877506D02*
X151917438Y-61020363D01*
X151917438Y-61020363D02*
X152012676Y-61115601D01*
X152012676Y-61115601D02*
X152107914Y-61163220D01*
X152107914Y-61163220D02*
X152298390Y-61210839D01*
X152298390Y-61210839D02*
X152441247Y-61210839D01*
X152441247Y-61210839D02*
X152631723Y-61163220D01*
X152631723Y-61163220D02*
X152726961Y-61115601D01*
X152726961Y-61115601D02*
X152822200Y-61020363D01*
X152822200Y-61020363D02*
X152869819Y-60877506D01*
X152869819Y-60877506D02*
X152869819Y-60782268D01*
X152869819Y-60782268D02*
X152822200Y-60639411D01*
X152822200Y-60639411D02*
X152774580Y-60591792D01*
X152774580Y-60591792D02*
X152441247Y-60591792D01*
X152441247Y-60591792D02*
X152441247Y-60782268D01*
X152869819Y-60163220D02*
X151869819Y-60163220D01*
X151869819Y-60163220D02*
X152869819Y-59591792D01*
X152869819Y-59591792D02*
X151869819Y-59591792D01*
X152869819Y-59115601D02*
X151869819Y-59115601D01*
X151869819Y-59115601D02*
X151869819Y-58877506D01*
X151869819Y-58877506D02*
X151917438Y-58734649D01*
X151917438Y-58734649D02*
X152012676Y-58639411D01*
X152012676Y-58639411D02*
X152107914Y-58591792D01*
X152107914Y-58591792D02*
X152298390Y-58544173D01*
X152298390Y-58544173D02*
X152441247Y-58544173D01*
X152441247Y-58544173D02*
X152631723Y-58591792D01*
X152631723Y-58591792D02*
X152726961Y-58639411D01*
X152726961Y-58639411D02*
X152822200Y-58734649D01*
X152822200Y-58734649D02*
X152869819Y-58877506D01*
X152869819Y-58877506D02*
X152869819Y-59115601D01*
X154336779Y-106869819D02*
X154336779Y-105869819D01*
X154336779Y-105869819D02*
X154717731Y-105869819D01*
X154717731Y-105869819D02*
X154812969Y-105917438D01*
X154812969Y-105917438D02*
X154860588Y-105965057D01*
X154860588Y-105965057D02*
X154908207Y-106060295D01*
X154908207Y-106060295D02*
X154908207Y-106203152D01*
X154908207Y-106203152D02*
X154860588Y-106298390D01*
X154860588Y-106298390D02*
X154812969Y-106346009D01*
X154812969Y-106346009D02*
X154717731Y-106393628D01*
X154717731Y-106393628D02*
X154336779Y-106393628D01*
X155336779Y-105869819D02*
X155336779Y-106679342D01*
X155336779Y-106679342D02*
X155384398Y-106774580D01*
X155384398Y-106774580D02*
X155432017Y-106822200D01*
X155432017Y-106822200D02*
X155527255Y-106869819D01*
X155527255Y-106869819D02*
X155717731Y-106869819D01*
X155717731Y-106869819D02*
X155812969Y-106822200D01*
X155812969Y-106822200D02*
X155860588Y-106774580D01*
X155860588Y-106774580D02*
X155908207Y-106679342D01*
X155908207Y-106679342D02*
X155908207Y-105869819D01*
X156860588Y-106869819D02*
X156384398Y-106869819D01*
X156384398Y-106869819D02*
X156384398Y-105869819D01*
X157146303Y-106822200D02*
X157289160Y-106869819D01*
X157289160Y-106869819D02*
X157527255Y-106869819D01*
X157527255Y-106869819D02*
X157622493Y-106822200D01*
X157622493Y-106822200D02*
X157670112Y-106774580D01*
X157670112Y-106774580D02*
X157717731Y-106679342D01*
X157717731Y-106679342D02*
X157717731Y-106584104D01*
X157717731Y-106584104D02*
X157670112Y-106488866D01*
X157670112Y-106488866D02*
X157622493Y-106441247D01*
X157622493Y-106441247D02*
X157527255Y-106393628D01*
X157527255Y-106393628D02*
X157336779Y-106346009D01*
X157336779Y-106346009D02*
X157241541Y-106298390D01*
X157241541Y-106298390D02*
X157193922Y-106250771D01*
X157193922Y-106250771D02*
X157146303Y-106155533D01*
X157146303Y-106155533D02*
X157146303Y-106060295D01*
X157146303Y-106060295D02*
X157193922Y-105965057D01*
X157193922Y-105965057D02*
X157241541Y-105917438D01*
X157241541Y-105917438D02*
X157336779Y-105869819D01*
X157336779Y-105869819D02*
X157574874Y-105869819D01*
X157574874Y-105869819D02*
X157717731Y-105917438D01*
X158146303Y-106346009D02*
X158479636Y-106346009D01*
X158622493Y-106869819D02*
X158146303Y-106869819D01*
X158146303Y-106869819D02*
X158146303Y-105869819D01*
X158146303Y-105869819D02*
X158622493Y-105869819D01*
X145836779Y-106488866D02*
X146598684Y-106488866D01*
X146217731Y-106869819D02*
X146217731Y-106107914D01*
X146932017Y-105869819D02*
X147265350Y-106869819D01*
X147265350Y-106869819D02*
X147598683Y-105869819D01*
X142369819Y-61163220D02*
X141369819Y-61163220D01*
X142369819Y-60687030D02*
X141369819Y-60687030D01*
X141369819Y-60687030D02*
X142369819Y-60115602D01*
X142369819Y-60115602D02*
X141369819Y-60115602D01*
X141369819Y-59782268D02*
X141369819Y-59210840D01*
X142369819Y-59496554D02*
X141369819Y-59496554D01*
X147322200Y-61210839D02*
X147369819Y-61067982D01*
X147369819Y-61067982D02*
X147369819Y-60829887D01*
X147369819Y-60829887D02*
X147322200Y-60734649D01*
X147322200Y-60734649D02*
X147274580Y-60687030D01*
X147274580Y-60687030D02*
X147179342Y-60639411D01*
X147179342Y-60639411D02*
X147084104Y-60639411D01*
X147084104Y-60639411D02*
X146988866Y-60687030D01*
X146988866Y-60687030D02*
X146941247Y-60734649D01*
X146941247Y-60734649D02*
X146893628Y-60829887D01*
X146893628Y-60829887D02*
X146846009Y-61020363D01*
X146846009Y-61020363D02*
X146798390Y-61115601D01*
X146798390Y-61115601D02*
X146750771Y-61163220D01*
X146750771Y-61163220D02*
X146655533Y-61210839D01*
X146655533Y-61210839D02*
X146560295Y-61210839D01*
X146560295Y-61210839D02*
X146465057Y-61163220D01*
X146465057Y-61163220D02*
X146417438Y-61115601D01*
X146417438Y-61115601D02*
X146369819Y-61020363D01*
X146369819Y-61020363D02*
X146369819Y-60782268D01*
X146369819Y-60782268D02*
X146417438Y-60639411D01*
X147369819Y-60210839D02*
X146369819Y-60210839D01*
X146369819Y-60210839D02*
X146369819Y-59972744D01*
X146369819Y-59972744D02*
X146417438Y-59829887D01*
X146417438Y-59829887D02*
X146512676Y-59734649D01*
X146512676Y-59734649D02*
X146607914Y-59687030D01*
X146607914Y-59687030D02*
X146798390Y-59639411D01*
X146798390Y-59639411D02*
X146941247Y-59639411D01*
X146941247Y-59639411D02*
X147131723Y-59687030D01*
X147131723Y-59687030D02*
X147226961Y-59734649D01*
X147226961Y-59734649D02*
X147322200Y-59829887D01*
X147322200Y-59829887D02*
X147369819Y-59972744D01*
X147369819Y-59972744D02*
X147369819Y-60210839D01*
X147084104Y-59258458D02*
X147084104Y-58782268D01*
X147369819Y-59353696D02*
X146369819Y-59020363D01*
X146369819Y-59020363D02*
X147369819Y-58687030D01*
X160417438Y-104139411D02*
X160369819Y-104234649D01*
X160369819Y-104234649D02*
X160369819Y-104377506D01*
X160369819Y-104377506D02*
X160417438Y-104520363D01*
X160417438Y-104520363D02*
X160512676Y-104615601D01*
X160512676Y-104615601D02*
X160607914Y-104663220D01*
X160607914Y-104663220D02*
X160798390Y-104710839D01*
X160798390Y-104710839D02*
X160941247Y-104710839D01*
X160941247Y-104710839D02*
X161131723Y-104663220D01*
X161131723Y-104663220D02*
X161226961Y-104615601D01*
X161226961Y-104615601D02*
X161322200Y-104520363D01*
X161322200Y-104520363D02*
X161369819Y-104377506D01*
X161369819Y-104377506D02*
X161369819Y-104282268D01*
X161369819Y-104282268D02*
X161322200Y-104139411D01*
X161322200Y-104139411D02*
X161274580Y-104091792D01*
X161274580Y-104091792D02*
X160941247Y-104091792D01*
X160941247Y-104091792D02*
X160941247Y-104282268D01*
X161369819Y-103663220D02*
X160369819Y-103663220D01*
X160369819Y-103663220D02*
X161369819Y-103091792D01*
X161369819Y-103091792D02*
X160369819Y-103091792D01*
X161369819Y-102615601D02*
X160369819Y-102615601D01*
X160369819Y-102615601D02*
X160369819Y-102377506D01*
X160369819Y-102377506D02*
X160417438Y-102234649D01*
X160417438Y-102234649D02*
X160512676Y-102139411D01*
X160512676Y-102139411D02*
X160607914Y-102091792D01*
X160607914Y-102091792D02*
X160798390Y-102044173D01*
X160798390Y-102044173D02*
X160941247Y-102044173D01*
X160941247Y-102044173D02*
X161131723Y-102091792D01*
X161131723Y-102091792D02*
X161226961Y-102139411D01*
X161226961Y-102139411D02*
X161322200Y-102234649D01*
X161322200Y-102234649D02*
X161369819Y-102377506D01*
X161369819Y-102377506D02*
X161369819Y-102615601D01*
X149988866Y-61163220D02*
X149988866Y-60401316D01*
X150369819Y-60782268D02*
X149607914Y-60782268D01*
X149369819Y-60067982D02*
X150369819Y-59734649D01*
X150369819Y-59734649D02*
X149369819Y-59401316D01*
%TO.C,R10*%
X128804819Y-87642857D02*
X128328628Y-87976190D01*
X128804819Y-88214285D02*
X127804819Y-88214285D01*
X127804819Y-88214285D02*
X127804819Y-87833333D01*
X127804819Y-87833333D02*
X127852438Y-87738095D01*
X127852438Y-87738095D02*
X127900057Y-87690476D01*
X127900057Y-87690476D02*
X127995295Y-87642857D01*
X127995295Y-87642857D02*
X128138152Y-87642857D01*
X128138152Y-87642857D02*
X128233390Y-87690476D01*
X128233390Y-87690476D02*
X128281009Y-87738095D01*
X128281009Y-87738095D02*
X128328628Y-87833333D01*
X128328628Y-87833333D02*
X128328628Y-88214285D01*
X128804819Y-86690476D02*
X128804819Y-87261904D01*
X128804819Y-86976190D02*
X127804819Y-86976190D01*
X127804819Y-86976190D02*
X127947676Y-87071428D01*
X127947676Y-87071428D02*
X128042914Y-87166666D01*
X128042914Y-87166666D02*
X128090533Y-87261904D01*
X127804819Y-86071428D02*
X127804819Y-85976190D01*
X127804819Y-85976190D02*
X127852438Y-85880952D01*
X127852438Y-85880952D02*
X127900057Y-85833333D01*
X127900057Y-85833333D02*
X127995295Y-85785714D01*
X127995295Y-85785714D02*
X128185771Y-85738095D01*
X128185771Y-85738095D02*
X128423866Y-85738095D01*
X128423866Y-85738095D02*
X128614342Y-85785714D01*
X128614342Y-85785714D02*
X128709580Y-85833333D01*
X128709580Y-85833333D02*
X128757200Y-85880952D01*
X128757200Y-85880952D02*
X128804819Y-85976190D01*
X128804819Y-85976190D02*
X128804819Y-86071428D01*
X128804819Y-86071428D02*
X128757200Y-86166666D01*
X128757200Y-86166666D02*
X128709580Y-86214285D01*
X128709580Y-86214285D02*
X128614342Y-86261904D01*
X128614342Y-86261904D02*
X128423866Y-86309523D01*
X128423866Y-86309523D02*
X128185771Y-86309523D01*
X128185771Y-86309523D02*
X127995295Y-86261904D01*
X127995295Y-86261904D02*
X127900057Y-86214285D01*
X127900057Y-86214285D02*
X127852438Y-86166666D01*
X127852438Y-86166666D02*
X127804819Y-86071428D01*
%TO.C,Q3*%
X130842261Y-96950057D02*
X130747023Y-96902438D01*
X130747023Y-96902438D02*
X130651785Y-96807200D01*
X130651785Y-96807200D02*
X130508928Y-96664342D01*
X130508928Y-96664342D02*
X130413690Y-96616723D01*
X130413690Y-96616723D02*
X130318452Y-96616723D01*
X130366071Y-96854819D02*
X130270833Y-96807200D01*
X130270833Y-96807200D02*
X130175595Y-96711961D01*
X130175595Y-96711961D02*
X130127976Y-96521485D01*
X130127976Y-96521485D02*
X130127976Y-96188152D01*
X130127976Y-96188152D02*
X130175595Y-95997676D01*
X130175595Y-95997676D02*
X130270833Y-95902438D01*
X130270833Y-95902438D02*
X130366071Y-95854819D01*
X130366071Y-95854819D02*
X130556547Y-95854819D01*
X130556547Y-95854819D02*
X130651785Y-95902438D01*
X130651785Y-95902438D02*
X130747023Y-95997676D01*
X130747023Y-95997676D02*
X130794642Y-96188152D01*
X130794642Y-96188152D02*
X130794642Y-96521485D01*
X130794642Y-96521485D02*
X130747023Y-96711961D01*
X130747023Y-96711961D02*
X130651785Y-96807200D01*
X130651785Y-96807200D02*
X130556547Y-96854819D01*
X130556547Y-96854819D02*
X130366071Y-96854819D01*
X131127976Y-95854819D02*
X131747023Y-95854819D01*
X131747023Y-95854819D02*
X131413690Y-96235771D01*
X131413690Y-96235771D02*
X131556547Y-96235771D01*
X131556547Y-96235771D02*
X131651785Y-96283390D01*
X131651785Y-96283390D02*
X131699404Y-96331009D01*
X131699404Y-96331009D02*
X131747023Y-96426247D01*
X131747023Y-96426247D02*
X131747023Y-96664342D01*
X131747023Y-96664342D02*
X131699404Y-96759580D01*
X131699404Y-96759580D02*
X131651785Y-96807200D01*
X131651785Y-96807200D02*
X131556547Y-96854819D01*
X131556547Y-96854819D02*
X131270833Y-96854819D01*
X131270833Y-96854819D02*
X131175595Y-96807200D01*
X131175595Y-96807200D02*
X131127976Y-96759580D01*
%TO.C,Q2*%
X148404761Y-72050057D02*
X148309523Y-72002438D01*
X148309523Y-72002438D02*
X148214285Y-71907200D01*
X148214285Y-71907200D02*
X148071428Y-71764342D01*
X148071428Y-71764342D02*
X147976190Y-71716723D01*
X147976190Y-71716723D02*
X147880952Y-71716723D01*
X147928571Y-71954819D02*
X147833333Y-71907200D01*
X147833333Y-71907200D02*
X147738095Y-71811961D01*
X147738095Y-71811961D02*
X147690476Y-71621485D01*
X147690476Y-71621485D02*
X147690476Y-71288152D01*
X147690476Y-71288152D02*
X147738095Y-71097676D01*
X147738095Y-71097676D02*
X147833333Y-71002438D01*
X147833333Y-71002438D02*
X147928571Y-70954819D01*
X147928571Y-70954819D02*
X148119047Y-70954819D01*
X148119047Y-70954819D02*
X148214285Y-71002438D01*
X148214285Y-71002438D02*
X148309523Y-71097676D01*
X148309523Y-71097676D02*
X148357142Y-71288152D01*
X148357142Y-71288152D02*
X148357142Y-71621485D01*
X148357142Y-71621485D02*
X148309523Y-71811961D01*
X148309523Y-71811961D02*
X148214285Y-71907200D01*
X148214285Y-71907200D02*
X148119047Y-71954819D01*
X148119047Y-71954819D02*
X147928571Y-71954819D01*
X148738095Y-71050057D02*
X148785714Y-71002438D01*
X148785714Y-71002438D02*
X148880952Y-70954819D01*
X148880952Y-70954819D02*
X149119047Y-70954819D01*
X149119047Y-70954819D02*
X149214285Y-71002438D01*
X149214285Y-71002438D02*
X149261904Y-71050057D01*
X149261904Y-71050057D02*
X149309523Y-71145295D01*
X149309523Y-71145295D02*
X149309523Y-71240533D01*
X149309523Y-71240533D02*
X149261904Y-71383390D01*
X149261904Y-71383390D02*
X148690476Y-71954819D01*
X148690476Y-71954819D02*
X149309523Y-71954819D01*
%TO.C,C2*%
X147039580Y-95916666D02*
X147087200Y-95964285D01*
X147087200Y-95964285D02*
X147134819Y-96107142D01*
X147134819Y-96107142D02*
X147134819Y-96202380D01*
X147134819Y-96202380D02*
X147087200Y-96345237D01*
X147087200Y-96345237D02*
X146991961Y-96440475D01*
X146991961Y-96440475D02*
X146896723Y-96488094D01*
X146896723Y-96488094D02*
X146706247Y-96535713D01*
X146706247Y-96535713D02*
X146563390Y-96535713D01*
X146563390Y-96535713D02*
X146372914Y-96488094D01*
X146372914Y-96488094D02*
X146277676Y-96440475D01*
X146277676Y-96440475D02*
X146182438Y-96345237D01*
X146182438Y-96345237D02*
X146134819Y-96202380D01*
X146134819Y-96202380D02*
X146134819Y-96107142D01*
X146134819Y-96107142D02*
X146182438Y-95964285D01*
X146182438Y-95964285D02*
X146230057Y-95916666D01*
X146230057Y-95535713D02*
X146182438Y-95488094D01*
X146182438Y-95488094D02*
X146134819Y-95392856D01*
X146134819Y-95392856D02*
X146134819Y-95154761D01*
X146134819Y-95154761D02*
X146182438Y-95059523D01*
X146182438Y-95059523D02*
X146230057Y-95011904D01*
X146230057Y-95011904D02*
X146325295Y-94964285D01*
X146325295Y-94964285D02*
X146420533Y-94964285D01*
X146420533Y-94964285D02*
X146563390Y-95011904D01*
X146563390Y-95011904D02*
X147134819Y-95583332D01*
X147134819Y-95583332D02*
X147134819Y-94964285D01*
%TO.C,D4*%
X132011905Y-91204819D02*
X132011905Y-90204819D01*
X132011905Y-90204819D02*
X132250000Y-90204819D01*
X132250000Y-90204819D02*
X132392857Y-90252438D01*
X132392857Y-90252438D02*
X132488095Y-90347676D01*
X132488095Y-90347676D02*
X132535714Y-90442914D01*
X132535714Y-90442914D02*
X132583333Y-90633390D01*
X132583333Y-90633390D02*
X132583333Y-90776247D01*
X132583333Y-90776247D02*
X132535714Y-90966723D01*
X132535714Y-90966723D02*
X132488095Y-91061961D01*
X132488095Y-91061961D02*
X132392857Y-91157200D01*
X132392857Y-91157200D02*
X132250000Y-91204819D01*
X132250000Y-91204819D02*
X132011905Y-91204819D01*
X133440476Y-90538152D02*
X133440476Y-91204819D01*
X133202381Y-90157200D02*
X132964286Y-90871485D01*
X132964286Y-90871485D02*
X133583333Y-90871485D01*
%TO.C,R4*%
X144833333Y-76804819D02*
X144500000Y-76328628D01*
X144261905Y-76804819D02*
X144261905Y-75804819D01*
X144261905Y-75804819D02*
X144642857Y-75804819D01*
X144642857Y-75804819D02*
X144738095Y-75852438D01*
X144738095Y-75852438D02*
X144785714Y-75900057D01*
X144785714Y-75900057D02*
X144833333Y-75995295D01*
X144833333Y-75995295D02*
X144833333Y-76138152D01*
X144833333Y-76138152D02*
X144785714Y-76233390D01*
X144785714Y-76233390D02*
X144738095Y-76281009D01*
X144738095Y-76281009D02*
X144642857Y-76328628D01*
X144642857Y-76328628D02*
X144261905Y-76328628D01*
X145690476Y-76138152D02*
X145690476Y-76804819D01*
X145452381Y-75757200D02*
X145214286Y-76471485D01*
X145214286Y-76471485D02*
X145833333Y-76471485D01*
%TO.C,J2*%
X164766666Y-59154819D02*
X164766666Y-59869104D01*
X164766666Y-59869104D02*
X164719047Y-60011961D01*
X164719047Y-60011961D02*
X164623809Y-60107200D01*
X164623809Y-60107200D02*
X164480952Y-60154819D01*
X164480952Y-60154819D02*
X164385714Y-60154819D01*
X165195238Y-59250057D02*
X165242857Y-59202438D01*
X165242857Y-59202438D02*
X165338095Y-59154819D01*
X165338095Y-59154819D02*
X165576190Y-59154819D01*
X165576190Y-59154819D02*
X165671428Y-59202438D01*
X165671428Y-59202438D02*
X165719047Y-59250057D01*
X165719047Y-59250057D02*
X165766666Y-59345295D01*
X165766666Y-59345295D02*
X165766666Y-59440533D01*
X165766666Y-59440533D02*
X165719047Y-59583390D01*
X165719047Y-59583390D02*
X165147619Y-60154819D01*
X165147619Y-60154819D02*
X165766666Y-60154819D01*
%TO.C,D1*%
X148261905Y-90854819D02*
X148261905Y-89854819D01*
X148261905Y-89854819D02*
X148500000Y-89854819D01*
X148500000Y-89854819D02*
X148642857Y-89902438D01*
X148642857Y-89902438D02*
X148738095Y-89997676D01*
X148738095Y-89997676D02*
X148785714Y-90092914D01*
X148785714Y-90092914D02*
X148833333Y-90283390D01*
X148833333Y-90283390D02*
X148833333Y-90426247D01*
X148833333Y-90426247D02*
X148785714Y-90616723D01*
X148785714Y-90616723D02*
X148738095Y-90711961D01*
X148738095Y-90711961D02*
X148642857Y-90807200D01*
X148642857Y-90807200D02*
X148500000Y-90854819D01*
X148500000Y-90854819D02*
X148261905Y-90854819D01*
X149785714Y-90854819D02*
X149214286Y-90854819D01*
X149500000Y-90854819D02*
X149500000Y-89854819D01*
X149500000Y-89854819D02*
X149404762Y-89997676D01*
X149404762Y-89997676D02*
X149309524Y-90092914D01*
X149309524Y-90092914D02*
X149214286Y-90140533D01*
%TO.C,C4*%
X156058333Y-88719580D02*
X156010714Y-88767200D01*
X156010714Y-88767200D02*
X155867857Y-88814819D01*
X155867857Y-88814819D02*
X155772619Y-88814819D01*
X155772619Y-88814819D02*
X155629762Y-88767200D01*
X155629762Y-88767200D02*
X155534524Y-88671961D01*
X155534524Y-88671961D02*
X155486905Y-88576723D01*
X155486905Y-88576723D02*
X155439286Y-88386247D01*
X155439286Y-88386247D02*
X155439286Y-88243390D01*
X155439286Y-88243390D02*
X155486905Y-88052914D01*
X155486905Y-88052914D02*
X155534524Y-87957676D01*
X155534524Y-87957676D02*
X155629762Y-87862438D01*
X155629762Y-87862438D02*
X155772619Y-87814819D01*
X155772619Y-87814819D02*
X155867857Y-87814819D01*
X155867857Y-87814819D02*
X156010714Y-87862438D01*
X156010714Y-87862438D02*
X156058333Y-87910057D01*
X156915476Y-88148152D02*
X156915476Y-88814819D01*
X156677381Y-87767200D02*
X156439286Y-88481485D01*
X156439286Y-88481485D02*
X157058333Y-88481485D01*
%TO.C,J4*%
X126666666Y-97254819D02*
X126666666Y-97969104D01*
X126666666Y-97969104D02*
X126619047Y-98111961D01*
X126619047Y-98111961D02*
X126523809Y-98207200D01*
X126523809Y-98207200D02*
X126380952Y-98254819D01*
X126380952Y-98254819D02*
X126285714Y-98254819D01*
X127571428Y-97588152D02*
X127571428Y-98254819D01*
X127333333Y-97207200D02*
X127095238Y-97921485D01*
X127095238Y-97921485D02*
X127714285Y-97921485D01*
%TO.C,R6*%
X144954819Y-73166666D02*
X144478628Y-73499999D01*
X144954819Y-73738094D02*
X143954819Y-73738094D01*
X143954819Y-73738094D02*
X143954819Y-73357142D01*
X143954819Y-73357142D02*
X144002438Y-73261904D01*
X144002438Y-73261904D02*
X144050057Y-73214285D01*
X144050057Y-73214285D02*
X144145295Y-73166666D01*
X144145295Y-73166666D02*
X144288152Y-73166666D01*
X144288152Y-73166666D02*
X144383390Y-73214285D01*
X144383390Y-73214285D02*
X144431009Y-73261904D01*
X144431009Y-73261904D02*
X144478628Y-73357142D01*
X144478628Y-73357142D02*
X144478628Y-73738094D01*
X143954819Y-72309523D02*
X143954819Y-72499999D01*
X143954819Y-72499999D02*
X144002438Y-72595237D01*
X144002438Y-72595237D02*
X144050057Y-72642856D01*
X144050057Y-72642856D02*
X144192914Y-72738094D01*
X144192914Y-72738094D02*
X144383390Y-72785713D01*
X144383390Y-72785713D02*
X144764342Y-72785713D01*
X144764342Y-72785713D02*
X144859580Y-72738094D01*
X144859580Y-72738094D02*
X144907200Y-72690475D01*
X144907200Y-72690475D02*
X144954819Y-72595237D01*
X144954819Y-72595237D02*
X144954819Y-72404761D01*
X144954819Y-72404761D02*
X144907200Y-72309523D01*
X144907200Y-72309523D02*
X144859580Y-72261904D01*
X144859580Y-72261904D02*
X144764342Y-72214285D01*
X144764342Y-72214285D02*
X144526247Y-72214285D01*
X144526247Y-72214285D02*
X144431009Y-72261904D01*
X144431009Y-72261904D02*
X144383390Y-72309523D01*
X144383390Y-72309523D02*
X144335771Y-72404761D01*
X144335771Y-72404761D02*
X144335771Y-72595237D01*
X144335771Y-72595237D02*
X144383390Y-72690475D01*
X144383390Y-72690475D02*
X144431009Y-72738094D01*
X144431009Y-72738094D02*
X144526247Y-72785713D01*
%TO.C,U1*%
X140663095Y-81149819D02*
X140663095Y-81959342D01*
X140663095Y-81959342D02*
X140710714Y-82054580D01*
X140710714Y-82054580D02*
X140758333Y-82102200D01*
X140758333Y-82102200D02*
X140853571Y-82149819D01*
X140853571Y-82149819D02*
X141044047Y-82149819D01*
X141044047Y-82149819D02*
X141139285Y-82102200D01*
X141139285Y-82102200D02*
X141186904Y-82054580D01*
X141186904Y-82054580D02*
X141234523Y-81959342D01*
X141234523Y-81959342D02*
X141234523Y-81149819D01*
X142234523Y-82149819D02*
X141663095Y-82149819D01*
X141948809Y-82149819D02*
X141948809Y-81149819D01*
X141948809Y-81149819D02*
X141853571Y-81292676D01*
X141853571Y-81292676D02*
X141758333Y-81387914D01*
X141758333Y-81387914D02*
X141663095Y-81435533D01*
%TO.C,C1*%
X147833333Y-82174580D02*
X147785714Y-82222200D01*
X147785714Y-82222200D02*
X147642857Y-82269819D01*
X147642857Y-82269819D02*
X147547619Y-82269819D01*
X147547619Y-82269819D02*
X147404762Y-82222200D01*
X147404762Y-82222200D02*
X147309524Y-82126961D01*
X147309524Y-82126961D02*
X147261905Y-82031723D01*
X147261905Y-82031723D02*
X147214286Y-81841247D01*
X147214286Y-81841247D02*
X147214286Y-81698390D01*
X147214286Y-81698390D02*
X147261905Y-81507914D01*
X147261905Y-81507914D02*
X147309524Y-81412676D01*
X147309524Y-81412676D02*
X147404762Y-81317438D01*
X147404762Y-81317438D02*
X147547619Y-81269819D01*
X147547619Y-81269819D02*
X147642857Y-81269819D01*
X147642857Y-81269819D02*
X147785714Y-81317438D01*
X147785714Y-81317438D02*
X147833333Y-81365057D01*
X148785714Y-82269819D02*
X148214286Y-82269819D01*
X148500000Y-82269819D02*
X148500000Y-81269819D01*
X148500000Y-81269819D02*
X148404762Y-81412676D01*
X148404762Y-81412676D02*
X148309524Y-81507914D01*
X148309524Y-81507914D02*
X148214286Y-81555533D01*
%TO.C,R13*%
X158544642Y-81004819D02*
X158211309Y-80528628D01*
X157973214Y-81004819D02*
X157973214Y-80004819D01*
X157973214Y-80004819D02*
X158354166Y-80004819D01*
X158354166Y-80004819D02*
X158449404Y-80052438D01*
X158449404Y-80052438D02*
X158497023Y-80100057D01*
X158497023Y-80100057D02*
X158544642Y-80195295D01*
X158544642Y-80195295D02*
X158544642Y-80338152D01*
X158544642Y-80338152D02*
X158497023Y-80433390D01*
X158497023Y-80433390D02*
X158449404Y-80481009D01*
X158449404Y-80481009D02*
X158354166Y-80528628D01*
X158354166Y-80528628D02*
X157973214Y-80528628D01*
X159497023Y-81004819D02*
X158925595Y-81004819D01*
X159211309Y-81004819D02*
X159211309Y-80004819D01*
X159211309Y-80004819D02*
X159116071Y-80147676D01*
X159116071Y-80147676D02*
X159020833Y-80242914D01*
X159020833Y-80242914D02*
X158925595Y-80290533D01*
X159830357Y-80004819D02*
X160449404Y-80004819D01*
X160449404Y-80004819D02*
X160116071Y-80385771D01*
X160116071Y-80385771D02*
X160258928Y-80385771D01*
X160258928Y-80385771D02*
X160354166Y-80433390D01*
X160354166Y-80433390D02*
X160401785Y-80481009D01*
X160401785Y-80481009D02*
X160449404Y-80576247D01*
X160449404Y-80576247D02*
X160449404Y-80814342D01*
X160449404Y-80814342D02*
X160401785Y-80909580D01*
X160401785Y-80909580D02*
X160354166Y-80957200D01*
X160354166Y-80957200D02*
X160258928Y-81004819D01*
X160258928Y-81004819D02*
X159973214Y-81004819D01*
X159973214Y-81004819D02*
X159877976Y-80957200D01*
X159877976Y-80957200D02*
X159830357Y-80909580D01*
%TO.C,D5*%
X137454819Y-94738094D02*
X136454819Y-94738094D01*
X136454819Y-94738094D02*
X136454819Y-94499999D01*
X136454819Y-94499999D02*
X136502438Y-94357142D01*
X136502438Y-94357142D02*
X136597676Y-94261904D01*
X136597676Y-94261904D02*
X136692914Y-94214285D01*
X136692914Y-94214285D02*
X136883390Y-94166666D01*
X136883390Y-94166666D02*
X137026247Y-94166666D01*
X137026247Y-94166666D02*
X137216723Y-94214285D01*
X137216723Y-94214285D02*
X137311961Y-94261904D01*
X137311961Y-94261904D02*
X137407200Y-94357142D01*
X137407200Y-94357142D02*
X137454819Y-94499999D01*
X137454819Y-94499999D02*
X137454819Y-94738094D01*
X136454819Y-93261904D02*
X136454819Y-93738094D01*
X136454819Y-93738094D02*
X136931009Y-93785713D01*
X136931009Y-93785713D02*
X136883390Y-93738094D01*
X136883390Y-93738094D02*
X136835771Y-93642856D01*
X136835771Y-93642856D02*
X136835771Y-93404761D01*
X136835771Y-93404761D02*
X136883390Y-93309523D01*
X136883390Y-93309523D02*
X136931009Y-93261904D01*
X136931009Y-93261904D02*
X137026247Y-93214285D01*
X137026247Y-93214285D02*
X137264342Y-93214285D01*
X137264342Y-93214285D02*
X137359580Y-93261904D01*
X137359580Y-93261904D02*
X137407200Y-93309523D01*
X137407200Y-93309523D02*
X137454819Y-93404761D01*
X137454819Y-93404761D02*
X137454819Y-93642856D01*
X137454819Y-93642856D02*
X137407200Y-93738094D01*
X137407200Y-93738094D02*
X137359580Y-93785713D01*
%TO.C,D3*%
X151511905Y-71954819D02*
X151511905Y-70954819D01*
X151511905Y-70954819D02*
X151750000Y-70954819D01*
X151750000Y-70954819D02*
X151892857Y-71002438D01*
X151892857Y-71002438D02*
X151988095Y-71097676D01*
X151988095Y-71097676D02*
X152035714Y-71192914D01*
X152035714Y-71192914D02*
X152083333Y-71383390D01*
X152083333Y-71383390D02*
X152083333Y-71526247D01*
X152083333Y-71526247D02*
X152035714Y-71716723D01*
X152035714Y-71716723D02*
X151988095Y-71811961D01*
X151988095Y-71811961D02*
X151892857Y-71907200D01*
X151892857Y-71907200D02*
X151750000Y-71954819D01*
X151750000Y-71954819D02*
X151511905Y-71954819D01*
X152416667Y-70954819D02*
X153035714Y-70954819D01*
X153035714Y-70954819D02*
X152702381Y-71335771D01*
X152702381Y-71335771D02*
X152845238Y-71335771D01*
X152845238Y-71335771D02*
X152940476Y-71383390D01*
X152940476Y-71383390D02*
X152988095Y-71431009D01*
X152988095Y-71431009D02*
X153035714Y-71526247D01*
X153035714Y-71526247D02*
X153035714Y-71764342D01*
X153035714Y-71764342D02*
X152988095Y-71859580D01*
X152988095Y-71859580D02*
X152940476Y-71907200D01*
X152940476Y-71907200D02*
X152845238Y-71954819D01*
X152845238Y-71954819D02*
X152559524Y-71954819D01*
X152559524Y-71954819D02*
X152464286Y-71907200D01*
X152464286Y-71907200D02*
X152416667Y-71859580D01*
%TO.C,Q1*%
X141842261Y-72100057D02*
X141747023Y-72052438D01*
X141747023Y-72052438D02*
X141651785Y-71957200D01*
X141651785Y-71957200D02*
X141508928Y-71814342D01*
X141508928Y-71814342D02*
X141413690Y-71766723D01*
X141413690Y-71766723D02*
X141318452Y-71766723D01*
X141366071Y-72004819D02*
X141270833Y-71957200D01*
X141270833Y-71957200D02*
X141175595Y-71861961D01*
X141175595Y-71861961D02*
X141127976Y-71671485D01*
X141127976Y-71671485D02*
X141127976Y-71338152D01*
X141127976Y-71338152D02*
X141175595Y-71147676D01*
X141175595Y-71147676D02*
X141270833Y-71052438D01*
X141270833Y-71052438D02*
X141366071Y-71004819D01*
X141366071Y-71004819D02*
X141556547Y-71004819D01*
X141556547Y-71004819D02*
X141651785Y-71052438D01*
X141651785Y-71052438D02*
X141747023Y-71147676D01*
X141747023Y-71147676D02*
X141794642Y-71338152D01*
X141794642Y-71338152D02*
X141794642Y-71671485D01*
X141794642Y-71671485D02*
X141747023Y-71861961D01*
X141747023Y-71861961D02*
X141651785Y-71957200D01*
X141651785Y-71957200D02*
X141556547Y-72004819D01*
X141556547Y-72004819D02*
X141366071Y-72004819D01*
X142747023Y-72004819D02*
X142175595Y-72004819D01*
X142461309Y-72004819D02*
X142461309Y-71004819D01*
X142461309Y-71004819D02*
X142366071Y-71147676D01*
X142366071Y-71147676D02*
X142270833Y-71242914D01*
X142270833Y-71242914D02*
X142175595Y-71290533D01*
%TO.C,D2*%
X145261905Y-71854819D02*
X145261905Y-70854819D01*
X145261905Y-70854819D02*
X145500000Y-70854819D01*
X145500000Y-70854819D02*
X145642857Y-70902438D01*
X145642857Y-70902438D02*
X145738095Y-70997676D01*
X145738095Y-70997676D02*
X145785714Y-71092914D01*
X145785714Y-71092914D02*
X145833333Y-71283390D01*
X145833333Y-71283390D02*
X145833333Y-71426247D01*
X145833333Y-71426247D02*
X145785714Y-71616723D01*
X145785714Y-71616723D02*
X145738095Y-71711961D01*
X145738095Y-71711961D02*
X145642857Y-71807200D01*
X145642857Y-71807200D02*
X145500000Y-71854819D01*
X145500000Y-71854819D02*
X145261905Y-71854819D01*
X146214286Y-70950057D02*
X146261905Y-70902438D01*
X146261905Y-70902438D02*
X146357143Y-70854819D01*
X146357143Y-70854819D02*
X146595238Y-70854819D01*
X146595238Y-70854819D02*
X146690476Y-70902438D01*
X146690476Y-70902438D02*
X146738095Y-70950057D01*
X146738095Y-70950057D02*
X146785714Y-71045295D01*
X146785714Y-71045295D02*
X146785714Y-71140533D01*
X146785714Y-71140533D02*
X146738095Y-71283390D01*
X146738095Y-71283390D02*
X146166667Y-71854819D01*
X146166667Y-71854819D02*
X146785714Y-71854819D01*
%TO.C,R8*%
X139104819Y-70166666D02*
X138628628Y-70499999D01*
X139104819Y-70738094D02*
X138104819Y-70738094D01*
X138104819Y-70738094D02*
X138104819Y-70357142D01*
X138104819Y-70357142D02*
X138152438Y-70261904D01*
X138152438Y-70261904D02*
X138200057Y-70214285D01*
X138200057Y-70214285D02*
X138295295Y-70166666D01*
X138295295Y-70166666D02*
X138438152Y-70166666D01*
X138438152Y-70166666D02*
X138533390Y-70214285D01*
X138533390Y-70214285D02*
X138581009Y-70261904D01*
X138581009Y-70261904D02*
X138628628Y-70357142D01*
X138628628Y-70357142D02*
X138628628Y-70738094D01*
X138533390Y-69595237D02*
X138485771Y-69690475D01*
X138485771Y-69690475D02*
X138438152Y-69738094D01*
X138438152Y-69738094D02*
X138342914Y-69785713D01*
X138342914Y-69785713D02*
X138295295Y-69785713D01*
X138295295Y-69785713D02*
X138200057Y-69738094D01*
X138200057Y-69738094D02*
X138152438Y-69690475D01*
X138152438Y-69690475D02*
X138104819Y-69595237D01*
X138104819Y-69595237D02*
X138104819Y-69404761D01*
X138104819Y-69404761D02*
X138152438Y-69309523D01*
X138152438Y-69309523D02*
X138200057Y-69261904D01*
X138200057Y-69261904D02*
X138295295Y-69214285D01*
X138295295Y-69214285D02*
X138342914Y-69214285D01*
X138342914Y-69214285D02*
X138438152Y-69261904D01*
X138438152Y-69261904D02*
X138485771Y-69309523D01*
X138485771Y-69309523D02*
X138533390Y-69404761D01*
X138533390Y-69404761D02*
X138533390Y-69595237D01*
X138533390Y-69595237D02*
X138581009Y-69690475D01*
X138581009Y-69690475D02*
X138628628Y-69738094D01*
X138628628Y-69738094D02*
X138723866Y-69785713D01*
X138723866Y-69785713D02*
X138914342Y-69785713D01*
X138914342Y-69785713D02*
X139009580Y-69738094D01*
X139009580Y-69738094D02*
X139057200Y-69690475D01*
X139057200Y-69690475D02*
X139104819Y-69595237D01*
X139104819Y-69595237D02*
X139104819Y-69404761D01*
X139104819Y-69404761D02*
X139057200Y-69309523D01*
X139057200Y-69309523D02*
X139009580Y-69261904D01*
X139009580Y-69261904D02*
X138914342Y-69214285D01*
X138914342Y-69214285D02*
X138723866Y-69214285D01*
X138723866Y-69214285D02*
X138628628Y-69261904D01*
X138628628Y-69261904D02*
X138581009Y-69309523D01*
X138581009Y-69309523D02*
X138533390Y-69404761D01*
%TO.C,J7*%
X154454819Y-64333333D02*
X155169104Y-64333333D01*
X155169104Y-64333333D02*
X155311961Y-64380952D01*
X155311961Y-64380952D02*
X155407200Y-64476190D01*
X155407200Y-64476190D02*
X155454819Y-64619047D01*
X155454819Y-64619047D02*
X155454819Y-64714285D01*
X154454819Y-63952380D02*
X154454819Y-63285714D01*
X154454819Y-63285714D02*
X155454819Y-63714285D01*
%TO.C,U2*%
X155375595Y-80004819D02*
X155375595Y-80814342D01*
X155375595Y-80814342D02*
X155423214Y-80909580D01*
X155423214Y-80909580D02*
X155470833Y-80957200D01*
X155470833Y-80957200D02*
X155566071Y-81004819D01*
X155566071Y-81004819D02*
X155756547Y-81004819D01*
X155756547Y-81004819D02*
X155851785Y-80957200D01*
X155851785Y-80957200D02*
X155899404Y-80909580D01*
X155899404Y-80909580D02*
X155947023Y-80814342D01*
X155947023Y-80814342D02*
X155947023Y-80004819D01*
X156375595Y-80100057D02*
X156423214Y-80052438D01*
X156423214Y-80052438D02*
X156518452Y-80004819D01*
X156518452Y-80004819D02*
X156756547Y-80004819D01*
X156756547Y-80004819D02*
X156851785Y-80052438D01*
X156851785Y-80052438D02*
X156899404Y-80100057D01*
X156899404Y-80100057D02*
X156947023Y-80195295D01*
X156947023Y-80195295D02*
X156947023Y-80290533D01*
X156947023Y-80290533D02*
X156899404Y-80433390D01*
X156899404Y-80433390D02*
X156327976Y-81004819D01*
X156327976Y-81004819D02*
X156947023Y-81004819D01*
%TO.C,J6*%
X136826666Y-106134819D02*
X136826666Y-106849104D01*
X136826666Y-106849104D02*
X136779047Y-106991961D01*
X136779047Y-106991961D02*
X136683809Y-107087200D01*
X136683809Y-107087200D02*
X136540952Y-107134819D01*
X136540952Y-107134819D02*
X136445714Y-107134819D01*
X137731428Y-106134819D02*
X137540952Y-106134819D01*
X137540952Y-106134819D02*
X137445714Y-106182438D01*
X137445714Y-106182438D02*
X137398095Y-106230057D01*
X137398095Y-106230057D02*
X137302857Y-106372914D01*
X137302857Y-106372914D02*
X137255238Y-106563390D01*
X137255238Y-106563390D02*
X137255238Y-106944342D01*
X137255238Y-106944342D02*
X137302857Y-107039580D01*
X137302857Y-107039580D02*
X137350476Y-107087200D01*
X137350476Y-107087200D02*
X137445714Y-107134819D01*
X137445714Y-107134819D02*
X137636190Y-107134819D01*
X137636190Y-107134819D02*
X137731428Y-107087200D01*
X137731428Y-107087200D02*
X137779047Y-107039580D01*
X137779047Y-107039580D02*
X137826666Y-106944342D01*
X137826666Y-106944342D02*
X137826666Y-106706247D01*
X137826666Y-106706247D02*
X137779047Y-106611009D01*
X137779047Y-106611009D02*
X137731428Y-106563390D01*
X137731428Y-106563390D02*
X137636190Y-106515771D01*
X137636190Y-106515771D02*
X137445714Y-106515771D01*
X137445714Y-106515771D02*
X137350476Y-106563390D01*
X137350476Y-106563390D02*
X137302857Y-106611009D01*
X137302857Y-106611009D02*
X137255238Y-106706247D01*
%TO.C,R9*%
X139104819Y-74166666D02*
X138628628Y-74499999D01*
X139104819Y-74738094D02*
X138104819Y-74738094D01*
X138104819Y-74738094D02*
X138104819Y-74357142D01*
X138104819Y-74357142D02*
X138152438Y-74261904D01*
X138152438Y-74261904D02*
X138200057Y-74214285D01*
X138200057Y-74214285D02*
X138295295Y-74166666D01*
X138295295Y-74166666D02*
X138438152Y-74166666D01*
X138438152Y-74166666D02*
X138533390Y-74214285D01*
X138533390Y-74214285D02*
X138581009Y-74261904D01*
X138581009Y-74261904D02*
X138628628Y-74357142D01*
X138628628Y-74357142D02*
X138628628Y-74738094D01*
X139104819Y-73690475D02*
X139104819Y-73499999D01*
X139104819Y-73499999D02*
X139057200Y-73404761D01*
X139057200Y-73404761D02*
X139009580Y-73357142D01*
X139009580Y-73357142D02*
X138866723Y-73261904D01*
X138866723Y-73261904D02*
X138676247Y-73214285D01*
X138676247Y-73214285D02*
X138295295Y-73214285D01*
X138295295Y-73214285D02*
X138200057Y-73261904D01*
X138200057Y-73261904D02*
X138152438Y-73309523D01*
X138152438Y-73309523D02*
X138104819Y-73404761D01*
X138104819Y-73404761D02*
X138104819Y-73595237D01*
X138104819Y-73595237D02*
X138152438Y-73690475D01*
X138152438Y-73690475D02*
X138200057Y-73738094D01*
X138200057Y-73738094D02*
X138295295Y-73785713D01*
X138295295Y-73785713D02*
X138533390Y-73785713D01*
X138533390Y-73785713D02*
X138628628Y-73738094D01*
X138628628Y-73738094D02*
X138676247Y-73690475D01*
X138676247Y-73690475D02*
X138723866Y-73595237D01*
X138723866Y-73595237D02*
X138723866Y-73404761D01*
X138723866Y-73404761D02*
X138676247Y-73309523D01*
X138676247Y-73309523D02*
X138628628Y-73261904D01*
X138628628Y-73261904D02*
X138533390Y-73214285D01*
%TO.C,C3*%
X143109580Y-91666666D02*
X143157200Y-91714285D01*
X143157200Y-91714285D02*
X143204819Y-91857142D01*
X143204819Y-91857142D02*
X143204819Y-91952380D01*
X143204819Y-91952380D02*
X143157200Y-92095237D01*
X143157200Y-92095237D02*
X143061961Y-92190475D01*
X143061961Y-92190475D02*
X142966723Y-92238094D01*
X142966723Y-92238094D02*
X142776247Y-92285713D01*
X142776247Y-92285713D02*
X142633390Y-92285713D01*
X142633390Y-92285713D02*
X142442914Y-92238094D01*
X142442914Y-92238094D02*
X142347676Y-92190475D01*
X142347676Y-92190475D02*
X142252438Y-92095237D01*
X142252438Y-92095237D02*
X142204819Y-91952380D01*
X142204819Y-91952380D02*
X142204819Y-91857142D01*
X142204819Y-91857142D02*
X142252438Y-91714285D01*
X142252438Y-91714285D02*
X142300057Y-91666666D01*
X142204819Y-91333332D02*
X142204819Y-90714285D01*
X142204819Y-90714285D02*
X142585771Y-91047618D01*
X142585771Y-91047618D02*
X142585771Y-90904761D01*
X142585771Y-90904761D02*
X142633390Y-90809523D01*
X142633390Y-90809523D02*
X142681009Y-90761904D01*
X142681009Y-90761904D02*
X142776247Y-90714285D01*
X142776247Y-90714285D02*
X143014342Y-90714285D01*
X143014342Y-90714285D02*
X143109580Y-90761904D01*
X143109580Y-90761904D02*
X143157200Y-90809523D01*
X143157200Y-90809523D02*
X143204819Y-90904761D01*
X143204819Y-90904761D02*
X143204819Y-91190475D01*
X143204819Y-91190475D02*
X143157200Y-91285713D01*
X143157200Y-91285713D02*
X143109580Y-91333332D01*
%TO.C,J3*%
X164766666Y-97254819D02*
X164766666Y-97969104D01*
X164766666Y-97969104D02*
X164719047Y-98111961D01*
X164719047Y-98111961D02*
X164623809Y-98207200D01*
X164623809Y-98207200D02*
X164480952Y-98254819D01*
X164480952Y-98254819D02*
X164385714Y-98254819D01*
X165147619Y-97254819D02*
X165766666Y-97254819D01*
X165766666Y-97254819D02*
X165433333Y-97635771D01*
X165433333Y-97635771D02*
X165576190Y-97635771D01*
X165576190Y-97635771D02*
X165671428Y-97683390D01*
X165671428Y-97683390D02*
X165719047Y-97731009D01*
X165719047Y-97731009D02*
X165766666Y-97826247D01*
X165766666Y-97826247D02*
X165766666Y-98064342D01*
X165766666Y-98064342D02*
X165719047Y-98159580D01*
X165719047Y-98159580D02*
X165671428Y-98207200D01*
X165671428Y-98207200D02*
X165576190Y-98254819D01*
X165576190Y-98254819D02*
X165290476Y-98254819D01*
X165290476Y-98254819D02*
X165195238Y-98207200D01*
X165195238Y-98207200D02*
X165147619Y-98159580D01*
%TO.C,J5*%
X152096666Y-105704819D02*
X152096666Y-106419104D01*
X152096666Y-106419104D02*
X152049047Y-106561961D01*
X152049047Y-106561961D02*
X151953809Y-106657200D01*
X151953809Y-106657200D02*
X151810952Y-106704819D01*
X151810952Y-106704819D02*
X151715714Y-106704819D01*
X153049047Y-105704819D02*
X152572857Y-105704819D01*
X152572857Y-105704819D02*
X152525238Y-106181009D01*
X152525238Y-106181009D02*
X152572857Y-106133390D01*
X152572857Y-106133390D02*
X152668095Y-106085771D01*
X152668095Y-106085771D02*
X152906190Y-106085771D01*
X152906190Y-106085771D02*
X153001428Y-106133390D01*
X153001428Y-106133390D02*
X153049047Y-106181009D01*
X153049047Y-106181009D02*
X153096666Y-106276247D01*
X153096666Y-106276247D02*
X153096666Y-106514342D01*
X153096666Y-106514342D02*
X153049047Y-106609580D01*
X153049047Y-106609580D02*
X153001428Y-106657200D01*
X153001428Y-106657200D02*
X152906190Y-106704819D01*
X152906190Y-106704819D02*
X152668095Y-106704819D01*
X152668095Y-106704819D02*
X152572857Y-106657200D01*
X152572857Y-106657200D02*
X152525238Y-106609580D01*
%TO.C,R5*%
X149833333Y-80104819D02*
X149500000Y-79628628D01*
X149261905Y-80104819D02*
X149261905Y-79104819D01*
X149261905Y-79104819D02*
X149642857Y-79104819D01*
X149642857Y-79104819D02*
X149738095Y-79152438D01*
X149738095Y-79152438D02*
X149785714Y-79200057D01*
X149785714Y-79200057D02*
X149833333Y-79295295D01*
X149833333Y-79295295D02*
X149833333Y-79438152D01*
X149833333Y-79438152D02*
X149785714Y-79533390D01*
X149785714Y-79533390D02*
X149738095Y-79581009D01*
X149738095Y-79581009D02*
X149642857Y-79628628D01*
X149642857Y-79628628D02*
X149261905Y-79628628D01*
X150738095Y-79104819D02*
X150261905Y-79104819D01*
X150261905Y-79104819D02*
X150214286Y-79581009D01*
X150214286Y-79581009D02*
X150261905Y-79533390D01*
X150261905Y-79533390D02*
X150357143Y-79485771D01*
X150357143Y-79485771D02*
X150595238Y-79485771D01*
X150595238Y-79485771D02*
X150690476Y-79533390D01*
X150690476Y-79533390D02*
X150738095Y-79581009D01*
X150738095Y-79581009D02*
X150785714Y-79676247D01*
X150785714Y-79676247D02*
X150785714Y-79914342D01*
X150785714Y-79914342D02*
X150738095Y-80009580D01*
X150738095Y-80009580D02*
X150690476Y-80057200D01*
X150690476Y-80057200D02*
X150595238Y-80104819D01*
X150595238Y-80104819D02*
X150357143Y-80104819D01*
X150357143Y-80104819D02*
X150261905Y-80057200D01*
X150261905Y-80057200D02*
X150214286Y-80009580D01*
%TO.C,R11*%
X139454819Y-91642857D02*
X138978628Y-91976190D01*
X139454819Y-92214285D02*
X138454819Y-92214285D01*
X138454819Y-92214285D02*
X138454819Y-91833333D01*
X138454819Y-91833333D02*
X138502438Y-91738095D01*
X138502438Y-91738095D02*
X138550057Y-91690476D01*
X138550057Y-91690476D02*
X138645295Y-91642857D01*
X138645295Y-91642857D02*
X138788152Y-91642857D01*
X138788152Y-91642857D02*
X138883390Y-91690476D01*
X138883390Y-91690476D02*
X138931009Y-91738095D01*
X138931009Y-91738095D02*
X138978628Y-91833333D01*
X138978628Y-91833333D02*
X138978628Y-92214285D01*
X139454819Y-90690476D02*
X139454819Y-91261904D01*
X139454819Y-90976190D02*
X138454819Y-90976190D01*
X138454819Y-90976190D02*
X138597676Y-91071428D01*
X138597676Y-91071428D02*
X138692914Y-91166666D01*
X138692914Y-91166666D02*
X138740533Y-91261904D01*
X139454819Y-89738095D02*
X139454819Y-90309523D01*
X139454819Y-90023809D02*
X138454819Y-90023809D01*
X138454819Y-90023809D02*
X138597676Y-90119047D01*
X138597676Y-90119047D02*
X138692914Y-90214285D01*
X138692914Y-90214285D02*
X138740533Y-90309523D01*
%TO.C,R12*%
X154607142Y-77704819D02*
X154273809Y-77228628D01*
X154035714Y-77704819D02*
X154035714Y-76704819D01*
X154035714Y-76704819D02*
X154416666Y-76704819D01*
X154416666Y-76704819D02*
X154511904Y-76752438D01*
X154511904Y-76752438D02*
X154559523Y-76800057D01*
X154559523Y-76800057D02*
X154607142Y-76895295D01*
X154607142Y-76895295D02*
X154607142Y-77038152D01*
X154607142Y-77038152D02*
X154559523Y-77133390D01*
X154559523Y-77133390D02*
X154511904Y-77181009D01*
X154511904Y-77181009D02*
X154416666Y-77228628D01*
X154416666Y-77228628D02*
X154035714Y-77228628D01*
X155559523Y-77704819D02*
X154988095Y-77704819D01*
X155273809Y-77704819D02*
X155273809Y-76704819D01*
X155273809Y-76704819D02*
X155178571Y-76847676D01*
X155178571Y-76847676D02*
X155083333Y-76942914D01*
X155083333Y-76942914D02*
X154988095Y-76990533D01*
X155940476Y-76800057D02*
X155988095Y-76752438D01*
X155988095Y-76752438D02*
X156083333Y-76704819D01*
X156083333Y-76704819D02*
X156321428Y-76704819D01*
X156321428Y-76704819D02*
X156416666Y-76752438D01*
X156416666Y-76752438D02*
X156464285Y-76800057D01*
X156464285Y-76800057D02*
X156511904Y-76895295D01*
X156511904Y-76895295D02*
X156511904Y-76990533D01*
X156511904Y-76990533D02*
X156464285Y-77133390D01*
X156464285Y-77133390D02*
X155892857Y-77704819D01*
X155892857Y-77704819D02*
X156511904Y-77704819D01*
%TO.C,D6*%
X140399405Y-67054819D02*
X140399405Y-66054819D01*
X140399405Y-66054819D02*
X140637500Y-66054819D01*
X140637500Y-66054819D02*
X140780357Y-66102438D01*
X140780357Y-66102438D02*
X140875595Y-66197676D01*
X140875595Y-66197676D02*
X140923214Y-66292914D01*
X140923214Y-66292914D02*
X140970833Y-66483390D01*
X140970833Y-66483390D02*
X140970833Y-66626247D01*
X140970833Y-66626247D02*
X140923214Y-66816723D01*
X140923214Y-66816723D02*
X140875595Y-66911961D01*
X140875595Y-66911961D02*
X140780357Y-67007200D01*
X140780357Y-67007200D02*
X140637500Y-67054819D01*
X140637500Y-67054819D02*
X140399405Y-67054819D01*
X141827976Y-66054819D02*
X141637500Y-66054819D01*
X141637500Y-66054819D02*
X141542262Y-66102438D01*
X141542262Y-66102438D02*
X141494643Y-66150057D01*
X141494643Y-66150057D02*
X141399405Y-66292914D01*
X141399405Y-66292914D02*
X141351786Y-66483390D01*
X141351786Y-66483390D02*
X141351786Y-66864342D01*
X141351786Y-66864342D02*
X141399405Y-66959580D01*
X141399405Y-66959580D02*
X141447024Y-67007200D01*
X141447024Y-67007200D02*
X141542262Y-67054819D01*
X141542262Y-67054819D02*
X141732738Y-67054819D01*
X141732738Y-67054819D02*
X141827976Y-67007200D01*
X141827976Y-67007200D02*
X141875595Y-66959580D01*
X141875595Y-66959580D02*
X141923214Y-66864342D01*
X141923214Y-66864342D02*
X141923214Y-66626247D01*
X141923214Y-66626247D02*
X141875595Y-66531009D01*
X141875595Y-66531009D02*
X141827976Y-66483390D01*
X141827976Y-66483390D02*
X141732738Y-66435771D01*
X141732738Y-66435771D02*
X141542262Y-66435771D01*
X141542262Y-66435771D02*
X141447024Y-66483390D01*
X141447024Y-66483390D02*
X141399405Y-66531009D01*
X141399405Y-66531009D02*
X141351786Y-66626247D01*
%TO.C,R1*%
X133833333Y-87599819D02*
X133500000Y-87123628D01*
X133261905Y-87599819D02*
X133261905Y-86599819D01*
X133261905Y-86599819D02*
X133642857Y-86599819D01*
X133642857Y-86599819D02*
X133738095Y-86647438D01*
X133738095Y-86647438D02*
X133785714Y-86695057D01*
X133785714Y-86695057D02*
X133833333Y-86790295D01*
X133833333Y-86790295D02*
X133833333Y-86933152D01*
X133833333Y-86933152D02*
X133785714Y-87028390D01*
X133785714Y-87028390D02*
X133738095Y-87076009D01*
X133738095Y-87076009D02*
X133642857Y-87123628D01*
X133642857Y-87123628D02*
X133261905Y-87123628D01*
X134785714Y-87599819D02*
X134214286Y-87599819D01*
X134500000Y-87599819D02*
X134500000Y-86599819D01*
X134500000Y-86599819D02*
X134404762Y-86742676D01*
X134404762Y-86742676D02*
X134309524Y-86837914D01*
X134309524Y-86837914D02*
X134214286Y-86885533D01*
%TO.C,R2*%
X153833333Y-90854819D02*
X153500000Y-90378628D01*
X153261905Y-90854819D02*
X153261905Y-89854819D01*
X153261905Y-89854819D02*
X153642857Y-89854819D01*
X153642857Y-89854819D02*
X153738095Y-89902438D01*
X153738095Y-89902438D02*
X153785714Y-89950057D01*
X153785714Y-89950057D02*
X153833333Y-90045295D01*
X153833333Y-90045295D02*
X153833333Y-90188152D01*
X153833333Y-90188152D02*
X153785714Y-90283390D01*
X153785714Y-90283390D02*
X153738095Y-90331009D01*
X153738095Y-90331009D02*
X153642857Y-90378628D01*
X153642857Y-90378628D02*
X153261905Y-90378628D01*
X154214286Y-89950057D02*
X154261905Y-89902438D01*
X154261905Y-89902438D02*
X154357143Y-89854819D01*
X154357143Y-89854819D02*
X154595238Y-89854819D01*
X154595238Y-89854819D02*
X154690476Y-89902438D01*
X154690476Y-89902438D02*
X154738095Y-89950057D01*
X154738095Y-89950057D02*
X154785714Y-90045295D01*
X154785714Y-90045295D02*
X154785714Y-90140533D01*
X154785714Y-90140533D02*
X154738095Y-90283390D01*
X154738095Y-90283390D02*
X154166667Y-90854819D01*
X154166667Y-90854819D02*
X154785714Y-90854819D01*
%TO.C,R3*%
X153833333Y-97104819D02*
X153500000Y-96628628D01*
X153261905Y-97104819D02*
X153261905Y-96104819D01*
X153261905Y-96104819D02*
X153642857Y-96104819D01*
X153642857Y-96104819D02*
X153738095Y-96152438D01*
X153738095Y-96152438D02*
X153785714Y-96200057D01*
X153785714Y-96200057D02*
X153833333Y-96295295D01*
X153833333Y-96295295D02*
X153833333Y-96438152D01*
X153833333Y-96438152D02*
X153785714Y-96533390D01*
X153785714Y-96533390D02*
X153738095Y-96581009D01*
X153738095Y-96581009D02*
X153642857Y-96628628D01*
X153642857Y-96628628D02*
X153261905Y-96628628D01*
X154166667Y-96104819D02*
X154785714Y-96104819D01*
X154785714Y-96104819D02*
X154452381Y-96485771D01*
X154452381Y-96485771D02*
X154595238Y-96485771D01*
X154595238Y-96485771D02*
X154690476Y-96533390D01*
X154690476Y-96533390D02*
X154738095Y-96581009D01*
X154738095Y-96581009D02*
X154785714Y-96676247D01*
X154785714Y-96676247D02*
X154785714Y-96914342D01*
X154785714Y-96914342D02*
X154738095Y-97009580D01*
X154738095Y-97009580D02*
X154690476Y-97057200D01*
X154690476Y-97057200D02*
X154595238Y-97104819D01*
X154595238Y-97104819D02*
X154309524Y-97104819D01*
X154309524Y-97104819D02*
X154214286Y-97057200D01*
X154214286Y-97057200D02*
X154166667Y-97009580D01*
%TO.C,J1*%
X126666666Y-59154819D02*
X126666666Y-59869104D01*
X126666666Y-59869104D02*
X126619047Y-60011961D01*
X126619047Y-60011961D02*
X126523809Y-60107200D01*
X126523809Y-60107200D02*
X126380952Y-60154819D01*
X126380952Y-60154819D02*
X126285714Y-60154819D01*
X127666666Y-60154819D02*
X127095238Y-60154819D01*
X127380952Y-60154819D02*
X127380952Y-59154819D01*
X127380952Y-59154819D02*
X127285714Y-59297676D01*
X127285714Y-59297676D02*
X127190476Y-59392914D01*
X127190476Y-59392914D02*
X127095238Y-59440533D01*
%TO.C,R7*%
X152804819Y-74166666D02*
X152328628Y-74499999D01*
X152804819Y-74738094D02*
X151804819Y-74738094D01*
X151804819Y-74738094D02*
X151804819Y-74357142D01*
X151804819Y-74357142D02*
X151852438Y-74261904D01*
X151852438Y-74261904D02*
X151900057Y-74214285D01*
X151900057Y-74214285D02*
X151995295Y-74166666D01*
X151995295Y-74166666D02*
X152138152Y-74166666D01*
X152138152Y-74166666D02*
X152233390Y-74214285D01*
X152233390Y-74214285D02*
X152281009Y-74261904D01*
X152281009Y-74261904D02*
X152328628Y-74357142D01*
X152328628Y-74357142D02*
X152328628Y-74738094D01*
X151804819Y-73833332D02*
X151804819Y-73166666D01*
X151804819Y-73166666D02*
X152804819Y-73595237D01*
D11*
%TO.C,R10*%
X129265000Y-87227064D02*
X129265000Y-86772936D01*
X130735000Y-87227064D02*
X130735000Y-86772936D01*
%TO.C,Q3*%
X130937500Y-95560000D02*
X132612500Y-95560000D01*
X130937500Y-95560000D02*
X130287500Y-95560000D01*
X130937500Y-92440000D02*
X131587500Y-92440000D01*
X130937500Y-92440000D02*
X130287500Y-92440000D01*
%TO.C,Q2*%
X149937500Y-72490000D02*
X148262500Y-72490000D01*
X149937500Y-72490000D02*
X150587500Y-72490000D01*
X149937500Y-75610000D02*
X149287500Y-75610000D01*
X149937500Y-75610000D02*
X150587500Y-75610000D01*
%TO.C,C2*%
X145735000Y-93738748D02*
X145735000Y-94261252D01*
X144265000Y-93738748D02*
X144265000Y-94261252D01*
%TO.C,D4*%
X135685000Y-89960000D02*
X135685000Y-88040000D01*
X135685000Y-88040000D02*
X133000000Y-88040000D01*
X133000000Y-89960000D02*
X135685000Y-89960000D01*
%TO.C,R4*%
X144772936Y-77265000D02*
X145227064Y-77265000D01*
X144772936Y-78735000D02*
X145227064Y-78735000D01*
%TO.C,D1*%
X149000000Y-91240000D02*
X147200000Y-91240000D01*
X149000000Y-91240000D02*
X149800000Y-91240000D01*
X149000000Y-94360000D02*
X148200000Y-94360000D01*
X149000000Y-94360000D02*
X149800000Y-94360000D01*
%TO.C,C4*%
X156486252Y-87415000D02*
X155963748Y-87415000D01*
X156486252Y-85945000D02*
X155963748Y-85945000D01*
%TO.C,R6*%
X145265000Y-74227064D02*
X145265000Y-73772936D01*
X146735000Y-74227064D02*
X146735000Y-73772936D01*
%TO.C,U1*%
X141425000Y-82535000D02*
X137975000Y-82535000D01*
X141425000Y-82535000D02*
X143375000Y-82535000D01*
X141425000Y-87655000D02*
X139475000Y-87655000D01*
X141425000Y-87655000D02*
X143375000Y-87655000D01*
%TO.C,C1*%
X147738748Y-82760000D02*
X148261252Y-82760000D01*
X147738748Y-84230000D02*
X148261252Y-84230000D01*
%TO.C,R13*%
X159414564Y-79635000D02*
X158960436Y-79635000D01*
X159414564Y-78165000D02*
X158960436Y-78165000D01*
%TO.C,D5*%
X136000000Y-91640000D02*
X134000000Y-91640000D01*
X136000000Y-91640000D02*
X136000000Y-95650000D01*
X134000000Y-91640000D02*
X134000000Y-95650000D01*
%TO.C,D3*%
X150862500Y-70610000D02*
X152662500Y-70610000D01*
X150862500Y-70610000D02*
X150062500Y-70610000D01*
X150862500Y-67490000D02*
X151662500Y-67490000D01*
X150862500Y-67490000D02*
X150062500Y-67490000D01*
%TO.C,Q1*%
X141937500Y-72390000D02*
X140262500Y-72390000D01*
X141937500Y-72390000D02*
X142587500Y-72390000D01*
X141937500Y-75510000D02*
X141287500Y-75510000D01*
X141937500Y-75510000D02*
X142587500Y-75510000D01*
%TO.C,D2*%
X146000000Y-70560000D02*
X147800000Y-70560000D01*
X146000000Y-70560000D02*
X145200000Y-70560000D01*
X146000000Y-67440000D02*
X146800000Y-67440000D01*
X146000000Y-67440000D02*
X145200000Y-67440000D01*
%TO.C,R8*%
X137735000Y-69772936D02*
X137735000Y-70227064D01*
X136265000Y-69772936D02*
X136265000Y-70227064D01*
%TO.C,J7*%
X153730000Y-62170000D02*
X153730000Y-63500000D01*
X152400000Y-62170000D02*
X153730000Y-62170000D01*
X151130000Y-62170000D02*
X140910000Y-62170000D01*
X151130000Y-62170000D02*
X151130000Y-64830000D01*
X140910000Y-62170000D02*
X140910000Y-64830000D01*
X151130000Y-64830000D02*
X140910000Y-64830000D01*
%TO.C,U2*%
X156137500Y-81390000D02*
X154337500Y-81390000D01*
X156137500Y-81390000D02*
X156937500Y-81390000D01*
X156137500Y-84510000D02*
X155337500Y-84510000D01*
X156137500Y-84510000D02*
X156937500Y-84510000D01*
%TO.C,J6*%
X142240000Y-105410000D02*
X142240000Y-97790000D01*
X142240000Y-97790000D02*
X132080000Y-97790000D01*
X132080000Y-105410000D02*
X142240000Y-105410000D01*
X132080000Y-99060000D02*
X142240000Y-99060000D01*
X132080000Y-97790000D02*
X132080000Y-105410000D01*
%TO.C,R9*%
X137735000Y-73772936D02*
X137735000Y-74227064D01*
X136265000Y-73772936D02*
X136265000Y-74227064D01*
%TO.C,C3*%
X142735000Y-93788748D02*
X142735000Y-94311252D01*
X141265000Y-93788748D02*
X141265000Y-94311252D01*
%TO.C,J5*%
X160020000Y-105410000D02*
X144780000Y-105410000D01*
X160020000Y-99060000D02*
X144780000Y-99060000D01*
X160020000Y-97790000D02*
X160020000Y-105410000D01*
X160020000Y-97790000D02*
X144780000Y-97790000D01*
X144780000Y-97790000D02*
X144780000Y-105410000D01*
%TO.C,R5*%
X150227064Y-78735000D02*
X149772936Y-78735000D01*
X150227064Y-77265000D02*
X149772936Y-77265000D01*
%TO.C,R11*%
X138265000Y-94227064D02*
X138265000Y-93772936D01*
X139735000Y-94227064D02*
X139735000Y-93772936D01*
%TO.C,R12*%
X155414564Y-79635000D02*
X154960436Y-79635000D01*
X155414564Y-78165000D02*
X154960436Y-78165000D01*
%TO.C,D6*%
X141137500Y-67440000D02*
X139337500Y-67440000D01*
X141137500Y-67440000D02*
X141937500Y-67440000D01*
X141137500Y-70560000D02*
X140337500Y-70560000D01*
X141137500Y-70560000D02*
X141937500Y-70560000D01*
%TO.C,R1*%
X134227064Y-86230000D02*
X133772936Y-86230000D01*
X134227064Y-84760000D02*
X133772936Y-84760000D01*
%TO.C,R2*%
X153772936Y-91315000D02*
X154227064Y-91315000D01*
X153772936Y-92785000D02*
X154227064Y-92785000D01*
%TO.C,R3*%
X154227064Y-95735000D02*
X153772936Y-95735000D01*
X154227064Y-94265000D02*
X153772936Y-94265000D01*
%TO.C,R7*%
X153265000Y-74227064D02*
X153265000Y-73772936D01*
X154735000Y-74227064D02*
X154735000Y-73772936D01*
%TD*%
M02*
