%TF.GenerationSoftware,KiCad,Pcbnew,7.0.5*%
%TF.CreationDate,2023-09-16T15:22:35-07:00*%
%TF.ProjectId,PulseCounterI2C,50756c73-6543-46f7-956e-746572493243,rev?*%
%TF.SameCoordinates,Original*%
%TF.FileFunction,Copper,L1,Top*%
%TF.FilePolarity,Positive*%
%FSLAX46Y46*%
G04 Gerber Fmt 4.6, Leading zero omitted, Abs format (unit mm)*
G04 Created by KiCad (PCBNEW 7.0.5) date 2023-09-16 15:22:35*
%MOMM*%
%LPD*%
G01*
G04 APERTURE LIST*
G04 Aperture macros list*
%AMRoundRect*
0 Rectangle with rounded corners*
0 $1 Rounding radius*
0 $2 $3 $4 $5 $6 $7 $8 $9 X,Y pos of 4 corners*
0 Add a 4 corners polygon primitive as box body*
4,1,4,$2,$3,$4,$5,$6,$7,$8,$9,$2,$3,0*
0 Add four circle primitives for the rounded corners*
1,1,$1+$1,$2,$3*
1,1,$1+$1,$4,$5*
1,1,$1+$1,$6,$7*
1,1,$1+$1,$8,$9*
0 Add four rect primitives between the rounded corners*
20,1,$1+$1,$2,$3,$4,$5,0*
20,1,$1+$1,$4,$5,$6,$7,0*
20,1,$1+$1,$6,$7,$8,$9,0*
20,1,$1+$1,$8,$9,$2,$3,0*%
G04 Aperture macros list end*
%TA.AperFunction,SMDPad,CuDef*%
%ADD10RoundRect,0.250000X0.450000X-0.262500X0.450000X0.262500X-0.450000X0.262500X-0.450000X-0.262500X0*%
%TD*%
%TA.AperFunction,SMDPad,CuDef*%
%ADD11RoundRect,0.150000X0.587500X0.150000X-0.587500X0.150000X-0.587500X-0.150000X0.587500X-0.150000X0*%
%TD*%
%TA.AperFunction,SMDPad,CuDef*%
%ADD12RoundRect,0.150000X-0.587500X-0.150000X0.587500X-0.150000X0.587500X0.150000X-0.587500X0.150000X0*%
%TD*%
%TA.AperFunction,SMDPad,CuDef*%
%ADD13RoundRect,0.250000X-0.475000X0.250000X-0.475000X-0.250000X0.475000X-0.250000X0.475000X0.250000X0*%
%TD*%
%TA.AperFunction,SMDPad,CuDef*%
%ADD14RoundRect,0.243750X0.243750X0.456250X-0.243750X0.456250X-0.243750X-0.456250X0.243750X-0.456250X0*%
%TD*%
%TA.AperFunction,SMDPad,CuDef*%
%ADD15RoundRect,0.250000X-0.262500X-0.450000X0.262500X-0.450000X0.262500X0.450000X-0.262500X0.450000X0*%
%TD*%
%TA.AperFunction,ComponentPad*%
%ADD16C,5.600000*%
%TD*%
%TA.AperFunction,SMDPad,CuDef*%
%ADD17RoundRect,0.150000X-0.512500X-0.150000X0.512500X-0.150000X0.512500X0.150000X-0.512500X0.150000X0*%
%TD*%
%TA.AperFunction,SMDPad,CuDef*%
%ADD18RoundRect,0.250000X0.250000X0.475000X-0.250000X0.475000X-0.250000X-0.475000X0.250000X-0.475000X0*%
%TD*%
%TA.AperFunction,SMDPad,CuDef*%
%ADD19RoundRect,0.150000X-0.725000X-0.150000X0.725000X-0.150000X0.725000X0.150000X-0.725000X0.150000X0*%
%TD*%
%TA.AperFunction,SMDPad,CuDef*%
%ADD20RoundRect,0.250000X-0.250000X-0.475000X0.250000X-0.475000X0.250000X0.475000X-0.250000X0.475000X0*%
%TD*%
%TA.AperFunction,SMDPad,CuDef*%
%ADD21RoundRect,0.250000X0.262500X0.450000X-0.262500X0.450000X-0.262500X-0.450000X0.262500X-0.450000X0*%
%TD*%
%TA.AperFunction,SMDPad,CuDef*%
%ADD22RoundRect,0.225000X-0.375000X0.225000X-0.375000X-0.225000X0.375000X-0.225000X0.375000X0.225000X0*%
%TD*%
%TA.AperFunction,SMDPad,CuDef*%
%ADD23RoundRect,0.150000X0.512500X0.150000X-0.512500X0.150000X-0.512500X-0.150000X0.512500X-0.150000X0*%
%TD*%
%TA.AperFunction,SMDPad,CuDef*%
%ADD24RoundRect,0.250000X-0.450000X0.262500X-0.450000X-0.262500X0.450000X-0.262500X0.450000X0.262500X0*%
%TD*%
%TA.AperFunction,ComponentPad*%
%ADD25R,1.700000X1.700000*%
%TD*%
%TA.AperFunction,ComponentPad*%
%ADD26O,1.700000X1.700000*%
%TD*%
%TA.AperFunction,ComponentPad*%
%ADD27R,3.000000X3.000000*%
%TD*%
%TA.AperFunction,ComponentPad*%
%ADD28C,3.000000*%
%TD*%
%TA.AperFunction,ViaPad*%
%ADD29C,0.700000*%
%TD*%
%TA.AperFunction,Conductor*%
%ADD30C,1.000000*%
%TD*%
%TA.AperFunction,Conductor*%
%ADD31C,0.500000*%
%TD*%
G04 APERTURE END LIST*
D10*
%TO.P,R10,1*%
%TO.N,Net-(D4-A)*%
X130000000Y-87912500D03*
%TO.P,R10,2*%
%TO.N,+5V*%
X130000000Y-86087500D03*
%TD*%
D11*
%TO.P,Q3,1,G*%
%TO.N,Net-(D5-A)*%
X131875000Y-94950000D03*
%TO.P,Q3,2,S*%
%TO.N,+5V*%
X131875000Y-93050000D03*
%TO.P,Q3,3,D*%
%TO.N,Net-(J6-Pin_2)*%
X130000000Y-94000000D03*
%TD*%
D12*
%TO.P,Q2,1,G*%
%TO.N,/I2CConnector/VI2C*%
X149000000Y-73100000D03*
%TO.P,Q2,2,S*%
%TO.N,Net-(D3-A)*%
X149000000Y-75000000D03*
%TO.P,Q2,3,D*%
%TO.N,/EEPROMI2C/SDA*%
X150875000Y-74050000D03*
%TD*%
D13*
%TO.P,C2,1*%
%TO.N,+5V*%
X145000000Y-93050000D03*
%TO.P,C2,2*%
%TO.N,GND*%
X145000000Y-94950000D03*
%TD*%
D14*
%TO.P,D4,1,K*%
%TO.N,GND*%
X134937500Y-89000000D03*
%TO.P,D4,2,A*%
%TO.N,Net-(D4-A)*%
X133062500Y-89000000D03*
%TD*%
D15*
%TO.P,R4,1*%
%TO.N,/EEPROMI2C/SCL*%
X144087500Y-78000000D03*
%TO.P,R4,2*%
%TO.N,+5V*%
X145912500Y-78000000D03*
%TD*%
D16*
%TO.P,J2,1,Pin_1*%
%TO.N,GND*%
X165100000Y-63500000D03*
%TD*%
D17*
%TO.P,D1,1,K*%
%TO.N,GND*%
X147862500Y-91850000D03*
%TO.P,D1,2,K*%
%TO.N,+5V*%
X147862500Y-93750000D03*
%TO.P,D1,3,A*%
%TO.N,/PCF8593/Pulse*%
X150137500Y-92800000D03*
%TD*%
D18*
%TO.P,C4,1*%
%TO.N,+5V*%
X157175000Y-86680000D03*
%TO.P,C4,2*%
%TO.N,GND*%
X155275000Y-86680000D03*
%TD*%
D16*
%TO.P,J4,1,Pin_1*%
%TO.N,GND*%
X127000000Y-101600000D03*
%TD*%
D10*
%TO.P,R6,1*%
%TO.N,Net-(D2-A)*%
X146000000Y-74912500D03*
%TO.P,R6,2*%
%TO.N,/I2CConnector/VI2C*%
X146000000Y-73087500D03*
%TD*%
D19*
%TO.P,U1,1,OSCI*%
%TO.N,/PCF8593/Pulse*%
X138850000Y-83190000D03*
%TO.P,U1,2,OSCO*%
%TO.N,unconnected-(U1-OSCO-Pad2)*%
X138850000Y-84460000D03*
%TO.P,U1,3,~{RESET}*%
%TO.N,Net-(U1-~{RESET})*%
X138850000Y-85730000D03*
%TO.P,U1,4,V_{SS}*%
%TO.N,GND*%
X138850000Y-87000000D03*
%TO.P,U1,5,SDA*%
%TO.N,/EEPROMI2C/SDA*%
X144000000Y-87000000D03*
%TO.P,U1,6,SCL*%
%TO.N,/EEPROMI2C/SCL*%
X144000000Y-85730000D03*
%TO.P,U1,7,~{INT}*%
%TO.N,/I2CConnector/INT*%
X144000000Y-84460000D03*
%TO.P,U1,8,V_{DD}*%
%TO.N,+5V*%
X144000000Y-83190000D03*
%TD*%
D20*
%TO.P,C1,1*%
%TO.N,+5V*%
X147050000Y-83495000D03*
%TO.P,C1,2*%
%TO.N,GND*%
X148950000Y-83495000D03*
%TD*%
D21*
%TO.P,R13,1*%
%TO.N,GND*%
X160100000Y-78900000D03*
%TO.P,R13,2*%
%TO.N,Net-(U2-WP)*%
X158275000Y-78900000D03*
%TD*%
D22*
%TO.P,D5,1,K*%
%TO.N,+5V*%
X135000000Y-92350000D03*
%TO.P,D5,2,A*%
%TO.N,Net-(D5-A)*%
X135000000Y-95650000D03*
%TD*%
D23*
%TO.P,D3,1,K*%
%TO.N,GND*%
X152000000Y-70000000D03*
%TO.P,D3,2,K*%
%TO.N,+5V*%
X152000000Y-68100000D03*
%TO.P,D3,3,A*%
%TO.N,Net-(D3-A)*%
X149725000Y-69050000D03*
%TD*%
D12*
%TO.P,Q1,1,G*%
%TO.N,/I2CConnector/VI2C*%
X141000000Y-73000000D03*
%TO.P,Q1,2,S*%
%TO.N,Net-(D2-A)*%
X141000000Y-74900000D03*
%TO.P,Q1,3,D*%
%TO.N,/EEPROMI2C/SCL*%
X142875000Y-73950000D03*
%TD*%
D23*
%TO.P,D2,1,K*%
%TO.N,GND*%
X147137500Y-69950000D03*
%TO.P,D2,2,K*%
%TO.N,+5V*%
X147137500Y-68050000D03*
%TO.P,D2,3,A*%
%TO.N,Net-(D2-A)*%
X144862500Y-69000000D03*
%TD*%
D24*
%TO.P,R8,1*%
%TO.N,/I2CConnector/INT*%
X137000000Y-69087500D03*
%TO.P,R8,2*%
%TO.N,/I2CConnector/VI2C*%
X137000000Y-70912500D03*
%TD*%
D25*
%TO.P,J7,1,Pin_1*%
%TO.N,GND*%
X152400000Y-63500000D03*
D26*
%TO.P,J7,2,Pin_2*%
%TO.N,/I2CConnector/VI2C*%
X149860000Y-63500000D03*
%TO.P,J7,3,Pin_3*%
%TO.N,Net-(D3-A)*%
X147320000Y-63500000D03*
%TO.P,J7,4,Pin_4*%
%TO.N,Net-(D2-A)*%
X144780000Y-63500000D03*
%TO.P,J7,5,Pin_5*%
%TO.N,/I2CConnector/INT*%
X142240000Y-63500000D03*
%TD*%
D17*
%TO.P,U2,1,SCL*%
%TO.N,/EEPROMI2C/SCL*%
X155000000Y-82000000D03*
%TO.P,U2,2,GND*%
%TO.N,GND*%
X155000000Y-82950000D03*
%TO.P,U2,3,SDA*%
%TO.N,/EEPROMI2C/SDA*%
X155000000Y-83900000D03*
%TO.P,U2,4,V_{CC}*%
%TO.N,+5V*%
X157275000Y-83900000D03*
%TO.P,U2,5,WP*%
%TO.N,Net-(U2-WP)*%
X157275000Y-82000000D03*
%TD*%
D27*
%TO.P,J6,1,Pin_1*%
%TO.N,GND*%
X139700000Y-101600000D03*
D28*
%TO.P,J6,2,Pin_2*%
%TO.N,Net-(J6-Pin_2)*%
X134620000Y-101600000D03*
%TD*%
D24*
%TO.P,R9,1*%
%TO.N,/I2CConnector/VI2C*%
X137000000Y-73087500D03*
%TO.P,R9,2*%
%TO.N,Net-(J6-Pin_2)*%
X137000000Y-74912500D03*
%TD*%
D13*
%TO.P,C3,1*%
%TO.N,+5V*%
X142000000Y-93100000D03*
%TO.P,C3,2*%
%TO.N,GND*%
X142000000Y-95000000D03*
%TD*%
D16*
%TO.P,J3,1,Pin_1*%
%TO.N,GND*%
X165100000Y-101600000D03*
%TD*%
D27*
%TO.P,J5,1,Pin_1*%
%TO.N,GND*%
X157480000Y-101600000D03*
D28*
%TO.P,J5,2,Pin_2*%
%TO.N,Net-(J5-Pin_2)*%
X152400000Y-101600000D03*
%TO.P,J5,3,Pin_3*%
%TO.N,+5V*%
X147320000Y-101600000D03*
%TD*%
D21*
%TO.P,R5,1*%
%TO.N,/EEPROMI2C/SDA*%
X150912500Y-78000000D03*
%TO.P,R5,2*%
%TO.N,+5V*%
X149087500Y-78000000D03*
%TD*%
D10*
%TO.P,R11,1*%
%TO.N,GND*%
X139000000Y-94912500D03*
%TO.P,R11,2*%
%TO.N,Net-(D5-A)*%
X139000000Y-93087500D03*
%TD*%
D21*
%TO.P,R12,1*%
%TO.N,Net-(U2-WP)*%
X156100000Y-78900000D03*
%TO.P,R12,2*%
%TO.N,+5V*%
X154275000Y-78900000D03*
%TD*%
D17*
%TO.P,D6,1,K*%
%TO.N,GND*%
X140000000Y-68050000D03*
%TO.P,D6,2,K*%
%TO.N,/I2CConnector/VI2C*%
X140000000Y-69950000D03*
%TO.P,D6,3,A*%
%TO.N,/I2CConnector/INT*%
X142275000Y-69000000D03*
%TD*%
D21*
%TO.P,R1,1*%
%TO.N,Net-(U1-~{RESET})*%
X134912500Y-85495000D03*
%TO.P,R1,2*%
%TO.N,+5V*%
X133087500Y-85495000D03*
%TD*%
D15*
%TO.P,R2,1*%
%TO.N,/PCF8593/Pulse*%
X153087500Y-92050000D03*
%TO.P,R2,2*%
%TO.N,GND*%
X154912500Y-92050000D03*
%TD*%
D21*
%TO.P,R3,1*%
%TO.N,Net-(J5-Pin_2)*%
X154912500Y-95000000D03*
%TO.P,R3,2*%
%TO.N,/PCF8593/Pulse*%
X153087500Y-95000000D03*
%TD*%
D16*
%TO.P,J1,1,Pin_1*%
%TO.N,GND*%
X127000000Y-63500000D03*
%TD*%
D10*
%TO.P,R7,1*%
%TO.N,Net-(D3-A)*%
X154000000Y-74912500D03*
%TO.P,R7,2*%
%TO.N,/I2CConnector/VI2C*%
X154000000Y-73087500D03*
%TD*%
D29*
%TO.N,GND*%
X149000000Y-82000000D03*
X150500000Y-70500000D03*
X144000000Y-82000000D03*
X143500000Y-95000000D03*
X146000000Y-91000000D03*
X140500000Y-71500000D03*
X134000000Y-81000000D03*
X133500000Y-73500000D03*
X128000000Y-92000000D03*
X128000000Y-96000000D03*
X146500000Y-66500000D03*
X152750000Y-83250000D03*
X128500000Y-84000000D03*
X141000000Y-77000000D03*
X155000000Y-80500000D03*
X153250000Y-86500000D03*
X139000000Y-66500000D03*
X143500000Y-66500000D03*
X152500000Y-74000000D03*
X135000000Y-90500000D03*
X144000000Y-91000000D03*
X152250000Y-90250000D03*
X141000000Y-89000000D03*
%TO.N,+5V*%
X149500000Y-67500000D03*
X141500000Y-91000000D03*
X157275000Y-85500000D03*
X153000000Y-79000000D03*
X147500000Y-78000000D03*
%TO.N,Net-(D2-A)*%
X144500000Y-75000000D03*
X145000000Y-70000000D03*
X139500000Y-75000000D03*
%TO.N,Net-(D3-A)*%
X148500000Y-69000000D03*
X154000000Y-76000000D03*
X148000000Y-66000000D03*
X149000000Y-76000000D03*
%TO.N,/I2CConnector/INT*%
X144000000Y-80500000D03*
X138500000Y-69000000D03*
%TO.N,/EEPROMI2C/SDA*%
X152500000Y-85000000D03*
X150500000Y-82250000D03*
%TD*%
D30*
%TO.N,/I2CConnector/VI2C*%
X139037500Y-70912500D02*
X137000000Y-70912500D01*
X148500000Y-60500000D02*
X139500000Y-60500000D01*
X140912500Y-73087500D02*
X141000000Y-73000000D01*
X149000000Y-73100000D02*
X149000000Y-73000000D01*
X137000000Y-70825000D02*
X137000000Y-72000000D01*
X149860000Y-63500000D02*
X149860000Y-61860000D01*
X145000000Y-72000000D02*
X145000000Y-72087500D01*
X134000000Y-70500000D02*
X135500000Y-72000000D01*
X140000000Y-69950000D02*
X139037500Y-70912500D01*
X152912500Y-72000000D02*
X154000000Y-73087500D01*
X135500000Y-72000000D02*
X137000000Y-72000000D01*
X148987500Y-73087500D02*
X149000000Y-73100000D01*
X142000000Y-72000000D02*
X145000000Y-72000000D01*
X146000000Y-73087500D02*
X148987500Y-73087500D01*
X141000000Y-73000000D02*
X142000000Y-72000000D01*
X145000000Y-72087500D02*
X146000000Y-73087500D01*
X137000000Y-73087500D02*
X140912500Y-73087500D01*
X149860000Y-61860000D02*
X148500000Y-60500000D01*
X139500000Y-60500000D02*
X134000000Y-66000000D01*
X149000000Y-73000000D02*
X150000000Y-72000000D01*
X150000000Y-72000000D02*
X152912500Y-72000000D01*
X137000000Y-72000000D02*
X137000000Y-73087500D01*
X134000000Y-66000000D02*
X134000000Y-70500000D01*
%TO.N,GND*%
X135500000Y-105000000D02*
X161700000Y-105000000D01*
X139000000Y-66500000D02*
X139000000Y-67050000D01*
D31*
X158950000Y-82950000D02*
X159000000Y-83000000D01*
D30*
X151500000Y-70500000D02*
X150500000Y-70500000D01*
X159000000Y-89500000D02*
X164600000Y-89500000D01*
X139000000Y-94912500D02*
X141912500Y-94912500D01*
X161700000Y-105000000D02*
X165100000Y-101600000D01*
X147687500Y-70500000D02*
X147137500Y-69950000D01*
X152400000Y-63500000D02*
X165100000Y-63500000D01*
X153500000Y-70000000D02*
X152000000Y-70000000D01*
D31*
X138850000Y-87000000D02*
X136937500Y-87000000D01*
D30*
X154912500Y-89500000D02*
X159000000Y-89500000D01*
X154500000Y-69000000D02*
X153500000Y-70000000D01*
X142000000Y-95000000D02*
X143500000Y-95000000D01*
D31*
X134937500Y-90437500D02*
X135000000Y-90500000D01*
D30*
X136300000Y-105000000D02*
X139700000Y-101600000D01*
X154912500Y-92050000D02*
X154912500Y-89500000D01*
X152400000Y-64400000D02*
X154500000Y-66500000D01*
X154912500Y-89500000D02*
X154912500Y-87042500D01*
X127000000Y-101600000D02*
X130400000Y-105000000D01*
X137500000Y-59000000D02*
X133000000Y-63500000D01*
X133000000Y-63500000D02*
X127000000Y-63500000D01*
X135500000Y-105000000D02*
X136300000Y-105000000D01*
X160100000Y-78900000D02*
X160100000Y-81900000D01*
X164600000Y-89500000D02*
X165100000Y-89000000D01*
X147862500Y-91850000D02*
X146850000Y-91850000D01*
X144950000Y-95000000D02*
X145000000Y-94950000D01*
X146850000Y-91850000D02*
X146000000Y-91000000D01*
D31*
X149000000Y-82000000D02*
X149000000Y-83445000D01*
X149000000Y-83445000D02*
X148950000Y-83495000D01*
D30*
X152400000Y-63500000D02*
X152400000Y-64400000D01*
D31*
X155000000Y-82950000D02*
X158950000Y-82950000D01*
X152750000Y-83250000D02*
X153050000Y-82950000D01*
D30*
X159000000Y-83000000D02*
X159000000Y-89500000D01*
X160100000Y-81900000D02*
X159000000Y-83000000D01*
X152400000Y-63500000D02*
X152400000Y-60900000D01*
D31*
X136937500Y-87000000D02*
X134937500Y-89000000D01*
D30*
X139000000Y-67050000D02*
X140000000Y-68050000D01*
X157480000Y-101600000D02*
X165100000Y-101600000D01*
X139000000Y-94912500D02*
X139000000Y-100900000D01*
D31*
X134937500Y-89000000D02*
X134937500Y-90437500D01*
D30*
X130400000Y-105000000D02*
X135500000Y-105000000D01*
X165100000Y-101600000D02*
X165100000Y-89000000D01*
X150500000Y-70500000D02*
X147687500Y-70500000D01*
X152400000Y-60900000D02*
X150500000Y-59000000D01*
X141912500Y-94912500D02*
X142000000Y-95000000D01*
X150500000Y-59000000D02*
X137500000Y-59000000D01*
X152000000Y-70000000D02*
X151500000Y-70500000D01*
D31*
X153050000Y-82950000D02*
X155000000Y-82950000D01*
D30*
X154912500Y-87042500D02*
X155275000Y-86680000D01*
X139000000Y-100900000D02*
X139700000Y-101600000D01*
X143500000Y-95000000D02*
X144950000Y-95000000D01*
X154500000Y-66500000D02*
X154500000Y-69000000D01*
X165100000Y-89000000D02*
X165100000Y-63500000D01*
%TO.N,+5V*%
X130000000Y-86087500D02*
X127912500Y-86087500D01*
X127000000Y-87000000D02*
X127000000Y-89500000D01*
X141500000Y-91000000D02*
X141500000Y-92600000D01*
X147137500Y-68050000D02*
X147450000Y-68050000D01*
X149087500Y-78000000D02*
X145912500Y-78000000D01*
X127000000Y-89500000D02*
X127500000Y-90000000D01*
X157275000Y-85500000D02*
X157275000Y-86580000D01*
X154175000Y-79000000D02*
X154275000Y-78900000D01*
X147450000Y-68050000D02*
X148000000Y-67500000D01*
X135000000Y-92350000D02*
X135650000Y-92350000D01*
D31*
X144000000Y-83190000D02*
X146745000Y-83190000D01*
D30*
X142000000Y-93100000D02*
X144950000Y-93100000D01*
X148000000Y-67500000D02*
X151400000Y-67500000D01*
X127500000Y-90000000D02*
X128825000Y-90000000D01*
X132575000Y-92350000D02*
X131875000Y-93050000D01*
D31*
X147500000Y-78000000D02*
X149087500Y-78000000D01*
D30*
X128825000Y-90000000D02*
X131875000Y-93050000D01*
X157275000Y-86580000D02*
X157175000Y-86680000D01*
D31*
X145912500Y-78000000D02*
X147500000Y-78000000D01*
D30*
X153000000Y-79000000D02*
X154175000Y-79000000D01*
X144950000Y-93100000D02*
X145000000Y-93050000D01*
X147862500Y-93750000D02*
X146500000Y-93750000D01*
X147862500Y-93750000D02*
X147862500Y-101057500D01*
D31*
X146745000Y-83190000D02*
X147050000Y-83495000D01*
D30*
X145912500Y-82357500D02*
X147050000Y-83495000D01*
X135650000Y-92350000D02*
X137000000Y-91000000D01*
X151400000Y-67500000D02*
X152000000Y-68100000D01*
X145800000Y-93050000D02*
X146500000Y-93750000D01*
X130592500Y-85495000D02*
X130000000Y-86087500D01*
X157275000Y-83900000D02*
X157275000Y-85500000D01*
X141500000Y-92600000D02*
X142000000Y-93100000D01*
X145912500Y-78000000D02*
X145912500Y-82357500D01*
X147862500Y-101057500D02*
X147320000Y-101600000D01*
X135000000Y-92350000D02*
X132575000Y-92350000D01*
X137000000Y-91000000D02*
X141500000Y-91000000D01*
X145000000Y-93050000D02*
X145800000Y-93050000D01*
X133087500Y-85495000D02*
X130592500Y-85495000D01*
X127912500Y-86087500D02*
X127000000Y-87000000D01*
D31*
%TO.N,/PCF8593/Pulse*%
X138850000Y-83190000D02*
X139690000Y-83190000D01*
D30*
X150887500Y-92050000D02*
X150137500Y-92800000D01*
X153087500Y-92050000D02*
X152000000Y-92050000D01*
D31*
X140500000Y-86000000D02*
X143500000Y-89000000D01*
X140500000Y-84000000D02*
X140500000Y-86000000D01*
X148500000Y-89000000D02*
X151550000Y-92050000D01*
D30*
X152000000Y-92050000D02*
X150887500Y-92050000D01*
D31*
X151550000Y-92050000D02*
X152000000Y-92050000D01*
D30*
X153087500Y-95000000D02*
X153087500Y-92050000D01*
D31*
X143500000Y-89000000D02*
X148500000Y-89000000D01*
X139690000Y-83190000D02*
X140500000Y-84000000D01*
D30*
%TO.N,Net-(D2-A)*%
X139500000Y-75000000D02*
X140900000Y-75000000D01*
X144780000Y-68917500D02*
X144862500Y-69000000D01*
X144862500Y-69862500D02*
X145000000Y-70000000D01*
X145912500Y-75000000D02*
X146000000Y-74912500D01*
X140900000Y-75000000D02*
X141000000Y-74900000D01*
X144500000Y-75000000D02*
X145912500Y-75000000D01*
X144780000Y-63500000D02*
X144780000Y-68917500D01*
X144862500Y-69000000D02*
X144862500Y-69862500D01*
%TO.N,Net-(D3-A)*%
X149675000Y-69000000D02*
X149725000Y-69050000D01*
X147320000Y-63500000D02*
X147320000Y-65320000D01*
X147320000Y-65320000D02*
X148000000Y-66000000D01*
X148500000Y-69000000D02*
X149675000Y-69000000D01*
X154000000Y-74912500D02*
X154000000Y-76000000D01*
X149000000Y-76000000D02*
X149000000Y-75000000D01*
D31*
%TO.N,Net-(U1-~{RESET})*%
X135147500Y-85730000D02*
X134912500Y-85495000D01*
X138850000Y-85730000D02*
X135147500Y-85730000D01*
D30*
%TO.N,Net-(J5-Pin_2)*%
X154912500Y-99087500D02*
X154912500Y-95000000D01*
X152400000Y-101600000D02*
X154912500Y-99087500D01*
D31*
%TO.N,/I2CConnector/INT*%
X142500000Y-84000000D02*
X142200000Y-83700000D01*
X143000000Y-80500000D02*
X144000000Y-80500000D01*
X138500000Y-69000000D02*
X142275000Y-69000000D01*
D30*
X142240000Y-63500000D02*
X142240000Y-68965000D01*
D31*
X142200000Y-81300000D02*
X143000000Y-80500000D01*
X138500000Y-69000000D02*
X137087500Y-69000000D01*
D30*
X142240000Y-68965000D02*
X142275000Y-69000000D01*
D31*
X142200000Y-81500000D02*
X142200000Y-81300000D01*
X137087500Y-69000000D02*
X137000000Y-69087500D01*
X142200000Y-83700000D02*
X142200000Y-81500000D01*
X142960000Y-84460000D02*
X142500000Y-84000000D01*
X144000000Y-84460000D02*
X142960000Y-84460000D01*
D30*
%TO.N,Net-(D4-A)*%
X131087500Y-89000000D02*
X133062500Y-89000000D01*
X130000000Y-87912500D02*
X131087500Y-89000000D01*
%TO.N,Net-(D5-A)*%
X135350000Y-95650000D02*
X137912500Y-93087500D01*
X135000000Y-95650000D02*
X135350000Y-95650000D01*
X131875000Y-94950000D02*
X134300000Y-94950000D01*
X134300000Y-94950000D02*
X135000000Y-95650000D01*
X137912500Y-93087500D02*
X139000000Y-93087500D01*
%TO.N,Net-(J6-Pin_2)*%
X130000000Y-94000000D02*
X127000000Y-94000000D01*
X134620000Y-101600000D02*
X130000000Y-96980000D01*
X124000000Y-91000000D02*
X124000000Y-86000000D01*
X135087500Y-74912500D02*
X137000000Y-74912500D01*
X124000000Y-86000000D02*
X135087500Y-74912500D01*
X130000000Y-96980000D02*
X130000000Y-94000000D01*
X127000000Y-94000000D02*
X124000000Y-91000000D01*
D31*
%TO.N,/EEPROMI2C/SCL*%
X141500000Y-80587500D02*
X141500000Y-84500000D01*
X141500000Y-84500000D02*
X142730000Y-85730000D01*
X152500000Y-82000000D02*
X155000000Y-82000000D01*
X144000000Y-85730000D02*
X148770000Y-85730000D01*
X148770000Y-85730000D02*
X152500000Y-82000000D01*
X144087500Y-78000000D02*
X141500000Y-80587500D01*
D30*
X142875000Y-73950000D02*
X142875000Y-76787500D01*
D31*
X142730000Y-85730000D02*
X144000000Y-85730000D01*
D30*
X142875000Y-76787500D02*
X144087500Y-78000000D01*
D31*
%TO.N,/EEPROMI2C/SDA*%
X144000000Y-87000000D02*
X150500000Y-87000000D01*
X151000000Y-81750000D02*
X151000000Y-78087500D01*
X153600000Y-83900000D02*
X155000000Y-83900000D01*
D30*
X151500000Y-77412500D02*
X150912500Y-78000000D01*
X150875000Y-74375000D02*
X151500000Y-75000000D01*
X150875000Y-74050000D02*
X150875000Y-74375000D01*
D31*
X151000000Y-78087500D02*
X150912500Y-78000000D01*
D30*
X151500000Y-75000000D02*
X151500000Y-77412500D01*
D31*
X150500000Y-82250000D02*
X151000000Y-81750000D01*
X150500000Y-87000000D02*
X153600000Y-83900000D01*
D30*
%TO.N,Net-(U2-WP)*%
X157000000Y-78900000D02*
X158275000Y-78900000D01*
X157275000Y-79175000D02*
X157000000Y-78900000D01*
X156100000Y-78900000D02*
X157000000Y-78900000D01*
X157275000Y-82000000D02*
X157275000Y-79175000D01*
%TD*%
%TA.AperFunction,Conductor*%
%TO.N,GND*%
G36*
X134043334Y-86415548D02*
G01*
X134087680Y-86444048D01*
X134181344Y-86537712D01*
X134330666Y-86629814D01*
X134497203Y-86684999D01*
X134599991Y-86695500D01*
X135225008Y-86695499D01*
X135225016Y-86695498D01*
X135225019Y-86695498D01*
X135281302Y-86689748D01*
X135327797Y-86684999D01*
X135494334Y-86629814D01*
X135643656Y-86537712D01*
X135664549Y-86516819D01*
X135725872Y-86483334D01*
X135752230Y-86480500D01*
X137842672Y-86480500D01*
X137877267Y-86485424D01*
X138022426Y-86527597D01*
X138022429Y-86527597D01*
X138022431Y-86527598D01*
X138059306Y-86530500D01*
X138059314Y-86530500D01*
X139640686Y-86530500D01*
X139640694Y-86530500D01*
X139677569Y-86527598D01*
X139829670Y-86483408D01*
X139899538Y-86483607D01*
X139949358Y-86512290D01*
X139976365Y-86537770D01*
X139977624Y-86538992D01*
X141517629Y-88078996D01*
X142924267Y-89485634D01*
X142936048Y-89499266D01*
X142950390Y-89518530D01*
X142990420Y-89552119D01*
X142994392Y-89555759D01*
X142997312Y-89558679D01*
X143000221Y-89561589D01*
X143025250Y-89581379D01*
X143026646Y-89582517D01*
X143084786Y-89631302D01*
X143084787Y-89631302D01*
X143084789Y-89631304D01*
X143090818Y-89635270D01*
X143090785Y-89635319D01*
X143097147Y-89639372D01*
X143097179Y-89639321D01*
X143103319Y-89643108D01*
X143103323Y-89643111D01*
X143141278Y-89660809D01*
X143172137Y-89675200D01*
X143173760Y-89675986D01*
X143241562Y-89710038D01*
X143248357Y-89712511D01*
X143248336Y-89712567D01*
X143255455Y-89715042D01*
X143255474Y-89714986D01*
X143262324Y-89717255D01*
X143262327Y-89717257D01*
X143336709Y-89732614D01*
X143338418Y-89732994D01*
X143347781Y-89735213D01*
X143412273Y-89750499D01*
X143412276Y-89750499D01*
X143412279Y-89750500D01*
X143412282Y-89750500D01*
X143419452Y-89751338D01*
X143419444Y-89751397D01*
X143426945Y-89752164D01*
X143426951Y-89752105D01*
X143434140Y-89752734D01*
X143434144Y-89752733D01*
X143434145Y-89752734D01*
X143462230Y-89751916D01*
X143510033Y-89750526D01*
X143511836Y-89750500D01*
X148137770Y-89750500D01*
X148204809Y-89770185D01*
X148225451Y-89786819D01*
X149892924Y-91454292D01*
X149926409Y-91515615D01*
X149921425Y-91585307D01*
X149892924Y-91629654D01*
X149541767Y-91980811D01*
X149488682Y-92012206D01*
X149364604Y-92048254D01*
X149364603Y-92048255D01*
X149223137Y-92131917D01*
X149223129Y-92131923D01*
X149106923Y-92248129D01*
X149106917Y-92248137D01*
X149023255Y-92389603D01*
X149023254Y-92389606D01*
X148977402Y-92547426D01*
X148977401Y-92547432D01*
X148974500Y-92584298D01*
X148974500Y-92982104D01*
X148954815Y-93049143D01*
X148902011Y-93094898D01*
X148832853Y-93104842D01*
X148784502Y-93084330D01*
X148783580Y-93085890D01*
X148637366Y-92999420D01*
X148635398Y-92998256D01*
X148635397Y-92998255D01*
X148635396Y-92998255D01*
X148635393Y-92998253D01*
X148482676Y-92953885D01*
X148441369Y-92932864D01*
X148394461Y-92896554D01*
X148394457Y-92896551D01*
X148379996Y-92889458D01*
X148363770Y-92879906D01*
X148350551Y-92870706D01*
X148350549Y-92870705D01*
X148281786Y-92841196D01*
X148278968Y-92839901D01*
X148211771Y-92806940D01*
X148211769Y-92806939D01*
X148196180Y-92802903D01*
X148178364Y-92796813D01*
X148163561Y-92790461D01*
X148163559Y-92790460D01*
X148163558Y-92790460D01*
X148090265Y-92775398D01*
X148087216Y-92774690D01*
X148014781Y-92755936D01*
X147998689Y-92755119D01*
X147980023Y-92752742D01*
X147964243Y-92749500D01*
X147964241Y-92749500D01*
X147889429Y-92749500D01*
X147886289Y-92749420D01*
X147811564Y-92745631D01*
X147811560Y-92745631D01*
X147795643Y-92748070D01*
X147776867Y-92749500D01*
X146965783Y-92749500D01*
X146898744Y-92729815D01*
X146878102Y-92713181D01*
X146517011Y-92352091D01*
X146515914Y-92350966D01*
X146455061Y-92286949D01*
X146455060Y-92286948D01*
X146455059Y-92286947D01*
X146427204Y-92267559D01*
X146404709Y-92251902D01*
X146400946Y-92249064D01*
X146353413Y-92210305D01*
X146353406Y-92210300D01*
X146322959Y-92194397D01*
X146316251Y-92190334D01*
X146288049Y-92170705D01*
X146288046Y-92170703D01*
X146288045Y-92170703D01*
X146288041Y-92170701D01*
X146231680Y-92146514D01*
X146227424Y-92144493D01*
X146173057Y-92116094D01*
X146173050Y-92116091D01*
X146173049Y-92116091D01*
X146165350Y-92113888D01*
X146140030Y-92106642D01*
X146132630Y-92104008D01*
X146101057Y-92090459D01*
X146101058Y-92090459D01*
X146040966Y-92078109D01*
X146036391Y-92076986D01*
X145977420Y-92060113D01*
X145977425Y-92060113D01*
X145943158Y-92057503D01*
X145935380Y-92056412D01*
X145901742Y-92049500D01*
X145901741Y-92049500D01*
X145840402Y-92049500D01*
X145835695Y-92049321D01*
X145830121Y-92048896D01*
X145774524Y-92044662D01*
X145754589Y-92047201D01*
X145740440Y-92049003D01*
X145732611Y-92049500D01*
X145013493Y-92049500D01*
X145011931Y-92049480D01*
X144963618Y-92048256D01*
X144923641Y-92047243D01*
X144923640Y-92047243D01*
X144923637Y-92047243D01*
X144923633Y-92047243D01*
X144923628Y-92047244D01*
X144921889Y-92047556D01*
X144900019Y-92049500D01*
X144474998Y-92049500D01*
X144474980Y-92049501D01*
X144372203Y-92060000D01*
X144372200Y-92060001D01*
X144271997Y-92093206D01*
X144232993Y-92099500D01*
X142624500Y-92099500D01*
X142557461Y-92079815D01*
X142511706Y-92027011D01*
X142500500Y-91975500D01*
X142500500Y-91026928D01*
X142500580Y-91023788D01*
X142502151Y-90992794D01*
X142504369Y-90949064D01*
X142493039Y-90875113D01*
X142492643Y-90871999D01*
X142490355Y-90849500D01*
X142485074Y-90797562D01*
X142484248Y-90794930D01*
X142480251Y-90782189D01*
X142475994Y-90763849D01*
X142473556Y-90747929D01*
X142447553Y-90677720D01*
X142446565Y-90674825D01*
X142424159Y-90603412D01*
X142416339Y-90589324D01*
X142408482Y-90572225D01*
X142402886Y-90557113D01*
X142363296Y-90493597D01*
X142361725Y-90490929D01*
X142325409Y-90425498D01*
X142314921Y-90413281D01*
X142303773Y-90398100D01*
X142303489Y-90397645D01*
X142295252Y-90384429D01*
X142243701Y-90330197D01*
X142241600Y-90327872D01*
X142192873Y-90271112D01*
X142192868Y-90271108D01*
X142192866Y-90271105D01*
X142180126Y-90261243D01*
X142166155Y-90248620D01*
X142155063Y-90236950D01*
X142093647Y-90194202D01*
X142091116Y-90192343D01*
X142031961Y-90146553D01*
X142031957Y-90146551D01*
X142017496Y-90139458D01*
X142001270Y-90129906D01*
X141988051Y-90120706D01*
X141988049Y-90120705D01*
X141919286Y-90091196D01*
X141916468Y-90089901D01*
X141849271Y-90056940D01*
X141849269Y-90056939D01*
X141833680Y-90052903D01*
X141815864Y-90046813D01*
X141801061Y-90040461D01*
X141801059Y-90040460D01*
X141801058Y-90040460D01*
X141727765Y-90025398D01*
X141724716Y-90024690D01*
X141652281Y-90005936D01*
X141636189Y-90005119D01*
X141617523Y-90002742D01*
X141601743Y-89999500D01*
X141601741Y-89999500D01*
X141526929Y-89999500D01*
X141523789Y-89999420D01*
X141449064Y-89995631D01*
X141449060Y-89995631D01*
X141433143Y-89998070D01*
X141414367Y-89999500D01*
X137013452Y-89999500D01*
X137011889Y-89999480D01*
X136923636Y-89997244D01*
X136923635Y-89997244D01*
X136923626Y-89997244D01*
X136863263Y-90008064D01*
X136858597Y-90008718D01*
X136797564Y-90014925D01*
X136764780Y-90025210D01*
X136757153Y-90027082D01*
X136723349Y-90033141D01*
X136666381Y-90055895D01*
X136661945Y-90057474D01*
X136603414Y-90075840D01*
X136603410Y-90075842D01*
X136573378Y-90092510D01*
X136566284Y-90095879D01*
X136534382Y-90108623D01*
X136534377Y-90108625D01*
X136483156Y-90142381D01*
X136479128Y-90144822D01*
X136425501Y-90174588D01*
X136399434Y-90196965D01*
X136393165Y-90201692D01*
X136364484Y-90220595D01*
X136364478Y-90220600D01*
X136321109Y-90263968D01*
X136317655Y-90267169D01*
X136271104Y-90307134D01*
X136250075Y-90334300D01*
X136244884Y-90340193D01*
X135271899Y-91313181D01*
X135210576Y-91346666D01*
X135184218Y-91349500D01*
X132588452Y-91349500D01*
X132586889Y-91349480D01*
X132498636Y-91347244D01*
X132498635Y-91347244D01*
X132498626Y-91347244D01*
X132438263Y-91358064D01*
X132433597Y-91358718D01*
X132372564Y-91364925D01*
X132339780Y-91375210D01*
X132332153Y-91377082D01*
X132298349Y-91383141D01*
X132241381Y-91405895D01*
X132236945Y-91407474D01*
X132178414Y-91425840D01*
X132178410Y-91425842D01*
X132148378Y-91442510D01*
X132141284Y-91445879D01*
X132109382Y-91458623D01*
X132109377Y-91458625D01*
X132058156Y-91492381D01*
X132054128Y-91494822D01*
X132000500Y-91524589D01*
X131974433Y-91546965D01*
X131968163Y-91551693D01*
X131946173Y-91566187D01*
X131879365Y-91586644D01*
X131812103Y-91567734D01*
X131790253Y-91550333D01*
X130730828Y-90490908D01*
X129541973Y-89302053D01*
X129540915Y-89300967D01*
X129480061Y-89236949D01*
X129480060Y-89236948D01*
X129480059Y-89236947D01*
X129452204Y-89217559D01*
X129429709Y-89201902D01*
X129425946Y-89199064D01*
X129378413Y-89160305D01*
X129378409Y-89160303D01*
X129374576Y-89158301D01*
X129362214Y-89151843D01*
X129311908Y-89103358D01*
X129295800Y-89035370D01*
X129319006Y-88969467D01*
X129374159Y-88926572D01*
X129432227Y-88918577D01*
X129499991Y-88925500D01*
X129546716Y-88925499D01*
X129613754Y-88945182D01*
X129634398Y-88961818D01*
X130370487Y-89697907D01*
X130371552Y-89698998D01*
X130420533Y-89750526D01*
X130432440Y-89763052D01*
X130432447Y-89763058D01*
X130466553Y-89786795D01*
X130482803Y-89798106D01*
X130486544Y-89800926D01*
X130534093Y-89839698D01*
X130564545Y-89855604D01*
X130571256Y-89859671D01*
X130599451Y-89879295D01*
X130655832Y-89903490D01*
X130660067Y-89905501D01*
X130714451Y-89933909D01*
X130747473Y-89943356D01*
X130754865Y-89945989D01*
X130786440Y-89959539D01*
X130786441Y-89959540D01*
X130799554Y-89962234D01*
X130846555Y-89971892D01*
X130851095Y-89973006D01*
X130910082Y-89989886D01*
X130944341Y-89992494D01*
X130952109Y-89993585D01*
X130985755Y-90000500D01*
X130985759Y-90000500D01*
X131047101Y-90000500D01*
X131051808Y-90000678D01*
X131078900Y-90002742D01*
X131112975Y-90005337D01*
X131112975Y-90005336D01*
X131112976Y-90005337D01*
X131147059Y-90000996D01*
X131154889Y-90000500D01*
X132259109Y-90000500D01*
X132326148Y-90020185D01*
X132346790Y-90036819D01*
X132353996Y-90044025D01*
X132354000Y-90044028D01*
X132502066Y-90135357D01*
X132502069Y-90135358D01*
X132502075Y-90135362D01*
X132667225Y-90190087D01*
X132769152Y-90200500D01*
X132769157Y-90200500D01*
X133355843Y-90200500D01*
X133355848Y-90200500D01*
X133457775Y-90190087D01*
X133622925Y-90135362D01*
X133771003Y-90044026D01*
X133894026Y-89921003D01*
X133985362Y-89772925D01*
X134040087Y-89607775D01*
X134050500Y-89505848D01*
X134050500Y-89191494D01*
X134054459Y-89160409D01*
X134054486Y-89160305D01*
X134056563Y-89152285D01*
X134066869Y-88949064D01*
X134051930Y-88851547D01*
X134050500Y-88832770D01*
X134050500Y-88494157D01*
X134050499Y-88494144D01*
X134040087Y-88392225D01*
X133985362Y-88227075D01*
X133985358Y-88227069D01*
X133985357Y-88227066D01*
X133894028Y-88079000D01*
X133894025Y-88078996D01*
X133771003Y-87955974D01*
X133770999Y-87955971D01*
X133622933Y-87864642D01*
X133622927Y-87864639D01*
X133622925Y-87864638D01*
X133548005Y-87839812D01*
X133457776Y-87809913D01*
X133355855Y-87799500D01*
X133355848Y-87799500D01*
X132769152Y-87799500D01*
X132769144Y-87799500D01*
X132667223Y-87809913D01*
X132502077Y-87864637D01*
X132502066Y-87864642D01*
X132354000Y-87955971D01*
X132353996Y-87955974D01*
X132346790Y-87963181D01*
X132285467Y-87996666D01*
X132259109Y-87999500D01*
X131553283Y-87999500D01*
X131486244Y-87979815D01*
X131465602Y-87963181D01*
X131236818Y-87734397D01*
X131203333Y-87673074D01*
X131200499Y-87646716D01*
X131200499Y-87599998D01*
X131200498Y-87599981D01*
X131189999Y-87497203D01*
X131189998Y-87497200D01*
X131162567Y-87414420D01*
X131134814Y-87330666D01*
X131042712Y-87181344D01*
X130949045Y-87087677D01*
X130915563Y-87026359D01*
X130920547Y-86956667D01*
X130949044Y-86912323D01*
X131042712Y-86818656D01*
X131134814Y-86669334D01*
X131164252Y-86580495D01*
X131204025Y-86523051D01*
X131268541Y-86496228D01*
X131281958Y-86495500D01*
X132262770Y-86495500D01*
X132329809Y-86515185D01*
X132350451Y-86531819D01*
X132356344Y-86537712D01*
X132505666Y-86629814D01*
X132672203Y-86684999D01*
X132774991Y-86695500D01*
X133400008Y-86695499D01*
X133400016Y-86695498D01*
X133400019Y-86695498D01*
X133456302Y-86689748D01*
X133502797Y-86684999D01*
X133669334Y-86629814D01*
X133818656Y-86537712D01*
X133912318Y-86444048D01*
X133973642Y-86410564D01*
X134043334Y-86415548D01*
G37*
%TD.AperFunction*%
%TA.AperFunction,Conductor*%
G36*
X138758594Y-74107685D02*
G01*
X138804349Y-74160489D01*
X138814293Y-74229647D01*
X138785268Y-74293203D01*
X138772326Y-74306086D01*
X138771103Y-74307135D01*
X138646554Y-74468037D01*
X138646553Y-74468040D01*
X138556940Y-74650728D01*
X138505937Y-74847714D01*
X138495631Y-75050936D01*
X138526442Y-75252063D01*
X138526445Y-75252075D01*
X138597111Y-75442881D01*
X138597115Y-75442888D01*
X138704745Y-75615567D01*
X138704749Y-75615572D01*
X138816195Y-75732813D01*
X138844941Y-75763053D01*
X138973344Y-75852424D01*
X139011949Y-75879294D01*
X139011950Y-75879294D01*
X139011951Y-75879295D01*
X139198942Y-75959540D01*
X139398259Y-76000500D01*
X140886507Y-76000500D01*
X140888069Y-76000519D01*
X140925283Y-76001462D01*
X140976358Y-76002757D01*
X140976358Y-76002756D01*
X140976363Y-76002757D01*
X141036753Y-75991932D01*
X141041412Y-75991280D01*
X141083607Y-75986988D01*
X141102438Y-75985074D01*
X141135227Y-75974786D01*
X141142840Y-75972918D01*
X141176653Y-75966858D01*
X141233621Y-75944101D01*
X141238053Y-75942524D01*
X141240208Y-75941848D01*
X141296588Y-75924159D01*
X141326627Y-75907484D01*
X141333708Y-75904122D01*
X141365617Y-75891377D01*
X141416854Y-75857608D01*
X141420851Y-75855187D01*
X141474502Y-75825409D01*
X141500568Y-75803030D01*
X141506843Y-75798300D01*
X141535519Y-75779402D01*
X141578908Y-75736011D01*
X141582339Y-75732831D01*
X141585966Y-75729718D01*
X141649659Y-75700998D01*
X141656984Y-75700201D01*
X141690069Y-75697598D01*
X141715904Y-75690092D01*
X141785773Y-75690291D01*
X141844444Y-75728232D01*
X141873288Y-75791870D01*
X141874500Y-75809168D01*
X141874500Y-76774006D01*
X141874480Y-76775576D01*
X141872243Y-76863862D01*
X141872243Y-76863870D01*
X141883064Y-76924239D01*
X141883718Y-76928904D01*
X141889925Y-76989930D01*
X141889927Y-76989944D01*
X141900208Y-77022713D01*
X141902079Y-77030337D01*
X141908142Y-77064152D01*
X141908142Y-77064155D01*
X141930894Y-77121112D01*
X141932474Y-77125551D01*
X141950841Y-77184088D01*
X141950844Y-77184095D01*
X141967509Y-77214119D01*
X141970879Y-77221214D01*
X141983622Y-77253114D01*
X141983627Y-77253124D01*
X142017377Y-77304333D01*
X142019818Y-77308363D01*
X142049588Y-77361998D01*
X142049589Y-77361999D01*
X142049591Y-77362002D01*
X142071968Y-77388067D01*
X142076693Y-77394335D01*
X142089263Y-77413406D01*
X142095598Y-77423019D01*
X142138978Y-77466399D01*
X142142169Y-77469843D01*
X142182131Y-77516392D01*
X142182130Y-77516392D01*
X142209299Y-77537423D01*
X142215186Y-77542607D01*
X142508035Y-77835456D01*
X142761674Y-78089095D01*
X142795159Y-78150418D01*
X142790175Y-78220110D01*
X142761674Y-78264457D01*
X141014358Y-80011772D01*
X141000729Y-80023551D01*
X140981468Y-80037890D01*
X140947898Y-80077897D01*
X140944253Y-80081876D01*
X140938407Y-80087723D01*
X140918618Y-80112751D01*
X140917481Y-80114147D01*
X140868694Y-80172290D01*
X140864729Y-80178319D01*
X140864682Y-80178288D01*
X140860630Y-80184647D01*
X140860679Y-80184677D01*
X140856889Y-80190821D01*
X140824812Y-80259610D01*
X140824027Y-80261231D01*
X140789957Y-80329072D01*
X140787488Y-80335857D01*
X140787432Y-80335836D01*
X140784960Y-80342950D01*
X140785015Y-80342969D01*
X140782743Y-80349825D01*
X140767391Y-80424170D01*
X140767001Y-80425928D01*
X140749499Y-80499779D01*
X140748661Y-80506954D01*
X140748601Y-80506947D01*
X140747835Y-80514445D01*
X140747895Y-80514451D01*
X140747265Y-80521640D01*
X140749474Y-80597530D01*
X140749500Y-80599333D01*
X140749500Y-82888770D01*
X140729815Y-82955809D01*
X140677011Y-83001564D01*
X140607853Y-83011508D01*
X140544297Y-82982483D01*
X140537819Y-82976451D01*
X140265729Y-82704361D01*
X140253949Y-82690730D01*
X140246482Y-82680701D01*
X140239612Y-82671472D01*
X140199885Y-82638137D01*
X140199587Y-82637886D01*
X140195612Y-82634244D01*
X140192690Y-82631322D01*
X140189779Y-82628410D01*
X140164736Y-82608609D01*
X140163338Y-82607470D01*
X140151855Y-82597835D01*
X140105214Y-82558698D01*
X140099180Y-82554729D01*
X140099212Y-82554680D01*
X140092853Y-82550628D01*
X140092822Y-82550679D01*
X140086680Y-82546891D01*
X140086678Y-82546890D01*
X140086677Y-82546889D01*
X140017872Y-82514804D01*
X140016252Y-82514019D01*
X139971136Y-82491362D01*
X139948433Y-82479960D01*
X139948431Y-82479959D01*
X139948430Y-82479959D01*
X139941645Y-82477489D01*
X139941665Y-82477433D01*
X139934549Y-82474959D01*
X139934531Y-82475015D01*
X139927674Y-82472743D01*
X139895741Y-82466149D01*
X139857699Y-82451444D01*
X139835398Y-82438256D01*
X139835393Y-82438254D01*
X139677573Y-82392402D01*
X139677567Y-82392401D01*
X139640701Y-82389500D01*
X139640694Y-82389500D01*
X138059306Y-82389500D01*
X138059298Y-82389500D01*
X138022432Y-82392401D01*
X138022426Y-82392402D01*
X137864606Y-82438254D01*
X137864603Y-82438255D01*
X137723137Y-82521917D01*
X137723129Y-82521923D01*
X137606923Y-82638129D01*
X137606917Y-82638137D01*
X137523255Y-82779603D01*
X137523254Y-82779606D01*
X137477402Y-82937426D01*
X137477401Y-82937432D01*
X137474500Y-82974298D01*
X137474500Y-83405701D01*
X137477401Y-83442567D01*
X137477402Y-83442573D01*
X137523254Y-83600393D01*
X137523255Y-83600396D01*
X137606917Y-83741862D01*
X137611702Y-83748031D01*
X137609256Y-83749927D01*
X137635857Y-83798642D01*
X137630873Y-83868334D01*
X137610069Y-83900703D01*
X137611702Y-83901969D01*
X137606917Y-83908137D01*
X137523255Y-84049603D01*
X137523254Y-84049606D01*
X137477402Y-84207426D01*
X137477401Y-84207432D01*
X137474500Y-84244298D01*
X137474500Y-84675701D01*
X137477401Y-84712567D01*
X137477402Y-84712573D01*
X137508876Y-84820905D01*
X137508677Y-84890775D01*
X137470735Y-84949445D01*
X137407096Y-84978288D01*
X137389800Y-84979500D01*
X136033468Y-84979500D01*
X135966429Y-84959815D01*
X135920674Y-84907011D01*
X135915762Y-84894505D01*
X135885153Y-84802134D01*
X135859814Y-84725666D01*
X135767712Y-84576344D01*
X135643656Y-84452288D01*
X135494334Y-84360186D01*
X135327797Y-84305001D01*
X135327795Y-84305000D01*
X135225010Y-84294500D01*
X134599998Y-84294500D01*
X134599980Y-84294501D01*
X134497203Y-84305000D01*
X134497200Y-84305001D01*
X134330668Y-84360185D01*
X134330663Y-84360187D01*
X134181342Y-84452289D01*
X134087681Y-84545951D01*
X134026358Y-84579436D01*
X133956666Y-84574452D01*
X133912319Y-84545951D01*
X133818657Y-84452289D01*
X133818656Y-84452288D01*
X133669334Y-84360186D01*
X133502797Y-84305001D01*
X133502795Y-84305000D01*
X133400010Y-84294500D01*
X132774998Y-84294500D01*
X132774980Y-84294501D01*
X132672203Y-84305000D01*
X132672200Y-84305001D01*
X132505668Y-84360185D01*
X132505663Y-84360187D01*
X132356342Y-84452289D01*
X132350451Y-84458181D01*
X132289128Y-84491666D01*
X132262770Y-84494500D01*
X130605993Y-84494500D01*
X130604430Y-84494480D01*
X130516137Y-84492243D01*
X130516136Y-84492243D01*
X130516127Y-84492243D01*
X130455753Y-84503065D01*
X130451087Y-84503719D01*
X130390063Y-84509925D01*
X130390062Y-84509925D01*
X130357286Y-84520208D01*
X130349659Y-84522080D01*
X130315850Y-84528140D01*
X130315847Y-84528141D01*
X130258868Y-84550899D01*
X130254431Y-84552478D01*
X130195917Y-84570838D01*
X130195906Y-84570843D01*
X130165882Y-84587507D01*
X130158790Y-84590875D01*
X130132762Y-84601273D01*
X130126883Y-84603622D01*
X130126882Y-84603622D01*
X130126881Y-84603623D01*
X130126873Y-84603627D01*
X130075655Y-84637383D01*
X130071626Y-84639824D01*
X130018002Y-84669588D01*
X130017999Y-84669590D01*
X129991927Y-84691970D01*
X129985660Y-84696695D01*
X129956982Y-84715598D01*
X129956975Y-84715603D01*
X129913616Y-84758962D01*
X129910161Y-84762164D01*
X129863606Y-84802132D01*
X129863605Y-84802133D01*
X129842576Y-84829300D01*
X129837384Y-84835194D01*
X129634397Y-85038181D01*
X129573074Y-85071666D01*
X129546718Y-85074500D01*
X129500000Y-85074500D01*
X129499980Y-85074501D01*
X129390468Y-85085689D01*
X129390432Y-85085339D01*
X129374742Y-85087000D01*
X127925993Y-85087000D01*
X127924430Y-85086980D01*
X127836137Y-85084743D01*
X127836128Y-85084743D01*
X127783136Y-85094241D01*
X127775754Y-85095564D01*
X127771095Y-85096218D01*
X127710064Y-85102425D01*
X127710062Y-85102426D01*
X127677280Y-85112710D01*
X127669656Y-85114581D01*
X127661808Y-85115988D01*
X127635849Y-85120641D01*
X127578881Y-85143395D01*
X127574445Y-85144974D01*
X127515914Y-85163340D01*
X127515910Y-85163342D01*
X127485878Y-85180010D01*
X127478784Y-85183379D01*
X127446880Y-85196124D01*
X127395667Y-85229875D01*
X127391639Y-85232315D01*
X127338002Y-85262088D01*
X127337999Y-85262090D01*
X127311929Y-85284469D01*
X127305660Y-85289196D01*
X127276985Y-85308095D01*
X127276981Y-85308098D01*
X127233616Y-85351462D01*
X127230162Y-85354663D01*
X127183603Y-85394635D01*
X127162576Y-85421800D01*
X127157384Y-85427694D01*
X126302091Y-86282987D01*
X126300967Y-86284083D01*
X126236946Y-86344942D01*
X126201899Y-86395294D01*
X126199062Y-86399056D01*
X126160302Y-86446592D01*
X126160299Y-86446597D01*
X126144392Y-86477047D01*
X126140324Y-86483761D01*
X126120702Y-86511954D01*
X126096509Y-86568330D01*
X126094488Y-86572584D01*
X126066091Y-86626951D01*
X126066090Y-86626952D01*
X126056640Y-86659975D01*
X126054007Y-86667371D01*
X126040459Y-86698943D01*
X126028113Y-86759019D01*
X126026990Y-86763595D01*
X126010113Y-86822577D01*
X126010113Y-86822579D01*
X126007503Y-86856841D01*
X126006414Y-86864608D01*
X126003035Y-86881058D01*
X125999500Y-86898258D01*
X125999500Y-86959597D01*
X125999321Y-86964306D01*
X125994662Y-87025474D01*
X125994775Y-87026359D01*
X125999003Y-87059560D01*
X125999500Y-87067388D01*
X125999500Y-89486506D01*
X125999480Y-89488070D01*
X125998708Y-89518528D01*
X125997243Y-89576362D01*
X125997243Y-89576370D01*
X126006380Y-89627345D01*
X126007800Y-89635270D01*
X126008064Y-89636739D01*
X126008718Y-89641404D01*
X126014925Y-89702430D01*
X126014927Y-89702444D01*
X126025208Y-89735213D01*
X126027079Y-89742837D01*
X126033142Y-89776652D01*
X126033142Y-89776655D01*
X126055894Y-89833612D01*
X126057474Y-89838051D01*
X126075841Y-89896588D01*
X126075844Y-89896595D01*
X126092509Y-89926619D01*
X126095879Y-89933714D01*
X126108622Y-89965614D01*
X126108627Y-89965624D01*
X126126533Y-89992793D01*
X126141119Y-90014925D01*
X126142377Y-90016833D01*
X126144818Y-90020863D01*
X126174588Y-90074498D01*
X126174589Y-90074499D01*
X126174591Y-90074502D01*
X126196968Y-90100567D01*
X126201693Y-90106835D01*
X126202873Y-90108625D01*
X126220598Y-90135519D01*
X126263978Y-90178899D01*
X126267169Y-90182343D01*
X126307131Y-90228892D01*
X126307134Y-90228895D01*
X126332617Y-90248620D01*
X126334294Y-90249918D01*
X126340189Y-90255111D01*
X126783042Y-90697963D01*
X126784101Y-90699050D01*
X126844937Y-90763050D01*
X126844941Y-90763053D01*
X126895281Y-90798092D01*
X126899043Y-90800928D01*
X126946587Y-90839694D01*
X126946590Y-90839695D01*
X126946593Y-90839698D01*
X126977045Y-90855604D01*
X126983756Y-90859671D01*
X127001469Y-90871999D01*
X127011951Y-90879295D01*
X127068329Y-90903489D01*
X127072578Y-90905507D01*
X127126951Y-90933909D01*
X127154489Y-90941788D01*
X127159974Y-90943358D01*
X127167368Y-90945990D01*
X127198942Y-90959540D01*
X127198945Y-90959540D01*
X127198946Y-90959541D01*
X127259022Y-90971887D01*
X127263600Y-90973010D01*
X127277501Y-90976987D01*
X127322582Y-90989887D01*
X127356839Y-90992495D01*
X127364614Y-90993586D01*
X127398255Y-91000500D01*
X127398259Y-91000500D01*
X127459599Y-91000500D01*
X127464305Y-91000678D01*
X127499063Y-91003325D01*
X127525476Y-91005337D01*
X127525476Y-91005336D01*
X127525477Y-91005337D01*
X127559560Y-91000996D01*
X127567390Y-91000500D01*
X128359217Y-91000500D01*
X128426256Y-91020185D01*
X128446898Y-91036819D01*
X130198145Y-92788066D01*
X130231630Y-92849389D01*
X130226646Y-92919081D01*
X130184774Y-92975014D01*
X130119310Y-92999431D01*
X130108028Y-92999263D01*
X130108028Y-92999500D01*
X130026929Y-92999500D01*
X130023789Y-92999420D01*
X129949064Y-92995631D01*
X129949060Y-92995631D01*
X129933143Y-92998070D01*
X129914367Y-92999500D01*
X127465782Y-92999500D01*
X127398743Y-92979815D01*
X127378101Y-92963181D01*
X125036819Y-90621899D01*
X125003334Y-90560576D01*
X125000500Y-90534218D01*
X125000500Y-86465782D01*
X125020185Y-86398743D01*
X125036819Y-86378101D01*
X135465601Y-75949319D01*
X135526924Y-75915834D01*
X135553282Y-75913000D01*
X136374741Y-75913000D01*
X136390433Y-75914660D01*
X136390469Y-75914311D01*
X136397202Y-75914998D01*
X136397203Y-75914999D01*
X136499991Y-75925500D01*
X137500008Y-75925499D01*
X137500016Y-75925498D01*
X137500019Y-75925498D01*
X137556302Y-75919748D01*
X137602797Y-75914999D01*
X137769334Y-75859814D01*
X137918656Y-75767712D01*
X138042712Y-75643656D01*
X138134814Y-75494334D01*
X138189999Y-75327797D01*
X138200500Y-75225009D01*
X138200499Y-74599992D01*
X138197780Y-74573378D01*
X138189999Y-74497203D01*
X138189998Y-74497200D01*
X138184695Y-74481196D01*
X138134814Y-74330666D01*
X138101771Y-74277095D01*
X138083332Y-74209704D01*
X138104255Y-74143041D01*
X138157897Y-74098271D01*
X138207311Y-74088000D01*
X138691555Y-74088000D01*
X138758594Y-74107685D01*
G37*
%TD.AperFunction*%
%TA.AperFunction,Conductor*%
G36*
X156215167Y-82518006D02*
G01*
X156239355Y-82545921D01*
X156239639Y-82545702D01*
X156243679Y-82550911D01*
X156244232Y-82551548D01*
X156244419Y-82551865D01*
X156244421Y-82551867D01*
X156244423Y-82551870D01*
X156360629Y-82668076D01*
X156360633Y-82668079D01*
X156360635Y-82668081D01*
X156502102Y-82751744D01*
X156507575Y-82753334D01*
X156654822Y-82796114D01*
X156696128Y-82817134D01*
X156744703Y-82854734D01*
X156785667Y-82911335D01*
X156789527Y-82981098D01*
X156755058Y-83041874D01*
X156734393Y-83058022D01*
X156680583Y-83091562D01*
X156649588Y-83105406D01*
X156502104Y-83148254D01*
X156502103Y-83148255D01*
X156360637Y-83231917D01*
X156360629Y-83231923D01*
X156244423Y-83348129D01*
X156244414Y-83348140D01*
X156244229Y-83348455D01*
X156244019Y-83348650D01*
X156239639Y-83354298D01*
X156238727Y-83353591D01*
X156193157Y-83396136D01*
X156124415Y-83408637D01*
X156059827Y-83381988D01*
X156035643Y-83354078D01*
X156035361Y-83354298D01*
X156031323Y-83349092D01*
X156030771Y-83348455D01*
X156030585Y-83348140D01*
X156030576Y-83348129D01*
X155914370Y-83231923D01*
X155914362Y-83231917D01*
X155772896Y-83148255D01*
X155772893Y-83148254D01*
X155615073Y-83102402D01*
X155615067Y-83102401D01*
X155578201Y-83099500D01*
X155578194Y-83099500D01*
X154421806Y-83099500D01*
X154421798Y-83099500D01*
X154384932Y-83102401D01*
X154384926Y-83102402D01*
X154239767Y-83144576D01*
X154205172Y-83149500D01*
X153663705Y-83149500D01*
X153645735Y-83148191D01*
X153621972Y-83144710D01*
X153576533Y-83148686D01*
X153569931Y-83149264D01*
X153564530Y-83149500D01*
X153556283Y-83149500D01*
X153524606Y-83153202D01*
X153522832Y-83153384D01*
X153492390Y-83156047D01*
X153447198Y-83160001D01*
X153440132Y-83161460D01*
X153440120Y-83161404D01*
X153432763Y-83163035D01*
X153432777Y-83163092D01*
X153425740Y-83164760D01*
X153354385Y-83190729D01*
X153352685Y-83191320D01*
X153280668Y-83215184D01*
X153274126Y-83218235D01*
X153274101Y-83218183D01*
X153267308Y-83221471D01*
X153267334Y-83221522D01*
X153260886Y-83224760D01*
X153197476Y-83266465D01*
X153195957Y-83267432D01*
X153131344Y-83307288D01*
X153125677Y-83311769D01*
X153125641Y-83311723D01*
X153119798Y-83316484D01*
X153119835Y-83316528D01*
X153114309Y-83321164D01*
X153062229Y-83376364D01*
X153060974Y-83377657D01*
X152280820Y-84157810D01*
X152240894Y-84182289D01*
X152241669Y-84184029D01*
X152235736Y-84186670D01*
X152235733Y-84186671D01*
X152072408Y-84259388D01*
X152072406Y-84259389D01*
X151927768Y-84364475D01*
X151808140Y-84497336D01*
X151718750Y-84652164D01*
X151718746Y-84652174D01*
X151695354Y-84724164D01*
X151665105Y-84773525D01*
X150225451Y-86213181D01*
X150164128Y-86246666D01*
X150137770Y-86249500D01*
X149611230Y-86249500D01*
X149544191Y-86229815D01*
X149498436Y-86177011D01*
X149488492Y-86107853D01*
X149517517Y-86044297D01*
X149523549Y-86037819D01*
X152774548Y-82786819D01*
X152835871Y-82753334D01*
X152862229Y-82750500D01*
X154205172Y-82750500D01*
X154239767Y-82755424D01*
X154384926Y-82797597D01*
X154384929Y-82797597D01*
X154384931Y-82797598D01*
X154421806Y-82800500D01*
X154421814Y-82800500D01*
X155578186Y-82800500D01*
X155578194Y-82800500D01*
X155615069Y-82797598D01*
X155615071Y-82797597D01*
X155615073Y-82797597D01*
X155676997Y-82779606D01*
X155772898Y-82751744D01*
X155914365Y-82668081D01*
X156030581Y-82551865D01*
X156030767Y-82551549D01*
X156030977Y-82551353D01*
X156035361Y-82545702D01*
X156036272Y-82546409D01*
X156081836Y-82503866D01*
X156150577Y-82491362D01*
X156215167Y-82518006D01*
G37*
%TD.AperFunction*%
%TA.AperFunction,Conductor*%
G36*
X150043333Y-78920547D02*
G01*
X150087676Y-78949044D01*
X150181344Y-79042712D01*
X150190591Y-79048416D01*
X150237318Y-79100360D01*
X150249500Y-79153957D01*
X150249500Y-81350015D01*
X150229815Y-81417054D01*
X150177011Y-81462809D01*
X150175936Y-81463294D01*
X150072408Y-81509387D01*
X149927768Y-81614475D01*
X149808140Y-81747336D01*
X149718750Y-81902164D01*
X149718747Y-81902170D01*
X149663504Y-82072192D01*
X149663503Y-82072194D01*
X149644815Y-82250000D01*
X149663503Y-82427805D01*
X149663504Y-82427807D01*
X149718747Y-82597829D01*
X149718750Y-82597835D01*
X149808141Y-82752665D01*
X149832399Y-82779606D01*
X149927764Y-82885521D01*
X149927767Y-82885523D01*
X149927770Y-82885526D01*
X150072407Y-82990612D01*
X150167486Y-83032943D01*
X150220720Y-83078191D01*
X150241042Y-83145040D01*
X150221997Y-83212264D01*
X150204729Y-83233902D01*
X148495451Y-84943181D01*
X148434128Y-84976666D01*
X148407770Y-84979500D01*
X145460200Y-84979500D01*
X145393161Y-84959815D01*
X145347406Y-84907011D01*
X145337462Y-84837853D01*
X145341124Y-84820905D01*
X145372597Y-84712573D01*
X145372598Y-84712567D01*
X145373847Y-84696695D01*
X145375500Y-84675694D01*
X145375500Y-84244306D01*
X145372598Y-84207431D01*
X145366567Y-84186671D01*
X145341124Y-84099095D01*
X145341323Y-84029225D01*
X145379265Y-83970555D01*
X145442904Y-83941712D01*
X145460200Y-83940500D01*
X145929401Y-83940500D01*
X145996440Y-83960185D01*
X146042195Y-84012989D01*
X146052759Y-84051899D01*
X146060001Y-84122797D01*
X146060001Y-84122799D01*
X146100265Y-84244306D01*
X146115186Y-84289334D01*
X146207288Y-84438656D01*
X146331344Y-84562712D01*
X146480666Y-84654814D01*
X146647203Y-84709999D01*
X146749991Y-84720500D01*
X147350008Y-84720499D01*
X147350016Y-84720498D01*
X147350019Y-84720498D01*
X147427638Y-84712569D01*
X147452797Y-84709999D01*
X147619334Y-84654814D01*
X147768656Y-84562712D01*
X147892712Y-84438656D01*
X147984814Y-84289334D01*
X148039999Y-84122797D01*
X148050500Y-84020009D01*
X148050499Y-83508511D01*
X148050519Y-83506941D01*
X148050959Y-83489603D01*
X148052150Y-83442573D01*
X148052757Y-83418641D01*
X148052756Y-83418640D01*
X148052757Y-83418637D01*
X148052443Y-83416888D01*
X148050499Y-83395015D01*
X148050499Y-82969998D01*
X148050498Y-82969981D01*
X148039999Y-82867203D01*
X148039998Y-82867200D01*
X148010971Y-82779603D01*
X147984814Y-82700666D01*
X147892712Y-82551344D01*
X147768656Y-82427288D01*
X147619334Y-82335186D01*
X147452797Y-82280001D01*
X147452795Y-82280000D01*
X147350016Y-82269500D01*
X147350009Y-82269500D01*
X147290782Y-82269500D01*
X147223743Y-82249815D01*
X147203101Y-82233181D01*
X146949319Y-81979398D01*
X146915834Y-81918075D01*
X146913000Y-81891717D01*
X146913000Y-79124500D01*
X146932685Y-79057461D01*
X146985489Y-79011706D01*
X147037000Y-79000500D01*
X148262770Y-79000500D01*
X148329809Y-79020185D01*
X148350451Y-79036819D01*
X148356344Y-79042712D01*
X148505666Y-79134814D01*
X148672203Y-79189999D01*
X148774991Y-79200500D01*
X149400008Y-79200499D01*
X149400016Y-79200498D01*
X149400019Y-79200498D01*
X149456302Y-79194748D01*
X149502797Y-79189999D01*
X149669334Y-79134814D01*
X149818656Y-79042712D01*
X149912322Y-78949045D01*
X149973641Y-78915563D01*
X150043333Y-78920547D01*
G37*
%TD.AperFunction*%
%TA.AperFunction,Conductor*%
G36*
X144825193Y-80962913D02*
G01*
X144883242Y-81001800D01*
X144911052Y-81065896D01*
X144912000Y-81081204D01*
X144912000Y-82265500D01*
X144892315Y-82332539D01*
X144839511Y-82378294D01*
X144788000Y-82389500D01*
X143209298Y-82389500D01*
X143172432Y-82392401D01*
X143109094Y-82410803D01*
X143039225Y-82410603D01*
X142980555Y-82372660D01*
X142951712Y-82309022D01*
X142950500Y-82291726D01*
X142950500Y-81662229D01*
X142970185Y-81595190D01*
X142986819Y-81574548D01*
X143274549Y-81286819D01*
X143335872Y-81253334D01*
X143362230Y-81250500D01*
X143568259Y-81250500D01*
X143618693Y-81261219D01*
X143735733Y-81313329D01*
X143910609Y-81350500D01*
X143910610Y-81350500D01*
X144089389Y-81350500D01*
X144089391Y-81350500D01*
X144264267Y-81313329D01*
X144427593Y-81240612D01*
X144572230Y-81135526D01*
X144691859Y-81002665D01*
X144691859Y-81002663D01*
X144695850Y-80998232D01*
X144755336Y-80961583D01*
X144825193Y-80962913D01*
G37*
%TD.AperFunction*%
%TA.AperFunction,Conductor*%
G36*
X151955703Y-78985391D02*
G01*
X151993477Y-79044169D01*
X151997070Y-79060327D01*
X152026442Y-79252063D01*
X152026445Y-79252075D01*
X152097111Y-79442881D01*
X152097115Y-79442888D01*
X152204745Y-79615567D01*
X152204747Y-79615569D01*
X152204748Y-79615571D01*
X152344941Y-79763053D01*
X152424830Y-79818657D01*
X152511949Y-79879294D01*
X152511950Y-79879294D01*
X152511951Y-79879295D01*
X152698942Y-79959540D01*
X152898259Y-80000500D01*
X153602368Y-80000500D01*
X153667463Y-80018960D01*
X153693166Y-80034814D01*
X153859703Y-80089999D01*
X153962491Y-80100500D01*
X154587508Y-80100499D01*
X154587516Y-80100498D01*
X154587519Y-80100498D01*
X154643802Y-80094748D01*
X154690297Y-80089999D01*
X154856834Y-80034814D01*
X155006156Y-79942712D01*
X155099819Y-79849048D01*
X155161142Y-79815564D01*
X155230834Y-79820548D01*
X155275181Y-79849048D01*
X155368844Y-79942712D01*
X155518166Y-80034814D01*
X155684703Y-80089999D01*
X155787491Y-80100500D01*
X156150500Y-80100499D01*
X156217539Y-80120183D01*
X156263294Y-80172987D01*
X156274500Y-80224499D01*
X156274500Y-81366899D01*
X156254815Y-81433938D01*
X156248482Y-81442895D01*
X156244419Y-81448132D01*
X156244229Y-81448455D01*
X156244013Y-81448656D01*
X156239640Y-81454295D01*
X156238729Y-81453589D01*
X156193157Y-81496136D01*
X156124415Y-81508637D01*
X156059827Y-81481988D01*
X156035643Y-81454078D01*
X156035361Y-81454298D01*
X156031323Y-81449092D01*
X156030771Y-81448455D01*
X156030585Y-81448140D01*
X156030576Y-81448129D01*
X155914370Y-81331923D01*
X155914362Y-81331917D01*
X155772896Y-81248255D01*
X155772893Y-81248254D01*
X155615073Y-81202402D01*
X155615067Y-81202401D01*
X155578201Y-81199500D01*
X155578194Y-81199500D01*
X154421806Y-81199500D01*
X154421798Y-81199500D01*
X154384932Y-81202401D01*
X154384926Y-81202402D01*
X154239767Y-81244576D01*
X154205172Y-81249500D01*
X152563705Y-81249500D01*
X152545735Y-81248191D01*
X152521972Y-81244710D01*
X152476533Y-81248686D01*
X152469931Y-81249264D01*
X152464530Y-81249500D01*
X152456283Y-81249500D01*
X152424606Y-81253202D01*
X152422832Y-81253384D01*
X152392390Y-81256047D01*
X152347198Y-81260001D01*
X152340132Y-81261460D01*
X152340120Y-81261404D01*
X152332763Y-81263035D01*
X152332777Y-81263092D01*
X152325740Y-81264760D01*
X152254385Y-81290729D01*
X152252685Y-81291320D01*
X152180668Y-81315185D01*
X152174126Y-81318236D01*
X152174101Y-81318183D01*
X152167308Y-81321471D01*
X152167334Y-81321523D01*
X152160880Y-81324764D01*
X152097468Y-81366470D01*
X152095948Y-81367439D01*
X152031348Y-81407285D01*
X152025683Y-81411765D01*
X152025647Y-81411719D01*
X152019798Y-81416484D01*
X152019835Y-81416528D01*
X152014305Y-81421167D01*
X151964693Y-81473753D01*
X151904369Y-81509007D01*
X151834562Y-81506050D01*
X151777435Y-81465823D01*
X151751125Y-81401096D01*
X151750500Y-81388658D01*
X151750500Y-79079104D01*
X151770185Y-79012065D01*
X151822989Y-78966310D01*
X151892147Y-78956366D01*
X151955703Y-78985391D01*
G37*
%TD.AperFunction*%
%TA.AperFunction,Conductor*%
G36*
X143594855Y-64166546D02*
G01*
X143611571Y-64185837D01*
X143741505Y-64371401D01*
X143741506Y-64371402D01*
X143741507Y-64371403D01*
X143743173Y-64373069D01*
X143743675Y-64373988D01*
X143744987Y-64375552D01*
X143744673Y-64375815D01*
X143776664Y-64434389D01*
X143779500Y-64460758D01*
X143779500Y-68502848D01*
X143762233Y-68565967D01*
X143748256Y-68589601D01*
X143748254Y-68589606D01*
X143702402Y-68747426D01*
X143702401Y-68747432D01*
X143699500Y-68784298D01*
X143699500Y-69215701D01*
X143702401Y-69252567D01*
X143702402Y-69252573D01*
X143748254Y-69410393D01*
X143748255Y-69410396D01*
X143831917Y-69551863D01*
X143835979Y-69557099D01*
X143861514Y-69622136D01*
X143862000Y-69633100D01*
X143862000Y-69849006D01*
X143861980Y-69850576D01*
X143859743Y-69938862D01*
X143859743Y-69938870D01*
X143870564Y-69999239D01*
X143871218Y-70003904D01*
X143877425Y-70064930D01*
X143877427Y-70064944D01*
X143887708Y-70097713D01*
X143889579Y-70105337D01*
X143895642Y-70139152D01*
X143895642Y-70139155D01*
X143918394Y-70196112D01*
X143919974Y-70200551D01*
X143938341Y-70259088D01*
X143938344Y-70259095D01*
X143955009Y-70289119D01*
X143958379Y-70296214D01*
X143969987Y-70325274D01*
X143971122Y-70328114D01*
X143971127Y-70328124D01*
X144004877Y-70379333D01*
X144007318Y-70383363D01*
X144037088Y-70436998D01*
X144037089Y-70436999D01*
X144037091Y-70437002D01*
X144059468Y-70463067D01*
X144064193Y-70469335D01*
X144075510Y-70486506D01*
X144083098Y-70498019D01*
X144126478Y-70541399D01*
X144129669Y-70544843D01*
X144156728Y-70576362D01*
X144169634Y-70591395D01*
X144196794Y-70612418D01*
X144202690Y-70617611D01*
X144328419Y-70743340D01*
X144369277Y-70776655D01*
X144372641Y-70779398D01*
X144412158Y-70837019D01*
X144414250Y-70906858D01*
X144378252Y-70966740D01*
X144315593Y-70997655D01*
X144294280Y-70999500D01*
X142013493Y-70999500D01*
X142011930Y-70999480D01*
X141923637Y-70997243D01*
X141923636Y-70997243D01*
X141923627Y-70997243D01*
X141863253Y-71008065D01*
X141858587Y-71008719D01*
X141797563Y-71014925D01*
X141797562Y-71014925D01*
X141764786Y-71025208D01*
X141757159Y-71027080D01*
X141723350Y-71033140D01*
X141723347Y-71033141D01*
X141666368Y-71055899D01*
X141661931Y-71057478D01*
X141603417Y-71075838D01*
X141603406Y-71075843D01*
X141573382Y-71092507D01*
X141566290Y-71095875D01*
X141540262Y-71106273D01*
X141534383Y-71108622D01*
X141534382Y-71108622D01*
X141534381Y-71108623D01*
X141534373Y-71108627D01*
X141483155Y-71142383D01*
X141479126Y-71144824D01*
X141425502Y-71174588D01*
X141425499Y-71174590D01*
X141399427Y-71196970D01*
X141393160Y-71201695D01*
X141364482Y-71220598D01*
X141364475Y-71220603D01*
X141321116Y-71263962D01*
X141317661Y-71267164D01*
X141271106Y-71307132D01*
X141271105Y-71307133D01*
X141250076Y-71334300D01*
X141244884Y-71340194D01*
X140534399Y-72050681D01*
X140473076Y-72084166D01*
X140446718Y-72087000D01*
X139445623Y-72087000D01*
X139378584Y-72067315D01*
X139332829Y-72014511D01*
X139322885Y-71945353D01*
X139351910Y-71881797D01*
X139408503Y-71844687D01*
X139429305Y-71838159D01*
X139434088Y-71836659D01*
X139464127Y-71819984D01*
X139471208Y-71816622D01*
X139503117Y-71803877D01*
X139554354Y-71770108D01*
X139558351Y-71767687D01*
X139612002Y-71737909D01*
X139638068Y-71715530D01*
X139644343Y-71710800D01*
X139673019Y-71691902D01*
X139716417Y-71648502D01*
X139719836Y-71645334D01*
X139766395Y-71605366D01*
X139787431Y-71578188D01*
X139792601Y-71572318D01*
X140595734Y-70769185D01*
X140648816Y-70737792D01*
X140772898Y-70701744D01*
X140914365Y-70618081D01*
X141030581Y-70501865D01*
X141114244Y-70360398D01*
X141160098Y-70202569D01*
X141163000Y-70165694D01*
X141163000Y-69874500D01*
X141182685Y-69807461D01*
X141235489Y-69761706D01*
X141287000Y-69750500D01*
X141480172Y-69750500D01*
X141514767Y-69755424D01*
X141651294Y-69795089D01*
X141695059Y-69818063D01*
X141721586Y-69839693D01*
X141721589Y-69839694D01*
X141721592Y-69839697D01*
X141901951Y-69933909D01*
X142097582Y-69989886D01*
X142281659Y-70003904D01*
X142300475Y-70005337D01*
X142300476Y-70005337D01*
X142300477Y-70005337D01*
X142502320Y-69979631D01*
X142502320Y-69979630D01*
X142502327Y-69979630D01*
X142694872Y-69913816D01*
X142820788Y-69839693D01*
X142875648Y-69807399D01*
X142876042Y-69808068D01*
X142907598Y-69792505D01*
X143047898Y-69751744D01*
X143189365Y-69668081D01*
X143305581Y-69551865D01*
X143389244Y-69410398D01*
X143435098Y-69252569D01*
X143438000Y-69215694D01*
X143438000Y-68784306D01*
X143435098Y-68747431D01*
X143434437Y-68745157D01*
X143389245Y-68589606D01*
X143389244Y-68589603D01*
X143389244Y-68589602D01*
X143305581Y-68448135D01*
X143276816Y-68419370D01*
X143243333Y-68358047D01*
X143240500Y-68331691D01*
X143240500Y-64460757D01*
X143260185Y-64393718D01*
X143276822Y-64373073D01*
X143278495Y-64371401D01*
X143408426Y-64185841D01*
X143463002Y-64142217D01*
X143532500Y-64135023D01*
X143594855Y-64166546D01*
G37*
%TD.AperFunction*%
%TA.AperFunction,Conductor*%
G36*
X148101256Y-61520185D02*
G01*
X148121898Y-61536819D01*
X148823182Y-62238103D01*
X148856666Y-62299424D01*
X148859500Y-62325782D01*
X148859500Y-62539241D01*
X148839815Y-62606280D01*
X148823181Y-62626922D01*
X148821505Y-62628597D01*
X148691575Y-62814158D01*
X148636998Y-62857783D01*
X148567500Y-62864977D01*
X148505145Y-62833454D01*
X148488425Y-62814158D01*
X148358494Y-62628597D01*
X148191402Y-62461506D01*
X148191395Y-62461501D01*
X147997834Y-62325967D01*
X147997830Y-62325965D01*
X147913270Y-62286534D01*
X147783663Y-62226097D01*
X147783659Y-62226096D01*
X147783655Y-62226094D01*
X147555413Y-62164938D01*
X147555403Y-62164936D01*
X147320001Y-62144341D01*
X147319999Y-62144341D01*
X147084596Y-62164936D01*
X147084586Y-62164938D01*
X146856344Y-62226094D01*
X146856335Y-62226098D01*
X146642171Y-62325964D01*
X146642169Y-62325965D01*
X146448597Y-62461505D01*
X146281505Y-62628597D01*
X146151575Y-62814158D01*
X146096998Y-62857783D01*
X146027500Y-62864977D01*
X145965145Y-62833454D01*
X145948425Y-62814158D01*
X145818494Y-62628597D01*
X145651402Y-62461506D01*
X145651395Y-62461501D01*
X145457834Y-62325967D01*
X145457830Y-62325965D01*
X145373270Y-62286534D01*
X145243663Y-62226097D01*
X145243659Y-62226096D01*
X145243655Y-62226094D01*
X145015413Y-62164938D01*
X145015403Y-62164936D01*
X144780001Y-62144341D01*
X144779999Y-62144341D01*
X144544596Y-62164936D01*
X144544586Y-62164938D01*
X144316344Y-62226094D01*
X144316335Y-62226098D01*
X144102171Y-62325964D01*
X144102169Y-62325965D01*
X143908597Y-62461505D01*
X143741505Y-62628597D01*
X143611575Y-62814158D01*
X143556998Y-62857783D01*
X143487500Y-62864977D01*
X143425145Y-62833454D01*
X143408425Y-62814158D01*
X143278494Y-62628597D01*
X143111402Y-62461506D01*
X143111395Y-62461501D01*
X142917834Y-62325967D01*
X142917830Y-62325965D01*
X142833270Y-62286534D01*
X142703663Y-62226097D01*
X142703659Y-62226096D01*
X142703655Y-62226094D01*
X142475413Y-62164938D01*
X142475403Y-62164936D01*
X142240001Y-62144341D01*
X142239999Y-62144341D01*
X142004596Y-62164936D01*
X142004586Y-62164938D01*
X141776344Y-62226094D01*
X141776335Y-62226098D01*
X141562171Y-62325964D01*
X141562169Y-62325965D01*
X141368597Y-62461505D01*
X141201505Y-62628597D01*
X141065965Y-62822169D01*
X141065964Y-62822171D01*
X140966098Y-63036335D01*
X140966094Y-63036344D01*
X140904938Y-63264586D01*
X140904936Y-63264596D01*
X140884341Y-63499999D01*
X140884341Y-63500000D01*
X140904936Y-63735403D01*
X140904938Y-63735413D01*
X140966094Y-63963655D01*
X140966096Y-63963659D01*
X140966097Y-63963663D01*
X140970000Y-63972032D01*
X141065965Y-64177830D01*
X141065967Y-64177834D01*
X141174281Y-64332521D01*
X141201504Y-64371400D01*
X141201506Y-64371402D01*
X141203181Y-64373077D01*
X141203682Y-64373995D01*
X141204982Y-64375544D01*
X141204670Y-64375805D01*
X141236666Y-64434400D01*
X141239500Y-64460758D01*
X141239500Y-68125500D01*
X141219815Y-68192539D01*
X141167011Y-68238294D01*
X141115500Y-68249500D01*
X138931741Y-68249500D01*
X138881306Y-68238780D01*
X138764267Y-68186671D01*
X138764265Y-68186670D01*
X138636594Y-68159533D01*
X138589391Y-68149500D01*
X138410609Y-68149500D01*
X138379954Y-68156015D01*
X138235733Y-68186670D01*
X138118694Y-68238780D01*
X138068259Y-68249500D01*
X137981727Y-68249500D01*
X137916631Y-68231039D01*
X137808750Y-68164498D01*
X137769336Y-68140187D01*
X137769331Y-68140185D01*
X137767862Y-68139698D01*
X137602797Y-68085001D01*
X137602795Y-68085000D01*
X137500010Y-68074500D01*
X136499998Y-68074500D01*
X136499980Y-68074501D01*
X136397203Y-68085000D01*
X136397200Y-68085001D01*
X136230668Y-68140185D01*
X136230663Y-68140187D01*
X136081342Y-68232289D01*
X135957289Y-68356342D01*
X135865187Y-68505663D01*
X135865185Y-68505668D01*
X135863618Y-68510398D01*
X135810001Y-68672203D01*
X135810001Y-68672204D01*
X135810000Y-68672204D01*
X135799500Y-68774983D01*
X135799500Y-69400001D01*
X135799501Y-69400019D01*
X135810000Y-69502796D01*
X135810001Y-69502799D01*
X135847371Y-69615572D01*
X135865186Y-69669334D01*
X135956922Y-69818063D01*
X135957289Y-69818657D01*
X136050951Y-69912319D01*
X136084436Y-69973642D01*
X136079452Y-70043334D01*
X136050951Y-70087681D01*
X135957289Y-70181342D01*
X135865187Y-70330663D01*
X135865185Y-70330668D01*
X135847724Y-70383363D01*
X135813026Y-70488076D01*
X135810001Y-70497204D01*
X135810000Y-70497205D01*
X135799641Y-70598603D01*
X135773244Y-70663295D01*
X135716063Y-70703446D01*
X135646252Y-70706309D01*
X135588602Y-70673681D01*
X135036819Y-70121897D01*
X135003334Y-70060574D01*
X135000500Y-70034216D01*
X135000500Y-66465783D01*
X135020185Y-66398744D01*
X135036819Y-66378102D01*
X139878102Y-61536819D01*
X139939425Y-61503334D01*
X139965783Y-61500500D01*
X148034217Y-61500500D01*
X148101256Y-61520185D01*
G37*
%TD.AperFunction*%
%TA.AperFunction,Conductor*%
G36*
X146134854Y-64166546D02*
G01*
X146151574Y-64185841D01*
X146281505Y-64371401D01*
X146281506Y-64371402D01*
X146283181Y-64373077D01*
X146283682Y-64373995D01*
X146284982Y-64375544D01*
X146284670Y-64375805D01*
X146316666Y-64434400D01*
X146319500Y-64460758D01*
X146319500Y-65306506D01*
X146319480Y-65308076D01*
X146317243Y-65396362D01*
X146317243Y-65396370D01*
X146328064Y-65456739D01*
X146328718Y-65461404D01*
X146334925Y-65522430D01*
X146334927Y-65522444D01*
X146345208Y-65555213D01*
X146347079Y-65562837D01*
X146353142Y-65596652D01*
X146353142Y-65596655D01*
X146375894Y-65653612D01*
X146377474Y-65658051D01*
X146395841Y-65716588D01*
X146395844Y-65716595D01*
X146412509Y-65746619D01*
X146415879Y-65753714D01*
X146428622Y-65785614D01*
X146428627Y-65785624D01*
X146462377Y-65836833D01*
X146464818Y-65840863D01*
X146494588Y-65894498D01*
X146494589Y-65894499D01*
X146494591Y-65894502D01*
X146516968Y-65920567D01*
X146521693Y-65926835D01*
X146540599Y-65955520D01*
X146540600Y-65955522D01*
X146583965Y-65998887D01*
X146587168Y-66002343D01*
X146627133Y-66048894D01*
X146654299Y-66069923D01*
X146660186Y-66075107D01*
X146963181Y-66378102D01*
X147246723Y-66661644D01*
X147280208Y-66722967D01*
X147275224Y-66792659D01*
X147257102Y-66825221D01*
X147250081Y-66834293D01*
X147244886Y-66840191D01*
X147061002Y-67024076D01*
X146999679Y-67057561D01*
X146985867Y-67059759D01*
X146935061Y-67064925D01*
X146935060Y-67064926D01*
X146740920Y-67125837D01*
X146740910Y-67125842D01*
X146562993Y-67224594D01*
X146555160Y-67231319D01*
X146508987Y-67256307D01*
X146364606Y-67298253D01*
X146364603Y-67298255D01*
X146223137Y-67381917D01*
X146223129Y-67381923D01*
X146106923Y-67498129D01*
X146106917Y-67498137D01*
X146023255Y-67639603D01*
X146020156Y-67646765D01*
X146018699Y-67646134D01*
X145985968Y-67697385D01*
X145922495Y-67726590D01*
X145853309Y-67716843D01*
X145800375Y-67671238D01*
X145780500Y-67604255D01*
X145780500Y-64460758D01*
X145800185Y-64393719D01*
X145816827Y-64373069D01*
X145816897Y-64372998D01*
X145818495Y-64371401D01*
X145948426Y-64185840D01*
X146003001Y-64142217D01*
X146072499Y-64135023D01*
X146134854Y-64166546D01*
G37*
%TD.AperFunction*%
%TA.AperFunction,Conductor*%
G36*
X165101132Y-57150542D02*
G01*
X165367225Y-57160498D01*
X165577583Y-57168764D01*
X165582032Y-57169102D01*
X165835974Y-57197715D01*
X166061099Y-57224360D01*
X166065303Y-57225006D01*
X166313451Y-57271958D01*
X166538986Y-57316819D01*
X166542853Y-57317721D01*
X166785652Y-57382779D01*
X167008288Y-57445569D01*
X167011911Y-57446713D01*
X167248532Y-57529511D01*
X167466363Y-57609873D01*
X167469661Y-57611200D01*
X167698568Y-57711071D01*
X167699704Y-57711581D01*
X167910484Y-57808752D01*
X167913428Y-57810207D01*
X168134014Y-57926790D01*
X168135262Y-57927469D01*
X168338027Y-58041023D01*
X168340662Y-58042587D01*
X168546667Y-58172028D01*
X168551743Y-58175218D01*
X168553185Y-58176152D01*
X168746495Y-58305318D01*
X168748867Y-58306984D01*
X168949333Y-58454935D01*
X168950874Y-58456110D01*
X169133553Y-58600123D01*
X169135549Y-58601767D01*
X169324378Y-58764267D01*
X169326007Y-58765721D01*
X169496852Y-58923648D01*
X169498594Y-58925324D01*
X169674674Y-59101404D01*
X169676362Y-59103159D01*
X169834277Y-59273991D01*
X169835738Y-59275628D01*
X169998223Y-59464440D01*
X169999883Y-59466456D01*
X170140161Y-59644397D01*
X170143868Y-59649099D01*
X170145063Y-59650665D01*
X170293014Y-59851131D01*
X170294680Y-59853503D01*
X170423834Y-60046795D01*
X170424780Y-60048255D01*
X170557390Y-60259301D01*
X170558988Y-60261993D01*
X170672508Y-60464698D01*
X170673228Y-60466022D01*
X170789777Y-60686542D01*
X170791259Y-60689541D01*
X170888414Y-60900288D01*
X170888936Y-60901451D01*
X170988796Y-61130333D01*
X170990138Y-61133668D01*
X171070486Y-61351463D01*
X171153284Y-61588086D01*
X171154436Y-61591735D01*
X171217221Y-61814353D01*
X171282270Y-62057118D01*
X171283188Y-62061057D01*
X171318405Y-62238101D01*
X171328039Y-62286534D01*
X171374989Y-62534677D01*
X171375640Y-62538917D01*
X171402279Y-62763983D01*
X171430894Y-63017950D01*
X171431237Y-63022459D01*
X171439521Y-63233300D01*
X171440480Y-63258942D01*
X171449457Y-63498868D01*
X171449500Y-63501152D01*
X171449500Y-101598847D01*
X171449457Y-101601132D01*
X171440985Y-101827555D01*
X171439521Y-101866699D01*
X171431237Y-102077539D01*
X171430894Y-102082048D01*
X171402279Y-102336015D01*
X171375640Y-102561081D01*
X171374989Y-102565321D01*
X171328039Y-102813464D01*
X171283192Y-103038927D01*
X171282270Y-103042880D01*
X171217221Y-103285645D01*
X171154436Y-103508263D01*
X171153284Y-103511912D01*
X171070486Y-103748535D01*
X170990138Y-103966330D01*
X170988796Y-103969665D01*
X170888936Y-104198547D01*
X170888414Y-104199710D01*
X170791259Y-104410457D01*
X170789769Y-104413472D01*
X170673228Y-104633976D01*
X170672508Y-104635300D01*
X170558988Y-104838005D01*
X170557390Y-104840697D01*
X170424780Y-105051743D01*
X170423834Y-105053203D01*
X170294680Y-105246495D01*
X170293014Y-105248867D01*
X170145063Y-105449333D01*
X170143868Y-105450899D01*
X169999906Y-105633515D01*
X169998210Y-105635574D01*
X169835743Y-105824364D01*
X169834277Y-105826007D01*
X169676362Y-105996839D01*
X169674674Y-105998594D01*
X169498594Y-106174674D01*
X169496839Y-106176362D01*
X169326007Y-106334277D01*
X169324364Y-106335743D01*
X169135574Y-106498210D01*
X169133515Y-106499906D01*
X168950899Y-106643868D01*
X168949333Y-106645063D01*
X168748867Y-106793014D01*
X168746495Y-106794680D01*
X168553203Y-106923834D01*
X168551743Y-106924780D01*
X168340697Y-107057390D01*
X168338005Y-107058988D01*
X168135300Y-107172508D01*
X168133976Y-107173228D01*
X167913472Y-107289769D01*
X167910457Y-107291259D01*
X167699710Y-107388414D01*
X167698547Y-107388936D01*
X167469665Y-107488796D01*
X167466330Y-107490138D01*
X167248535Y-107570486D01*
X167011912Y-107653284D01*
X167008263Y-107654436D01*
X166785645Y-107717221D01*
X166542880Y-107782270D01*
X166538927Y-107783192D01*
X166313464Y-107828039D01*
X166065321Y-107874989D01*
X166061081Y-107875640D01*
X165836015Y-107902279D01*
X165582048Y-107930894D01*
X165577538Y-107931237D01*
X165366889Y-107939513D01*
X165203648Y-107945621D01*
X165101132Y-107949457D01*
X165098848Y-107949500D01*
X127001152Y-107949500D01*
X126998867Y-107949457D01*
X126891409Y-107945436D01*
X126733109Y-107939513D01*
X126522460Y-107931237D01*
X126517950Y-107930894D01*
X126263983Y-107902279D01*
X126038917Y-107875640D01*
X126034677Y-107874989D01*
X125786534Y-107828039D01*
X125561057Y-107783188D01*
X125557118Y-107782270D01*
X125314353Y-107717221D01*
X125091735Y-107654436D01*
X125088086Y-107653284D01*
X124851463Y-107570486D01*
X124633668Y-107490138D01*
X124630333Y-107488796D01*
X124401451Y-107388936D01*
X124400288Y-107388414D01*
X124189541Y-107291259D01*
X124186542Y-107289777D01*
X124051687Y-107218504D01*
X123966022Y-107173228D01*
X123964698Y-107172508D01*
X123761993Y-107058988D01*
X123759313Y-107057397D01*
X123637545Y-106980885D01*
X123548255Y-106924780D01*
X123546795Y-106923834D01*
X123353503Y-106794680D01*
X123351131Y-106793014D01*
X123150665Y-106645063D01*
X123149099Y-106643868D01*
X122966456Y-106499883D01*
X122964440Y-106498223D01*
X122775628Y-106335738D01*
X122773991Y-106334277D01*
X122603159Y-106176362D01*
X122601404Y-106174674D01*
X122425324Y-105998594D01*
X122423648Y-105996852D01*
X122265721Y-105826007D01*
X122264255Y-105824364D01*
X122101767Y-105635549D01*
X122100123Y-105633553D01*
X121956110Y-105450874D01*
X121954935Y-105449333D01*
X121806984Y-105248867D01*
X121805318Y-105246495D01*
X121676164Y-105053203D01*
X121675218Y-105051743D01*
X121672028Y-105046667D01*
X121542587Y-104840662D01*
X121541023Y-104838027D01*
X121427469Y-104635262D01*
X121426790Y-104634014D01*
X121310207Y-104413428D01*
X121308752Y-104410484D01*
X121211581Y-104199704D01*
X121211062Y-104198547D01*
X121111202Y-103969665D01*
X121109873Y-103966363D01*
X121029507Y-103748521D01*
X120946714Y-103511912D01*
X120945569Y-103508288D01*
X120882779Y-103285652D01*
X120817721Y-103042853D01*
X120816819Y-103038986D01*
X120771958Y-102813451D01*
X120725006Y-102565303D01*
X120724360Y-102561099D01*
X120697715Y-102335974D01*
X120669102Y-102082032D01*
X120668764Y-102077581D01*
X120660489Y-101866983D01*
X120650542Y-101601131D01*
X120650500Y-101598848D01*
X120650500Y-86025474D01*
X122994662Y-86025474D01*
X122996235Y-86037819D01*
X122999003Y-86059560D01*
X122999500Y-86067388D01*
X122999500Y-90986506D01*
X122999480Y-90988076D01*
X122997243Y-91076362D01*
X122997243Y-91076370D01*
X123008064Y-91136739D01*
X123008718Y-91141404D01*
X123014925Y-91202430D01*
X123014927Y-91202444D01*
X123025208Y-91235213D01*
X123027079Y-91242837D01*
X123033142Y-91276652D01*
X123033142Y-91276655D01*
X123055894Y-91333612D01*
X123057474Y-91338051D01*
X123075841Y-91396588D01*
X123075844Y-91396595D01*
X123092509Y-91426619D01*
X123095879Y-91433714D01*
X123108622Y-91465614D01*
X123108627Y-91465624D01*
X123142377Y-91516833D01*
X123144818Y-91520863D01*
X123174588Y-91574498D01*
X123174589Y-91574499D01*
X123174591Y-91574502D01*
X123196968Y-91600567D01*
X123201693Y-91606835D01*
X123207497Y-91615641D01*
X123220598Y-91635519D01*
X123263978Y-91678899D01*
X123267169Y-91682343D01*
X123307131Y-91728892D01*
X123307134Y-91728895D01*
X123334294Y-91749918D01*
X123340190Y-91755111D01*
X126283042Y-94697963D01*
X126284101Y-94699050D01*
X126344937Y-94763050D01*
X126344941Y-94763053D01*
X126395281Y-94798092D01*
X126399043Y-94800928D01*
X126446587Y-94839694D01*
X126446590Y-94839695D01*
X126446593Y-94839698D01*
X126477045Y-94855604D01*
X126483758Y-94859672D01*
X126511951Y-94879295D01*
X126568329Y-94903489D01*
X126572578Y-94905507D01*
X126626951Y-94933909D01*
X126654489Y-94941788D01*
X126659974Y-94943358D01*
X126667368Y-94945990D01*
X126698942Y-94959540D01*
X126698945Y-94959540D01*
X126698946Y-94959541D01*
X126759022Y-94971887D01*
X126763600Y-94973010D01*
X126777501Y-94976987D01*
X126822582Y-94989887D01*
X126856839Y-94992495D01*
X126864614Y-94993586D01*
X126898255Y-95000500D01*
X126898259Y-95000500D01*
X126959599Y-95000500D01*
X126964305Y-95000678D01*
X126999063Y-95003325D01*
X127025476Y-95005337D01*
X127025476Y-95005336D01*
X127025477Y-95005337D01*
X127059560Y-95000996D01*
X127067390Y-95000500D01*
X128875500Y-95000500D01*
X128942539Y-95020185D01*
X128988294Y-95072989D01*
X128999500Y-95124500D01*
X128999500Y-96966506D01*
X128999480Y-96968076D01*
X128997243Y-97056362D01*
X128997243Y-97056370D01*
X129008064Y-97116739D01*
X129008718Y-97121404D01*
X129014925Y-97182430D01*
X129014927Y-97182444D01*
X129025208Y-97215213D01*
X129027079Y-97222837D01*
X129033142Y-97256652D01*
X129033142Y-97256655D01*
X129055894Y-97313612D01*
X129057474Y-97318051D01*
X129075841Y-97376588D01*
X129075844Y-97376595D01*
X129092509Y-97406619D01*
X129095879Y-97413714D01*
X129108622Y-97445614D01*
X129108627Y-97445624D01*
X129142377Y-97496833D01*
X129144818Y-97500863D01*
X129174588Y-97554498D01*
X129174589Y-97554499D01*
X129174591Y-97554502D01*
X129196968Y-97580567D01*
X129201693Y-97586835D01*
X129214263Y-97605906D01*
X129220598Y-97615519D01*
X129263978Y-97658899D01*
X129267169Y-97662343D01*
X129307131Y-97708892D01*
X129307134Y-97708895D01*
X129334294Y-97729918D01*
X129340190Y-97735111D01*
X132637819Y-101032740D01*
X132671304Y-101094063D01*
X132671304Y-101146779D01*
X132634805Y-101314564D01*
X132634804Y-101314571D01*
X132614390Y-101599998D01*
X132614390Y-101600001D01*
X132634804Y-101885433D01*
X132695628Y-102165037D01*
X132695630Y-102165043D01*
X132695631Y-102165046D01*
X132795633Y-102433161D01*
X132795635Y-102433166D01*
X132932770Y-102684309D01*
X132932775Y-102684317D01*
X133104254Y-102913387D01*
X133104270Y-102913405D01*
X133306594Y-103115729D01*
X133306612Y-103115745D01*
X133535682Y-103287224D01*
X133535690Y-103287229D01*
X133786833Y-103424364D01*
X133786832Y-103424364D01*
X133786836Y-103424365D01*
X133786839Y-103424367D01*
X134054954Y-103524369D01*
X134054960Y-103524370D01*
X134054962Y-103524371D01*
X134334566Y-103585195D01*
X134334568Y-103585195D01*
X134334572Y-103585196D01*
X134588220Y-103603337D01*
X134619999Y-103605610D01*
X134620000Y-103605610D01*
X134620001Y-103605610D01*
X134648595Y-103603564D01*
X134905428Y-103585196D01*
X135185046Y-103524369D01*
X135453161Y-103424367D01*
X135704315Y-103287226D01*
X135933395Y-103115739D01*
X136135739Y-102913395D01*
X136307226Y-102684315D01*
X136444367Y-102433161D01*
X136544369Y-102165046D01*
X136605196Y-101885428D01*
X136625610Y-101600000D01*
X136605196Y-101314572D01*
X136605194Y-101314564D01*
X136544371Y-101034962D01*
X136544370Y-101034960D01*
X136544369Y-101034954D01*
X136444367Y-100766839D01*
X136307226Y-100515685D01*
X136307224Y-100515682D01*
X136135745Y-100286612D01*
X136135729Y-100286594D01*
X135933405Y-100084270D01*
X135933387Y-100084254D01*
X135704317Y-99912775D01*
X135704309Y-99912770D01*
X135453166Y-99775635D01*
X135453167Y-99775635D01*
X135345915Y-99735632D01*
X135185046Y-99675631D01*
X135185043Y-99675630D01*
X135185037Y-99675628D01*
X134905433Y-99614804D01*
X134620001Y-99594390D01*
X134619999Y-99594390D01*
X134334571Y-99614804D01*
X134334564Y-99614805D01*
X134166778Y-99651304D01*
X134097086Y-99646320D01*
X134052739Y-99617819D01*
X131036819Y-96601899D01*
X131003334Y-96540576D01*
X131000500Y-96514218D01*
X131000500Y-96189998D01*
X131000500Y-95859164D01*
X131020183Y-95792129D01*
X131072987Y-95746374D01*
X131142146Y-95736430D01*
X131159094Y-95740092D01*
X131184926Y-95747597D01*
X131184929Y-95747597D01*
X131184931Y-95747598D01*
X131221806Y-95750500D01*
X131234838Y-95750500D01*
X131301877Y-95770185D01*
X131305675Y-95772725D01*
X131386949Y-95829294D01*
X131386950Y-95829294D01*
X131386951Y-95829295D01*
X131573942Y-95909540D01*
X131773259Y-95950500D01*
X133796182Y-95950500D01*
X133863221Y-95970185D01*
X133908976Y-96022989D01*
X133913888Y-96035496D01*
X133962996Y-96183694D01*
X133963001Y-96183705D01*
X134052029Y-96328040D01*
X134052032Y-96328044D01*
X134171955Y-96447967D01*
X134171959Y-96447970D01*
X134316294Y-96536998D01*
X134316297Y-96536999D01*
X134316303Y-96537003D01*
X134477292Y-96590349D01*
X134576655Y-96600500D01*
X134652390Y-96600499D01*
X134692589Y-96608762D01*
X134692937Y-96607656D01*
X134698933Y-96609536D01*
X134698942Y-96609540D01*
X134759049Y-96621891D01*
X134763595Y-96623006D01*
X134822582Y-96639886D01*
X134856829Y-96642493D01*
X134864600Y-96643582D01*
X134898259Y-96650500D01*
X134959611Y-96650500D01*
X134964317Y-96650678D01*
X135025476Y-96655336D01*
X135053716Y-96651739D01*
X135059549Y-96650997D01*
X135067389Y-96650500D01*
X135336507Y-96650500D01*
X135338069Y-96650519D01*
X135375283Y-96651462D01*
X135426358Y-96652757D01*
X135426358Y-96652756D01*
X135426363Y-96652757D01*
X135486753Y-96641932D01*
X135491412Y-96641280D01*
X135533607Y-96636988D01*
X135552438Y-96635074D01*
X135585227Y-96624786D01*
X135592840Y-96622918D01*
X135626653Y-96616858D01*
X135683621Y-96594101D01*
X135688053Y-96592524D01*
X135694985Y-96590349D01*
X135746588Y-96574159D01*
X135776627Y-96557484D01*
X135783708Y-96554122D01*
X135815617Y-96541377D01*
X135866854Y-96507608D01*
X135870851Y-96505187D01*
X135924502Y-96475409D01*
X135950568Y-96453030D01*
X135956843Y-96448300D01*
X135957347Y-96447968D01*
X135985519Y-96429402D01*
X136028917Y-96386002D01*
X136032336Y-96382834D01*
X136078895Y-96342866D01*
X136099931Y-96315688D01*
X136105101Y-96309818D01*
X138289979Y-94124941D01*
X138351300Y-94091458D01*
X138390251Y-94091435D01*
X138390469Y-94089311D01*
X138397202Y-94089998D01*
X138397203Y-94089999D01*
X138499991Y-94100500D01*
X139500008Y-94100499D01*
X139500016Y-94100498D01*
X139500019Y-94100498D01*
X139583854Y-94091934D01*
X139602797Y-94089999D01*
X139769334Y-94034814D01*
X139918656Y-93942712D01*
X140042712Y-93818656D01*
X140134814Y-93669334D01*
X140189999Y-93502797D01*
X140200500Y-93400009D01*
X140200499Y-92774992D01*
X140198552Y-92755936D01*
X140189999Y-92672203D01*
X140189998Y-92672200D01*
X140162122Y-92588076D01*
X140134814Y-92505666D01*
X140042712Y-92356344D01*
X139918656Y-92232288D01*
X139915008Y-92230037D01*
X139913032Y-92227841D01*
X139912989Y-92227807D01*
X139912994Y-92227799D01*
X139868285Y-92178091D01*
X139857062Y-92109128D01*
X139884906Y-92045046D01*
X139942975Y-92006190D01*
X139980106Y-92000500D01*
X140375500Y-92000500D01*
X140442539Y-92020185D01*
X140488294Y-92072989D01*
X140499500Y-92124500D01*
X140499500Y-92586506D01*
X140499480Y-92588076D01*
X140497243Y-92676362D01*
X140497243Y-92676370D01*
X140508064Y-92736739D01*
X140508718Y-92741404D01*
X140514925Y-92802430D01*
X140514927Y-92802444D01*
X140525208Y-92835213D01*
X140527079Y-92842837D01*
X140533142Y-92876652D01*
X140533142Y-92876655D01*
X140555894Y-92933612D01*
X140557474Y-92938051D01*
X140575841Y-92996588D01*
X140575844Y-92996595D01*
X140592509Y-93026619D01*
X140595879Y-93033714D01*
X140608622Y-93065614D01*
X140608627Y-93065624D01*
X140642377Y-93116833D01*
X140644818Y-93120863D01*
X140674588Y-93174498D01*
X140674589Y-93174499D01*
X140674591Y-93174502D01*
X140696968Y-93200567D01*
X140701693Y-93206835D01*
X140720599Y-93235520D01*
X140738179Y-93253100D01*
X140771666Y-93314422D01*
X140774500Y-93340781D01*
X140774500Y-93400000D01*
X140774501Y-93400019D01*
X140785000Y-93502796D01*
X140785001Y-93502799D01*
X140840185Y-93669331D01*
X140840187Y-93669336D01*
X140853782Y-93691377D01*
X140932288Y-93818656D01*
X141056344Y-93942712D01*
X141205666Y-94034814D01*
X141372203Y-94089999D01*
X141474991Y-94100500D01*
X141883816Y-94100499D01*
X141883826Y-94100500D01*
X141898259Y-94100500D01*
X141959599Y-94100500D01*
X141964305Y-94100678D01*
X141991596Y-94102757D01*
X142025476Y-94105337D01*
X142025476Y-94105336D01*
X142025477Y-94105337D01*
X142059560Y-94100996D01*
X142067390Y-94100500D01*
X144936507Y-94100500D01*
X144938069Y-94100519D01*
X144975283Y-94101462D01*
X145026358Y-94102757D01*
X145026358Y-94102756D01*
X145026363Y-94102757D01*
X145086753Y-94091932D01*
X145091412Y-94091280D01*
X145135277Y-94086819D01*
X145152438Y-94085074D01*
X145185227Y-94074786D01*
X145192840Y-94072918D01*
X145226653Y-94066858D01*
X145245457Y-94059346D01*
X145291454Y-94050500D01*
X145334217Y-94050500D01*
X145401256Y-94070185D01*
X145421898Y-94086819D01*
X145783005Y-94447926D01*
X145784070Y-94449017D01*
X145832514Y-94499980D01*
X145844939Y-94513051D01*
X145844945Y-94513056D01*
X145895295Y-94548101D01*
X145899047Y-94550929D01*
X145946592Y-94589697D01*
X145946595Y-94589698D01*
X145946597Y-94589700D01*
X145977039Y-94605601D01*
X145983753Y-94609668D01*
X146011947Y-94629292D01*
X146011953Y-94629296D01*
X146068331Y-94653490D01*
X146072569Y-94655502D01*
X146126951Y-94683909D01*
X146159973Y-94693356D01*
X146167365Y-94695989D01*
X146193732Y-94707304D01*
X146198942Y-94709540D01*
X146259049Y-94721891D01*
X146263595Y-94723006D01*
X146322582Y-94739886D01*
X146356829Y-94742493D01*
X146364600Y-94743582D01*
X146398259Y-94750500D01*
X146459611Y-94750500D01*
X146464317Y-94750678D01*
X146525476Y-94755336D01*
X146553716Y-94751739D01*
X146559549Y-94750997D01*
X146567389Y-94750500D01*
X146738000Y-94750500D01*
X146805039Y-94770185D01*
X146850794Y-94822989D01*
X146862000Y-94874500D01*
X146862000Y-99552418D01*
X146842315Y-99619457D01*
X146789511Y-99665212D01*
X146764365Y-99673583D01*
X146754961Y-99675629D01*
X146754957Y-99675630D01*
X146754954Y-99675631D01*
X146575514Y-99742559D01*
X146486833Y-99775635D01*
X146235690Y-99912770D01*
X146235682Y-99912775D01*
X146006612Y-100084254D01*
X146006594Y-100084270D01*
X145804270Y-100286594D01*
X145804254Y-100286612D01*
X145632775Y-100515682D01*
X145632770Y-100515690D01*
X145495635Y-100766833D01*
X145395628Y-101034962D01*
X145334804Y-101314566D01*
X145314390Y-101599998D01*
X145314390Y-101600001D01*
X145334804Y-101885433D01*
X145395628Y-102165037D01*
X145395630Y-102165043D01*
X145395631Y-102165046D01*
X145495633Y-102433161D01*
X145495635Y-102433166D01*
X145632770Y-102684309D01*
X145632775Y-102684317D01*
X145804254Y-102913387D01*
X145804270Y-102913405D01*
X146006594Y-103115729D01*
X146006612Y-103115745D01*
X146235682Y-103287224D01*
X146235690Y-103287229D01*
X146486833Y-103424364D01*
X146486832Y-103424364D01*
X146486836Y-103424365D01*
X146486839Y-103424367D01*
X146754954Y-103524369D01*
X146754960Y-103524370D01*
X146754962Y-103524371D01*
X147034566Y-103585195D01*
X147034568Y-103585195D01*
X147034572Y-103585196D01*
X147288220Y-103603337D01*
X147319999Y-103605610D01*
X147320000Y-103605610D01*
X147320001Y-103605610D01*
X147348595Y-103603564D01*
X147605428Y-103585196D01*
X147885046Y-103524369D01*
X148153161Y-103424367D01*
X148404315Y-103287226D01*
X148633395Y-103115739D01*
X148835739Y-102913395D01*
X149007226Y-102684315D01*
X149144367Y-102433161D01*
X149244369Y-102165046D01*
X149305196Y-101885428D01*
X149325610Y-101600000D01*
X149305196Y-101314572D01*
X149305194Y-101314564D01*
X149244371Y-101034962D01*
X149244370Y-101034960D01*
X149244369Y-101034954D01*
X149144367Y-100766839D01*
X149007226Y-100515685D01*
X148887733Y-100356060D01*
X148863316Y-100290596D01*
X148863000Y-100281750D01*
X148863000Y-94383100D01*
X148882685Y-94316061D01*
X148889021Y-94307099D01*
X148893078Y-94301867D01*
X148893081Y-94301865D01*
X148976744Y-94160398D01*
X149018669Y-94016094D01*
X149022597Y-94002573D01*
X149022598Y-94002567D01*
X149023551Y-93990459D01*
X149025500Y-93965694D01*
X149025500Y-93567895D01*
X149045185Y-93500856D01*
X149097989Y-93455101D01*
X149167147Y-93445157D01*
X149215496Y-93465671D01*
X149216420Y-93464110D01*
X149257034Y-93488128D01*
X149364602Y-93551744D01*
X149399970Y-93562019D01*
X149519321Y-93596695D01*
X149558119Y-93615824D01*
X149627333Y-93666649D01*
X149627337Y-93666651D01*
X149627336Y-93666651D01*
X149812225Y-93751602D01*
X149812232Y-93751605D01*
X149877956Y-93766857D01*
X150010445Y-93797603D01*
X150213858Y-93802757D01*
X150213858Y-93802756D01*
X150213863Y-93802757D01*
X150393353Y-93770586D01*
X150414148Y-93766859D01*
X150414148Y-93766858D01*
X150414153Y-93766858D01*
X150603117Y-93691377D01*
X150724124Y-93611625D01*
X150757752Y-93596092D01*
X150910398Y-93551744D01*
X151051865Y-93468081D01*
X151168081Y-93351865D01*
X151251744Y-93210398D01*
X151251745Y-93210394D01*
X151251746Y-93210393D01*
X151272225Y-93139905D01*
X151309831Y-93081019D01*
X151373304Y-93051813D01*
X151391301Y-93050500D01*
X151898259Y-93050500D01*
X151963000Y-93050500D01*
X152030039Y-93070185D01*
X152075794Y-93122989D01*
X152087000Y-93174500D01*
X152087000Y-94374740D01*
X152085339Y-94390433D01*
X152085689Y-94390469D01*
X152074500Y-94499983D01*
X152074500Y-95500001D01*
X152074501Y-95500019D01*
X152085000Y-95602796D01*
X152085001Y-95602799D01*
X152140185Y-95769331D01*
X152140187Y-95769336D01*
X152154246Y-95792129D01*
X152232288Y-95918656D01*
X152356344Y-96042712D01*
X152505666Y-96134814D01*
X152672203Y-96189999D01*
X152774991Y-96200500D01*
X153400008Y-96200499D01*
X153400016Y-96200498D01*
X153400019Y-96200498D01*
X153456302Y-96194748D01*
X153502797Y-96189999D01*
X153669334Y-96134814D01*
X153722904Y-96101771D01*
X153790296Y-96083332D01*
X153856959Y-96104255D01*
X153901729Y-96157897D01*
X153912000Y-96207311D01*
X153912000Y-98621717D01*
X153892315Y-98688756D01*
X153875681Y-98709398D01*
X152967259Y-99617819D01*
X152905936Y-99651304D01*
X152853220Y-99651304D01*
X152685435Y-99614805D01*
X152685428Y-99614804D01*
X152400001Y-99594390D01*
X152399999Y-99594390D01*
X152114566Y-99614804D01*
X151834962Y-99675628D01*
X151566833Y-99775635D01*
X151315690Y-99912770D01*
X151315682Y-99912775D01*
X151086612Y-100084254D01*
X151086594Y-100084270D01*
X150884270Y-100286594D01*
X150884254Y-100286612D01*
X150712775Y-100515682D01*
X150712770Y-100515690D01*
X150575635Y-100766833D01*
X150475628Y-101034962D01*
X150414804Y-101314566D01*
X150394390Y-101599998D01*
X150394390Y-101600001D01*
X150414804Y-101885433D01*
X150475628Y-102165037D01*
X150475630Y-102165043D01*
X150475631Y-102165046D01*
X150575633Y-102433161D01*
X150575635Y-102433166D01*
X150712770Y-102684309D01*
X150712775Y-102684317D01*
X150884254Y-102913387D01*
X150884270Y-102913405D01*
X151086594Y-103115729D01*
X151086612Y-103115745D01*
X151315682Y-103287224D01*
X151315690Y-103287229D01*
X151566833Y-103424364D01*
X151566832Y-103424364D01*
X151566836Y-103424365D01*
X151566839Y-103424367D01*
X151834954Y-103524369D01*
X151834960Y-103524370D01*
X151834962Y-103524371D01*
X152114566Y-103585195D01*
X152114568Y-103585195D01*
X152114572Y-103585196D01*
X152368220Y-103603337D01*
X152399999Y-103605610D01*
X152400000Y-103605610D01*
X152400001Y-103605610D01*
X152428595Y-103603564D01*
X152685428Y-103585196D01*
X152965046Y-103524369D01*
X153233161Y-103424367D01*
X153484315Y-103287226D01*
X153713395Y-103115739D01*
X153915739Y-102913395D01*
X154087226Y-102684315D01*
X154224367Y-102433161D01*
X154324369Y-102165046D01*
X154385196Y-101885428D01*
X154405610Y-101600000D01*
X154385196Y-101314572D01*
X154348694Y-101146777D01*
X154353678Y-101077088D01*
X154382177Y-101032742D01*
X155610501Y-99804418D01*
X155611514Y-99803431D01*
X155675553Y-99742559D01*
X155710612Y-99692186D01*
X155713425Y-99688457D01*
X155752198Y-99640907D01*
X155768107Y-99610448D01*
X155772167Y-99603748D01*
X155791795Y-99575549D01*
X155815992Y-99519160D01*
X155817998Y-99514935D01*
X155846409Y-99460549D01*
X155855860Y-99427515D01*
X155858491Y-99420128D01*
X155872040Y-99388558D01*
X155884393Y-99328440D01*
X155885506Y-99323912D01*
X155902387Y-99264918D01*
X155904995Y-99230655D01*
X155906087Y-99222876D01*
X155913000Y-99189239D01*
X155913000Y-99127901D01*
X155913179Y-99123192D01*
X155917837Y-99062025D01*
X155913497Y-99027941D01*
X155913000Y-99020102D01*
X155913000Y-95625259D01*
X155914661Y-95609567D01*
X155914311Y-95609532D01*
X155925499Y-95500016D01*
X155925500Y-95500009D01*
X155925499Y-94499992D01*
X155920180Y-94447926D01*
X155914999Y-94397203D01*
X155914998Y-94397200D01*
X155907555Y-94374740D01*
X155859814Y-94230666D01*
X155767712Y-94081344D01*
X155643656Y-93957288D01*
X155534075Y-93889698D01*
X155494336Y-93865187D01*
X155494331Y-93865185D01*
X155480464Y-93860590D01*
X155327797Y-93810001D01*
X155327795Y-93810000D01*
X155225010Y-93799500D01*
X154599998Y-93799500D01*
X154599980Y-93799501D01*
X154497203Y-93810000D01*
X154497200Y-93810001D01*
X154330668Y-93865185D01*
X154330661Y-93865188D01*
X154277095Y-93898228D01*
X154209703Y-93916667D01*
X154143039Y-93895744D01*
X154098271Y-93842101D01*
X154088000Y-93792688D01*
X154088000Y-92675259D01*
X154089661Y-92659567D01*
X154089311Y-92659532D01*
X154100499Y-92550016D01*
X154100500Y-92550009D01*
X154100499Y-91549992D01*
X154097523Y-91520863D01*
X154089999Y-91447203D01*
X154089998Y-91447200D01*
X154062735Y-91364926D01*
X154034814Y-91280666D01*
X153942712Y-91131344D01*
X153818656Y-91007288D01*
X153699689Y-90933909D01*
X153669336Y-90915187D01*
X153669331Y-90915185D01*
X153636832Y-90904416D01*
X153502797Y-90860001D01*
X153502795Y-90860000D01*
X153400010Y-90849500D01*
X152774998Y-90849500D01*
X152774980Y-90849501D01*
X152672203Y-90860000D01*
X152672200Y-90860001D01*
X152505668Y-90915185D01*
X152505663Y-90915187D01*
X152356342Y-91007289D01*
X152350451Y-91013181D01*
X152289128Y-91046666D01*
X152262770Y-91049500D01*
X151662229Y-91049500D01*
X151595190Y-91029815D01*
X151574548Y-91013181D01*
X150338022Y-89776655D01*
X149075729Y-88514361D01*
X149063949Y-88500730D01*
X149056482Y-88490701D01*
X149049612Y-88481472D01*
X149049610Y-88481470D01*
X149009587Y-88447886D01*
X149005612Y-88444244D01*
X149002690Y-88441322D01*
X148999779Y-88438410D01*
X148974736Y-88418609D01*
X148973338Y-88417470D01*
X148915214Y-88368698D01*
X148909180Y-88364729D01*
X148909212Y-88364680D01*
X148902853Y-88360628D01*
X148902822Y-88360679D01*
X148896680Y-88356891D01*
X148896678Y-88356890D01*
X148896677Y-88356889D01*
X148827872Y-88324804D01*
X148826252Y-88324019D01*
X148786512Y-88304061D01*
X148758433Y-88289960D01*
X148758431Y-88289959D01*
X148758430Y-88289959D01*
X148751645Y-88287489D01*
X148751665Y-88287433D01*
X148744549Y-88284959D01*
X148744531Y-88285015D01*
X148737674Y-88282743D01*
X148663328Y-88267391D01*
X148661569Y-88267001D01*
X148587718Y-88249499D01*
X148580547Y-88248661D01*
X148580553Y-88248601D01*
X148573055Y-88247835D01*
X148573050Y-88247895D01*
X148565860Y-88247265D01*
X148489968Y-88249474D01*
X148488165Y-88249500D01*
X143862229Y-88249500D01*
X143795190Y-88229815D01*
X143774548Y-88213181D01*
X143573548Y-88012181D01*
X143540063Y-87950858D01*
X143545047Y-87881166D01*
X143586919Y-87825233D01*
X143652383Y-87800816D01*
X143661229Y-87800500D01*
X144790686Y-87800500D01*
X144790694Y-87800500D01*
X144827569Y-87797598D01*
X144827571Y-87797597D01*
X144827573Y-87797597D01*
X144972733Y-87755424D01*
X145007328Y-87750500D01*
X150436295Y-87750500D01*
X150454265Y-87751809D01*
X150478023Y-87755289D01*
X150530068Y-87750735D01*
X150535470Y-87750500D01*
X150543704Y-87750500D01*
X150543709Y-87750500D01*
X150575458Y-87746788D01*
X150577075Y-87746622D01*
X150652797Y-87739999D01*
X150652805Y-87739996D01*
X150659866Y-87738539D01*
X150659878Y-87738598D01*
X150667243Y-87736965D01*
X150667229Y-87736906D01*
X150674251Y-87735241D01*
X150674255Y-87735241D01*
X150745587Y-87709277D01*
X150747286Y-87708688D01*
X150819334Y-87684814D01*
X150819342Y-87684808D01*
X150825882Y-87681760D01*
X150825908Y-87681816D01*
X150832690Y-87678532D01*
X150832663Y-87678478D01*
X150839109Y-87675239D01*
X150839117Y-87675237D01*
X150902612Y-87633475D01*
X150903977Y-87632605D01*
X150968656Y-87592712D01*
X150968661Y-87592706D01*
X150974325Y-87588229D01*
X150974363Y-87588277D01*
X150980200Y-87583522D01*
X150980161Y-87583475D01*
X150985691Y-87578833D01*
X150985696Y-87578830D01*
X151037799Y-87523602D01*
X151038993Y-87522373D01*
X152719178Y-85842188D01*
X152759112Y-85817729D01*
X152758330Y-85815972D01*
X152764265Y-85813329D01*
X152764267Y-85813329D01*
X152927593Y-85740612D01*
X153072230Y-85635526D01*
X153191859Y-85502665D01*
X153277308Y-85354663D01*
X153281248Y-85347839D01*
X153281248Y-85347837D01*
X153281250Y-85347835D01*
X153304644Y-85275834D01*
X153334890Y-85226476D01*
X153874548Y-84686819D01*
X153935872Y-84653334D01*
X153962230Y-84650500D01*
X154205172Y-84650500D01*
X154239767Y-84655424D01*
X154384926Y-84697597D01*
X154384929Y-84697597D01*
X154384931Y-84697598D01*
X154421806Y-84700500D01*
X154421814Y-84700500D01*
X155578186Y-84700500D01*
X155578194Y-84700500D01*
X155615069Y-84697598D01*
X155615071Y-84697597D01*
X155615073Y-84697597D01*
X155690462Y-84675694D01*
X155772898Y-84651744D01*
X155914365Y-84568081D01*
X156030581Y-84451865D01*
X156030767Y-84451549D01*
X156030977Y-84451353D01*
X156035361Y-84445702D01*
X156036272Y-84446409D01*
X156081836Y-84403866D01*
X156150577Y-84391362D01*
X156215167Y-84418006D01*
X156239354Y-84445919D01*
X156239637Y-84445700D01*
X156243677Y-84450908D01*
X156244233Y-84451550D01*
X156244419Y-84451866D01*
X156248479Y-84457099D01*
X156274014Y-84522136D01*
X156274500Y-84533100D01*
X156274500Y-85794867D01*
X156256040Y-85859961D01*
X156240187Y-85885663D01*
X156240186Y-85885665D01*
X156240186Y-85885666D01*
X156185001Y-86052203D01*
X156185001Y-86052204D01*
X156185000Y-86052204D01*
X156174500Y-86154983D01*
X156174500Y-86639592D01*
X156174321Y-86644297D01*
X156170160Y-86698943D01*
X156169663Y-86705476D01*
X156174003Y-86739557D01*
X156174500Y-86747397D01*
X156174500Y-87205001D01*
X156174501Y-87205019D01*
X156185000Y-87307796D01*
X156185001Y-87307799D01*
X156240185Y-87474331D01*
X156240187Y-87474336D01*
X156254292Y-87497204D01*
X156332288Y-87623656D01*
X156456344Y-87747712D01*
X156605666Y-87839814D01*
X156772203Y-87894999D01*
X156874991Y-87905500D01*
X157475008Y-87905499D01*
X157475016Y-87905498D01*
X157475019Y-87905498D01*
X157531302Y-87899748D01*
X157577797Y-87894999D01*
X157744334Y-87839814D01*
X157893656Y-87747712D01*
X158017712Y-87623656D01*
X158109814Y-87474334D01*
X158164999Y-87307797D01*
X158175500Y-87205009D01*
X158175499Y-87047443D01*
X158189591Y-86990030D01*
X158208909Y-86953049D01*
X158218357Y-86920022D01*
X158220988Y-86912633D01*
X158234540Y-86881058D01*
X158246895Y-86820930D01*
X158247999Y-86816429D01*
X158264886Y-86757418D01*
X158267494Y-86723157D01*
X158268585Y-86715389D01*
X158275500Y-86681743D01*
X158275500Y-86620398D01*
X158275679Y-86615688D01*
X158280337Y-86554524D01*
X158277445Y-86531819D01*
X158275997Y-86520442D01*
X158275500Y-86512603D01*
X158275500Y-84533100D01*
X158295185Y-84466061D01*
X158301521Y-84457099D01*
X158305580Y-84451866D01*
X158305581Y-84451865D01*
X158389244Y-84310398D01*
X158426463Y-84182290D01*
X158435097Y-84152573D01*
X158435098Y-84152567D01*
X158438000Y-84115694D01*
X158438000Y-83684306D01*
X158435098Y-83647431D01*
X158389244Y-83489602D01*
X158305581Y-83348135D01*
X158305579Y-83348133D01*
X158305576Y-83348129D01*
X158189370Y-83231923D01*
X158189362Y-83231917D01*
X158047896Y-83148255D01*
X158047893Y-83148254D01*
X157895178Y-83103886D01*
X157853873Y-83082867D01*
X157806958Y-83046552D01*
X157806957Y-83046551D01*
X157805295Y-83045265D01*
X157764332Y-82988663D01*
X157760472Y-82918900D01*
X157794941Y-82858125D01*
X157815605Y-82841978D01*
X157869414Y-82808438D01*
X157900405Y-82794595D01*
X158047898Y-82751744D01*
X158189365Y-82668081D01*
X158305581Y-82551865D01*
X158389244Y-82410398D01*
X158427128Y-82280001D01*
X158435097Y-82252573D01*
X158435098Y-82252567D01*
X158435315Y-82249815D01*
X158438000Y-82215694D01*
X158438000Y-81784306D01*
X158435098Y-81747431D01*
X158435070Y-81747336D01*
X158389245Y-81589606D01*
X158389244Y-81589603D01*
X158389244Y-81589602D01*
X158305581Y-81448135D01*
X158305579Y-81448133D01*
X158305577Y-81448129D01*
X158301518Y-81442895D01*
X158275985Y-81377858D01*
X158275500Y-81366899D01*
X158275500Y-80224499D01*
X158295185Y-80157460D01*
X158347989Y-80111705D01*
X158399500Y-80100499D01*
X158587502Y-80100499D01*
X158587508Y-80100499D01*
X158690297Y-80089999D01*
X158856834Y-80034814D01*
X159006156Y-79942712D01*
X159130212Y-79818656D01*
X159222314Y-79669334D01*
X159277499Y-79502797D01*
X159288000Y-79400009D01*
X159287999Y-78399992D01*
X159277499Y-78297203D01*
X159222314Y-78130666D01*
X159130212Y-77981344D01*
X159006156Y-77857288D01*
X158856834Y-77765186D01*
X158690297Y-77710001D01*
X158690295Y-77710000D01*
X158587510Y-77699500D01*
X157962498Y-77699500D01*
X157962480Y-77699501D01*
X157859703Y-77710000D01*
X157859700Y-77710001D01*
X157693168Y-77765185D01*
X157693163Y-77765187D01*
X157543842Y-77857289D01*
X157537951Y-77863181D01*
X157476628Y-77896666D01*
X157450270Y-77899500D01*
X157040402Y-77899500D01*
X157035695Y-77899321D01*
X157030121Y-77898896D01*
X156974524Y-77894662D01*
X156954589Y-77897201D01*
X156940440Y-77899003D01*
X156932611Y-77899500D01*
X156924730Y-77899500D01*
X156857691Y-77879815D01*
X156837049Y-77863181D01*
X156831157Y-77857289D01*
X156831156Y-77857288D01*
X156681834Y-77765186D01*
X156515297Y-77710001D01*
X156515295Y-77710000D01*
X156412510Y-77699500D01*
X155787498Y-77699500D01*
X155787480Y-77699501D01*
X155684703Y-77710000D01*
X155684700Y-77710001D01*
X155518168Y-77765185D01*
X155518163Y-77765187D01*
X155368842Y-77857289D01*
X155275181Y-77950951D01*
X155213858Y-77984436D01*
X155144166Y-77979452D01*
X155099819Y-77950951D01*
X155006157Y-77857289D01*
X155006157Y-77857288D01*
X155006156Y-77857288D01*
X154856834Y-77765186D01*
X154690297Y-77710001D01*
X154690295Y-77710000D01*
X154587510Y-77699500D01*
X153962498Y-77699500D01*
X153962480Y-77699501D01*
X153859703Y-77710000D01*
X153859700Y-77710001D01*
X153693168Y-77765185D01*
X153693163Y-77765187D01*
X153543845Y-77857287D01*
X153437950Y-77963182D01*
X153376627Y-77996666D01*
X153350269Y-77999500D01*
X152949257Y-77999500D01*
X152797560Y-78014925D01*
X152603420Y-78075837D01*
X152603405Y-78075844D01*
X152512672Y-78126205D01*
X152444503Y-78141528D01*
X152378872Y-78117564D01*
X152336615Y-78061921D01*
X152331150Y-77992265D01*
X152342582Y-77960382D01*
X152355602Y-77935457D01*
X152359666Y-77928748D01*
X152379295Y-77900549D01*
X152403497Y-77844150D01*
X152405500Y-77839931D01*
X152433909Y-77785549D01*
X152443357Y-77752522D01*
X152445988Y-77745133D01*
X152459540Y-77713558D01*
X152471895Y-77653430D01*
X152472999Y-77648929D01*
X152489886Y-77589918D01*
X152492494Y-77555657D01*
X152493585Y-77547889D01*
X152500500Y-77514243D01*
X152500500Y-77452898D01*
X152500679Y-77448188D01*
X152505337Y-77387024D01*
X152500997Y-77352942D01*
X152500500Y-77345103D01*
X152500500Y-75013451D01*
X152500520Y-75011881D01*
X152502756Y-74923642D01*
X152502755Y-74923641D01*
X152502756Y-74923636D01*
X152491929Y-74863233D01*
X152491282Y-74858620D01*
X152485074Y-74797562D01*
X152485073Y-74797560D01*
X152485073Y-74797557D01*
X152474790Y-74764787D01*
X152472917Y-74757154D01*
X152466858Y-74723348D01*
X152444102Y-74666378D01*
X152442521Y-74661937D01*
X152424159Y-74603412D01*
X152424158Y-74603410D01*
X152424157Y-74603407D01*
X152407488Y-74573378D01*
X152404117Y-74566278D01*
X152391378Y-74534386D01*
X152391377Y-74534383D01*
X152357620Y-74483163D01*
X152355180Y-74479134D01*
X152344379Y-74459675D01*
X152325409Y-74425498D01*
X152325407Y-74425495D01*
X152303033Y-74399434D01*
X152298302Y-74393159D01*
X152279402Y-74364481D01*
X152236033Y-74321112D01*
X152232829Y-74317656D01*
X152192867Y-74271106D01*
X152165698Y-74250075D01*
X152159804Y-74244883D01*
X152149319Y-74234398D01*
X152115834Y-74173075D01*
X152113000Y-74146717D01*
X152113000Y-73834313D01*
X152112999Y-73834298D01*
X152110339Y-73800500D01*
X152110098Y-73797431D01*
X152091760Y-73734313D01*
X152064245Y-73639606D01*
X152064244Y-73639603D01*
X152064244Y-73639602D01*
X151980581Y-73498135D01*
X151980579Y-73498133D01*
X151980576Y-73498129D01*
X151864370Y-73381923D01*
X151864362Y-73381917D01*
X151722896Y-73298255D01*
X151722893Y-73298254D01*
X151565073Y-73252402D01*
X151565067Y-73252401D01*
X151528201Y-73249500D01*
X151528194Y-73249500D01*
X151517745Y-73249500D01*
X151450706Y-73229815D01*
X151441848Y-73223559D01*
X151440556Y-73222559D01*
X151399589Y-73165960D01*
X151395726Y-73096197D01*
X151430193Y-73035420D01*
X151492047Y-73002926D01*
X151516453Y-73000500D01*
X152446717Y-73000500D01*
X152513756Y-73020185D01*
X152534398Y-73036819D01*
X152763181Y-73265602D01*
X152796666Y-73326925D01*
X152799500Y-73353281D01*
X152799500Y-73399999D01*
X152799501Y-73400019D01*
X152810000Y-73502796D01*
X152810001Y-73502799D01*
X152865185Y-73669331D01*
X152865187Y-73669336D01*
X152882513Y-73697426D01*
X152952198Y-73810404D01*
X152957289Y-73818657D01*
X153050951Y-73912319D01*
X153084436Y-73973642D01*
X153079452Y-74043334D01*
X153050951Y-74087681D01*
X152957289Y-74181342D01*
X152865187Y-74330663D01*
X152865185Y-74330668D01*
X152864769Y-74331923D01*
X152810001Y-74497203D01*
X152810001Y-74497204D01*
X152810000Y-74497204D01*
X152799500Y-74599983D01*
X152799500Y-75225001D01*
X152799501Y-75225019D01*
X152810000Y-75327796D01*
X152810001Y-75327799D01*
X152865185Y-75494331D01*
X152865187Y-75494336D01*
X152957289Y-75643657D01*
X152963181Y-75649549D01*
X152996666Y-75710872D01*
X152999500Y-75737230D01*
X152999500Y-76050743D01*
X153014925Y-76202439D01*
X153075837Y-76396579D01*
X153075844Y-76396594D01*
X153174589Y-76574499D01*
X153174592Y-76574504D01*
X153307132Y-76728893D01*
X153307134Y-76728895D01*
X153468037Y-76853445D01*
X153468038Y-76853445D01*
X153468042Y-76853448D01*
X153650729Y-76943060D01*
X153847715Y-76994063D01*
X154050936Y-77004369D01*
X154252071Y-76973556D01*
X154442887Y-76902886D01*
X154615571Y-76795252D01*
X154763053Y-76655059D01*
X154879295Y-76488049D01*
X154959540Y-76301058D01*
X155000500Y-76101741D01*
X155000500Y-75737230D01*
X155020185Y-75670191D01*
X155036819Y-75649549D01*
X155036819Y-75649548D01*
X155042712Y-75643656D01*
X155134814Y-75494334D01*
X155189999Y-75327797D01*
X155200500Y-75225009D01*
X155200499Y-74599992D01*
X155197780Y-74573378D01*
X155189999Y-74497203D01*
X155189998Y-74497200D01*
X155184695Y-74481196D01*
X155134814Y-74330666D01*
X155042712Y-74181344D01*
X154949049Y-74087680D01*
X154915564Y-74026358D01*
X154920548Y-73956666D01*
X154949049Y-73912319D01*
X154994466Y-73866902D01*
X155042712Y-73818656D01*
X155134814Y-73669334D01*
X155189999Y-73502797D01*
X155200500Y-73400009D01*
X155200499Y-72774992D01*
X155199279Y-72763053D01*
X155189999Y-72672203D01*
X155189998Y-72672200D01*
X155134814Y-72505666D01*
X155042712Y-72356344D01*
X154918656Y-72232288D01*
X154769334Y-72140186D01*
X154602797Y-72085001D01*
X154602795Y-72085000D01*
X154500016Y-72074500D01*
X154500009Y-72074500D01*
X154453282Y-72074500D01*
X154386243Y-72054815D01*
X154365601Y-72038181D01*
X154019321Y-71691901D01*
X153629472Y-71302052D01*
X153628414Y-71300966D01*
X153567561Y-71236949D01*
X153567560Y-71236948D01*
X153567559Y-71236947D01*
X153539704Y-71217559D01*
X153517209Y-71201902D01*
X153513446Y-71199064D01*
X153465913Y-71160305D01*
X153465906Y-71160300D01*
X153435459Y-71144397D01*
X153428751Y-71140334D01*
X153400549Y-71120705D01*
X153400546Y-71120703D01*
X153400545Y-71120703D01*
X153400541Y-71120701D01*
X153344180Y-71096514D01*
X153339924Y-71094493D01*
X153285557Y-71066094D01*
X153285550Y-71066091D01*
X153285549Y-71066091D01*
X153279508Y-71064362D01*
X153252530Y-71056642D01*
X153245130Y-71054008D01*
X153213557Y-71040459D01*
X153213558Y-71040459D01*
X153153466Y-71028109D01*
X153148891Y-71026986D01*
X153089920Y-71010113D01*
X153089925Y-71010113D01*
X153055658Y-71007503D01*
X153047880Y-71006412D01*
X153014242Y-70999500D01*
X153014241Y-70999500D01*
X152952902Y-70999500D01*
X152948195Y-70999321D01*
X152942621Y-70998896D01*
X152887024Y-70994662D01*
X152867089Y-70997201D01*
X152852940Y-70999003D01*
X152845111Y-70999500D01*
X150013493Y-70999500D01*
X150011930Y-70999480D01*
X149923637Y-70997243D01*
X149923636Y-70997243D01*
X149923627Y-70997243D01*
X149863253Y-71008065D01*
X149858587Y-71008719D01*
X149797563Y-71014925D01*
X149797562Y-71014925D01*
X149764786Y-71025208D01*
X149757159Y-71027080D01*
X149723350Y-71033140D01*
X149723347Y-71033141D01*
X149666368Y-71055899D01*
X149661931Y-71057478D01*
X149603417Y-71075838D01*
X149603406Y-71075843D01*
X149573382Y-71092507D01*
X149566290Y-71095875D01*
X149540262Y-71106273D01*
X149534383Y-71108622D01*
X149534382Y-71108622D01*
X149534381Y-71108623D01*
X149534373Y-71108627D01*
X149483155Y-71142383D01*
X149479126Y-71144824D01*
X149425502Y-71174588D01*
X149425499Y-71174590D01*
X149399427Y-71196970D01*
X149393160Y-71201695D01*
X149364482Y-71220598D01*
X149364475Y-71220603D01*
X149321116Y-71263962D01*
X149317661Y-71267164D01*
X149271106Y-71307132D01*
X149271105Y-71307133D01*
X149250076Y-71334300D01*
X149244884Y-71340194D01*
X148534399Y-72050681D01*
X148473076Y-72084166D01*
X148446718Y-72087000D01*
X146625259Y-72087000D01*
X146609566Y-72085339D01*
X146609531Y-72085689D01*
X146500016Y-72074500D01*
X146500009Y-72074500D01*
X146453282Y-72074500D01*
X146386243Y-72054815D01*
X146365601Y-72038181D01*
X145932861Y-71605441D01*
X145904258Y-71560818D01*
X145902887Y-71557115D01*
X145902886Y-71557113D01*
X145863296Y-71493597D01*
X145861725Y-71490929D01*
X145825409Y-71425498D01*
X145814921Y-71413281D01*
X145803773Y-71398100D01*
X145803489Y-71397645D01*
X145795252Y-71384429D01*
X145743701Y-71330197D01*
X145741600Y-71327872D01*
X145692873Y-71271112D01*
X145692868Y-71271108D01*
X145692866Y-71271105D01*
X145680126Y-71261243D01*
X145666155Y-71248620D01*
X145655063Y-71236950D01*
X145593647Y-71194202D01*
X145591116Y-71192343D01*
X145531961Y-71146553D01*
X145531957Y-71146551D01*
X145517496Y-71139458D01*
X145501270Y-71129906D01*
X145488053Y-71120707D01*
X145488050Y-71120705D01*
X145488049Y-71120705D01*
X145470392Y-71113127D01*
X145416551Y-71068602D01*
X145395328Y-71002033D01*
X145413464Y-70934558D01*
X145456387Y-70892320D01*
X145595227Y-70810590D01*
X145746213Y-70674179D01*
X145866649Y-70510167D01*
X145951605Y-70325268D01*
X145959195Y-70292563D01*
X145997602Y-70127053D01*
X145998345Y-70097713D01*
X146002756Y-69923636D01*
X145971948Y-69751744D01*
X145966859Y-69723350D01*
X145966857Y-69723345D01*
X145918852Y-69603167D01*
X145912264Y-69533609D01*
X145927273Y-69494048D01*
X145976744Y-69410398D01*
X146022598Y-69252569D01*
X146025500Y-69215694D01*
X146025500Y-68817895D01*
X146045185Y-68750856D01*
X146097989Y-68705101D01*
X146167147Y-68695157D01*
X146215496Y-68715671D01*
X146216420Y-68714110D01*
X146223135Y-68718081D01*
X146364602Y-68801744D01*
X146519448Y-68846731D01*
X146555680Y-68864028D01*
X146649451Y-68929295D01*
X146836442Y-69009540D01*
X147035759Y-69050500D01*
X147389114Y-69050500D01*
X147456153Y-69070185D01*
X147501908Y-69122989D01*
X147511684Y-69155723D01*
X147526442Y-69252063D01*
X147526445Y-69252075D01*
X147597111Y-69442881D01*
X147597113Y-69442884D01*
X147597114Y-69442887D01*
X147608029Y-69460398D01*
X147704745Y-69615567D01*
X147704749Y-69615572D01*
X147843660Y-69761706D01*
X147844941Y-69763053D01*
X147969551Y-69849784D01*
X148011949Y-69879294D01*
X148011950Y-69879294D01*
X148011951Y-69879295D01*
X148198942Y-69959540D01*
X148398259Y-70000500D01*
X149392540Y-70000500D01*
X149426652Y-70005284D01*
X149547582Y-70039887D01*
X149615213Y-70045037D01*
X149750475Y-70055337D01*
X149750477Y-70055337D01*
X149750478Y-70055337D01*
X149952321Y-70029631D01*
X149952321Y-70029630D01*
X149952328Y-70029630D01*
X150144872Y-69963816D01*
X150320227Y-69860591D01*
X150320226Y-69860591D01*
X150325648Y-69857400D01*
X150326041Y-69858068D01*
X150357603Y-69842503D01*
X150497898Y-69801744D01*
X150639365Y-69718081D01*
X150755581Y-69601865D01*
X150839244Y-69460398D01*
X150885098Y-69302569D01*
X150888000Y-69265694D01*
X150888000Y-68867894D01*
X150907685Y-68800856D01*
X150960489Y-68755101D01*
X151029647Y-68745157D01*
X151077996Y-68765671D01*
X151078920Y-68764110D01*
X151097319Y-68774991D01*
X151227102Y-68851744D01*
X151227103Y-68851744D01*
X151227106Y-68851746D01*
X151376295Y-68895090D01*
X151420060Y-68918063D01*
X151446593Y-68939698D01*
X151626951Y-69033909D01*
X151822582Y-69089886D01*
X152011117Y-69104243D01*
X152025475Y-69105337D01*
X152025476Y-69105337D01*
X152227321Y-69079631D01*
X152227321Y-69079630D01*
X152227328Y-69079630D01*
X152419872Y-69013816D01*
X152563452Y-68929295D01*
X152600648Y-68907399D01*
X152601042Y-68908068D01*
X152632598Y-68892505D01*
X152772898Y-68851744D01*
X152914365Y-68768081D01*
X153030581Y-68651865D01*
X153114244Y-68510398D01*
X153148005Y-68394191D01*
X153160097Y-68352573D01*
X153160098Y-68352567D01*
X153162999Y-68315701D01*
X153163000Y-68315694D01*
X153163000Y-67884306D01*
X153160098Y-67847431D01*
X153114244Y-67689602D01*
X153030581Y-67548135D01*
X153030579Y-67548133D01*
X153030576Y-67548129D01*
X152914370Y-67431923D01*
X152914362Y-67431917D01*
X152772896Y-67348255D01*
X152772895Y-67348254D01*
X152648817Y-67312206D01*
X152595732Y-67280811D01*
X152117011Y-66802091D01*
X152115914Y-66800966D01*
X152055061Y-66736949D01*
X152055060Y-66736948D01*
X152055059Y-66736947D01*
X152027204Y-66717559D01*
X152004709Y-66701902D01*
X152000946Y-66699064D01*
X151953413Y-66660305D01*
X151953406Y-66660300D01*
X151922959Y-66644397D01*
X151916251Y-66640334D01*
X151888049Y-66620705D01*
X151888046Y-66620703D01*
X151888045Y-66620703D01*
X151888041Y-66620701D01*
X151831680Y-66596514D01*
X151827424Y-66594493D01*
X151773057Y-66566094D01*
X151773050Y-66566091D01*
X151773049Y-66566091D01*
X151767008Y-66564362D01*
X151740030Y-66556642D01*
X151732630Y-66554008D01*
X151701057Y-66540459D01*
X151701058Y-66540459D01*
X151640966Y-66528109D01*
X151636391Y-66526986D01*
X151577420Y-66510113D01*
X151577425Y-66510113D01*
X151543158Y-66507503D01*
X151535380Y-66506412D01*
X151501742Y-66499500D01*
X151501741Y-66499500D01*
X151440402Y-66499500D01*
X151435695Y-66499321D01*
X151430121Y-66498896D01*
X151374524Y-66494662D01*
X151354589Y-66497201D01*
X151340440Y-66499003D01*
X151332611Y-66499500D01*
X149064988Y-66499500D01*
X148997949Y-66479815D01*
X148952194Y-66427011D01*
X148942250Y-66357853D01*
X148950054Y-66331383D01*
X148949571Y-66331218D01*
X148951607Y-66325261D01*
X148997602Y-66127053D01*
X148998918Y-66075115D01*
X149002756Y-65923637D01*
X148966858Y-65723347D01*
X148891377Y-65534383D01*
X148891372Y-65534376D01*
X148891370Y-65534371D01*
X148779403Y-65364482D01*
X148779400Y-65364477D01*
X148356819Y-64941897D01*
X148323334Y-64880574D01*
X148320500Y-64854216D01*
X148320500Y-64460758D01*
X148340185Y-64393719D01*
X148356827Y-64373069D01*
X148356897Y-64372998D01*
X148358495Y-64371401D01*
X148488426Y-64185840D01*
X148543001Y-64142217D01*
X148612499Y-64135023D01*
X148674854Y-64166546D01*
X148691574Y-64185841D01*
X148821505Y-64371401D01*
X148988599Y-64538495D01*
X149085384Y-64606264D01*
X149182165Y-64674032D01*
X149182167Y-64674033D01*
X149182170Y-64674035D01*
X149396337Y-64773903D01*
X149624592Y-64835063D01*
X149812918Y-64851539D01*
X149859999Y-64855659D01*
X149860000Y-64855659D01*
X149860001Y-64855659D01*
X149899234Y-64852226D01*
X150095408Y-64835063D01*
X150323663Y-64773903D01*
X150537830Y-64674035D01*
X150731401Y-64538495D01*
X150898495Y-64371401D01*
X151034035Y-64177830D01*
X151133903Y-63963663D01*
X151195063Y-63735408D01*
X151215659Y-63500000D01*
X151195063Y-63264592D01*
X151133903Y-63036337D01*
X151034035Y-62822171D01*
X151028425Y-62814158D01*
X150898494Y-62628597D01*
X150896819Y-62626922D01*
X150896315Y-62626000D01*
X150895014Y-62624449D01*
X150895325Y-62624187D01*
X150863334Y-62565599D01*
X150860500Y-62539241D01*
X150860500Y-61873451D01*
X150860520Y-61871881D01*
X150862756Y-61783642D01*
X150862755Y-61783641D01*
X150862756Y-61783636D01*
X150851929Y-61723233D01*
X150851282Y-61718620D01*
X150845074Y-61657562D01*
X150845073Y-61657560D01*
X150845073Y-61657557D01*
X150834790Y-61624787D01*
X150832917Y-61617154D01*
X150828361Y-61591735D01*
X150826858Y-61583347D01*
X150811798Y-61545647D01*
X150804102Y-61526378D01*
X150802521Y-61521937D01*
X150801971Y-61520185D01*
X150784159Y-61463412D01*
X150784158Y-61463410D01*
X150784157Y-61463407D01*
X150767488Y-61433378D01*
X150764117Y-61426278D01*
X150751378Y-61394386D01*
X150751377Y-61394383D01*
X150717620Y-61343163D01*
X150715180Y-61339134D01*
X150704379Y-61319675D01*
X150685409Y-61285498D01*
X150685407Y-61285495D01*
X150663033Y-61259434D01*
X150658302Y-61253159D01*
X150639402Y-61224481D01*
X150596012Y-61181091D01*
X150592822Y-61177648D01*
X150552867Y-61131106D01*
X150552863Y-61131102D01*
X150525698Y-61110074D01*
X150519811Y-61104890D01*
X149217010Y-59802090D01*
X149215914Y-59800966D01*
X149155061Y-59736949D01*
X149155060Y-59736948D01*
X149155059Y-59736947D01*
X149127204Y-59717559D01*
X149104709Y-59701902D01*
X149100946Y-59699064D01*
X149053413Y-59660305D01*
X149053406Y-59660300D01*
X149022959Y-59644397D01*
X149016251Y-59640334D01*
X148988049Y-59620705D01*
X148988046Y-59620703D01*
X148988045Y-59620703D01*
X148988041Y-59620701D01*
X148931680Y-59596514D01*
X148927424Y-59594493D01*
X148873057Y-59566094D01*
X148873050Y-59566091D01*
X148873049Y-59566091D01*
X148867008Y-59564362D01*
X148840030Y-59556642D01*
X148832630Y-59554008D01*
X148801057Y-59540459D01*
X148801058Y-59540459D01*
X148740966Y-59528109D01*
X148736391Y-59526986D01*
X148677420Y-59510113D01*
X148677425Y-59510113D01*
X148643158Y-59507503D01*
X148635380Y-59506412D01*
X148601742Y-59499500D01*
X148601741Y-59499500D01*
X148540402Y-59499500D01*
X148535695Y-59499321D01*
X148530121Y-59498896D01*
X148474524Y-59494662D01*
X148454589Y-59497201D01*
X148440440Y-59499003D01*
X148432611Y-59499500D01*
X139513493Y-59499500D01*
X139511930Y-59499480D01*
X139423637Y-59497243D01*
X139423636Y-59497243D01*
X139423627Y-59497243D01*
X139363253Y-59508065D01*
X139358587Y-59508719D01*
X139297563Y-59514925D01*
X139297562Y-59514925D01*
X139264786Y-59525208D01*
X139257159Y-59527080D01*
X139223350Y-59533140D01*
X139223347Y-59533141D01*
X139166368Y-59555899D01*
X139161931Y-59557478D01*
X139103417Y-59575838D01*
X139103406Y-59575843D01*
X139073382Y-59592507D01*
X139066290Y-59595875D01*
X139040262Y-59606273D01*
X139034383Y-59608622D01*
X139034382Y-59608622D01*
X139034381Y-59608623D01*
X139034373Y-59608627D01*
X138983155Y-59642383D01*
X138979126Y-59644824D01*
X138925502Y-59674588D01*
X138925499Y-59674590D01*
X138899427Y-59696970D01*
X138893160Y-59701695D01*
X138864482Y-59720598D01*
X138864475Y-59720603D01*
X138821116Y-59763962D01*
X138817661Y-59767164D01*
X138771106Y-59807132D01*
X138771105Y-59807133D01*
X138750076Y-59834300D01*
X138744884Y-59840194D01*
X133302091Y-65282987D01*
X133300967Y-65284083D01*
X133236946Y-65344942D01*
X133201899Y-65395294D01*
X133199062Y-65399056D01*
X133160302Y-65446592D01*
X133160299Y-65446597D01*
X133144392Y-65477047D01*
X133140324Y-65483761D01*
X133120702Y-65511954D01*
X133096509Y-65568330D01*
X133094488Y-65572584D01*
X133066091Y-65626951D01*
X133066090Y-65626952D01*
X133056640Y-65659975D01*
X133054007Y-65667371D01*
X133040459Y-65698943D01*
X133028113Y-65759019D01*
X133026990Y-65763595D01*
X133010113Y-65822577D01*
X133010113Y-65822579D01*
X133007503Y-65856841D01*
X133006414Y-65864608D01*
X133003752Y-65877561D01*
X132999499Y-65898258D01*
X132999500Y-65959597D01*
X132999321Y-65964306D01*
X132994662Y-66025474D01*
X132996707Y-66041527D01*
X132999003Y-66059560D01*
X132999500Y-66067388D01*
X132999500Y-70486506D01*
X132999480Y-70488076D01*
X132997243Y-70576362D01*
X132997243Y-70576370D01*
X133008064Y-70636739D01*
X133008718Y-70641404D01*
X133014925Y-70702430D01*
X133014927Y-70702444D01*
X133025208Y-70735213D01*
X133027079Y-70742837D01*
X133033142Y-70776652D01*
X133033142Y-70776655D01*
X133055894Y-70833612D01*
X133057474Y-70838051D01*
X133075841Y-70896588D01*
X133075844Y-70896595D01*
X133092509Y-70926619D01*
X133095879Y-70933714D01*
X133108622Y-70965614D01*
X133108627Y-70965624D01*
X133130114Y-70998227D01*
X133141119Y-71014925D01*
X133142377Y-71016833D01*
X133144818Y-71020863D01*
X133174588Y-71074498D01*
X133174589Y-71074499D01*
X133174591Y-71074502D01*
X133196968Y-71100567D01*
X133201693Y-71106835D01*
X133210832Y-71120701D01*
X133220598Y-71135519D01*
X133263978Y-71178899D01*
X133267169Y-71182343D01*
X133300011Y-71220598D01*
X133307134Y-71228895D01*
X133332617Y-71248620D01*
X133334294Y-71249918D01*
X133340190Y-71255111D01*
X134783005Y-72697926D01*
X134784070Y-72699017D01*
X134841500Y-72759433D01*
X134844940Y-72763052D01*
X134844947Y-72763058D01*
X134875877Y-72784584D01*
X134895295Y-72798100D01*
X134899050Y-72800932D01*
X134946593Y-72839698D01*
X134977045Y-72855604D01*
X134983756Y-72859671D01*
X135011951Y-72879295D01*
X135068332Y-72903490D01*
X135072567Y-72905501D01*
X135126951Y-72933909D01*
X135159973Y-72943356D01*
X135167365Y-72945989D01*
X135198940Y-72959539D01*
X135198941Y-72959540D01*
X135212054Y-72962234D01*
X135259055Y-72971892D01*
X135263595Y-72973006D01*
X135322582Y-72989886D01*
X135356841Y-72992494D01*
X135364609Y-72993585D01*
X135398255Y-73000500D01*
X135398259Y-73000500D01*
X135459601Y-73000500D01*
X135464308Y-73000678D01*
X135493816Y-73002926D01*
X135525475Y-73005337D01*
X135525475Y-73005336D01*
X135525476Y-73005337D01*
X135559559Y-73000996D01*
X135567389Y-73000500D01*
X135675500Y-73000500D01*
X135742539Y-73020185D01*
X135788294Y-73072989D01*
X135799500Y-73124500D01*
X135799500Y-73400000D01*
X135799501Y-73400019D01*
X135810000Y-73502796D01*
X135810001Y-73502799D01*
X135865185Y-73669331D01*
X135865187Y-73669336D01*
X135874762Y-73684859D01*
X135898228Y-73722904D01*
X135916668Y-73790296D01*
X135895745Y-73856959D01*
X135842103Y-73901729D01*
X135792689Y-73912000D01*
X135100993Y-73912000D01*
X135099430Y-73911980D01*
X135011137Y-73909743D01*
X135011128Y-73909743D01*
X134958136Y-73919241D01*
X134950754Y-73920564D01*
X134946095Y-73921218D01*
X134885064Y-73927425D01*
X134885062Y-73927426D01*
X134852280Y-73937710D01*
X134844656Y-73939581D01*
X134836808Y-73940988D01*
X134810849Y-73945641D01*
X134753881Y-73968395D01*
X134749445Y-73969974D01*
X134690914Y-73988340D01*
X134690910Y-73988342D01*
X134660878Y-74005010D01*
X134653784Y-74008379D01*
X134621880Y-74021124D01*
X134570667Y-74054875D01*
X134566639Y-74057315D01*
X134513002Y-74087088D01*
X134512999Y-74087090D01*
X134486929Y-74109469D01*
X134480660Y-74114196D01*
X134451985Y-74133095D01*
X134451981Y-74133098D01*
X134408616Y-74176462D01*
X134405162Y-74179663D01*
X134358603Y-74219635D01*
X134337576Y-74246800D01*
X134332384Y-74252694D01*
X123302091Y-85282987D01*
X123300967Y-85284083D01*
X123236946Y-85344942D01*
X123201899Y-85395294D01*
X123199062Y-85399056D01*
X123160302Y-85446592D01*
X123160299Y-85446597D01*
X123144392Y-85477047D01*
X123140324Y-85483761D01*
X123120702Y-85511954D01*
X123096509Y-85568330D01*
X123094488Y-85572584D01*
X123066091Y-85626951D01*
X123066090Y-85626952D01*
X123056640Y-85659975D01*
X123054007Y-85667371D01*
X123040459Y-85698943D01*
X123028113Y-85759019D01*
X123026990Y-85763595D01*
X123010113Y-85822577D01*
X123010113Y-85822579D01*
X123007503Y-85856841D01*
X123006414Y-85864608D01*
X123002088Y-85885663D01*
X122999500Y-85898258D01*
X122999500Y-85959597D01*
X122999321Y-85964306D01*
X122994662Y-86025474D01*
X120650500Y-86025474D01*
X120650500Y-63501151D01*
X120650542Y-63498869D01*
X120660494Y-63232881D01*
X120668764Y-63022414D01*
X120669102Y-63017972D01*
X120697725Y-62763937D01*
X120724361Y-62538891D01*
X120725004Y-62534705D01*
X120771966Y-62286503D01*
X120816822Y-62060999D01*
X120817718Y-62057159D01*
X120882778Y-61814353D01*
X120945575Y-61591692D01*
X120946707Y-61588106D01*
X121029524Y-61351429D01*
X121109882Y-61133612D01*
X121111190Y-61130361D01*
X121211104Y-60901355D01*
X121211547Y-60900369D01*
X121308766Y-60689485D01*
X121310191Y-60686601D01*
X121426829Y-60465913D01*
X121427432Y-60464804D01*
X121541042Y-60261937D01*
X121542565Y-60259372D01*
X121675260Y-60048189D01*
X121676109Y-60046878D01*
X121805345Y-59853463D01*
X121806950Y-59851179D01*
X121954984Y-59650600D01*
X121956063Y-59649186D01*
X122100160Y-59466399D01*
X122101728Y-59464496D01*
X122264317Y-59275564D01*
X122265670Y-59274047D01*
X122423696Y-59103096D01*
X122425273Y-59101456D01*
X122601456Y-58925273D01*
X122603096Y-58923696D01*
X122774047Y-58765670D01*
X122775564Y-58764317D01*
X122964496Y-58601728D01*
X122966399Y-58600160D01*
X123149186Y-58456063D01*
X123150600Y-58454984D01*
X123351179Y-58306950D01*
X123353463Y-58305345D01*
X123546878Y-58176109D01*
X123548189Y-58175260D01*
X123759372Y-58042565D01*
X123761937Y-58041042D01*
X123964804Y-57927432D01*
X123965913Y-57926829D01*
X124186601Y-57810191D01*
X124189485Y-57808766D01*
X124400369Y-57711547D01*
X124401355Y-57711104D01*
X124630361Y-57611190D01*
X124633612Y-57609882D01*
X124851429Y-57529524D01*
X125088106Y-57446707D01*
X125091692Y-57445575D01*
X125314378Y-57382771D01*
X125557159Y-57317718D01*
X125560999Y-57316822D01*
X125786503Y-57271966D01*
X126034705Y-57225004D01*
X126038891Y-57224361D01*
X126263937Y-57197725D01*
X126517972Y-57169102D01*
X126522412Y-57168764D01*
X126733056Y-57160488D01*
X126998867Y-57150542D01*
X127001152Y-57150500D01*
X165098848Y-57150500D01*
X165101132Y-57150542D01*
G37*
%TD.AperFunction*%
%TD*%
M02*
